<svg width="41" height="37" viewBox="0 0 41 37" fill="none" xmlns="http://www.w3.org/2000/svg">
<path d="M9.82748 0C4.41931 0 0 4.41931 0 9.82748C0 15.2356 4.41931 19.655 9.82748 19.655C11.9428 19.655 13.9015 18.9721 15.509 17.8251L20.1348 22.4509C20.2857 22.6081 20.4665 22.7336 20.6665 22.8201C20.8666 22.9065 21.0819 22.9522 21.2998 22.9544C21.5177 22.9567 21.7338 22.9154 21.9356 22.833C22.1374 22.7506 22.3206 22.6288 22.4747 22.4747C22.6288 22.3206 22.7506 22.1374 22.833 21.9356C22.9154 21.7338 22.9567 21.5177 22.9544 21.2998C22.9522 21.0819 22.9065 20.8666 22.8201 20.6665C22.7336 20.4665 22.6081 20.2857 22.4509 20.1348L17.8251 15.509C18.9721 13.9015 19.655 11.9428 19.655 9.82748C19.655 4.41931 15.2356 0 9.82748 0ZM9.82748 3.27583C13.4653 3.27583 16.3791 6.1897 16.3791 9.82748C16.3791 13.4653 13.4653 16.3791 9.82748 16.3791C6.1897 16.3791 3.27583 13.4653 3.27583 9.82748C3.27583 6.1897 6.1897 3.27583 9.82748 3.27583ZM26.8272 22.9308C26.1985 22.9308 25.5692 23.1707 25.0901 23.6506L23.6506 25.0901C22.6907 26.05 22.6907 27.6061 23.6506 28.5643L31.1203 36.0341H40.9478L28.5643 23.6506C28.0844 23.1707 27.456 22.9308 26.8272 22.9308Z" fill="#0068b5"/>
</svg>
