<svg width="50" height="27" viewBox="0 0 50 27" fill="none" xmlns="http://www.w3.org/2000/svg">
<path d="M1.6955 0.00100672C1.47561 -0.00670559 1.25643 0.0299575 1.05102 0.108808C0.845617 0.187659 0.658202 0.307081 0.49996 0.459948C0.341719 0.612815 0.215895 0.795995 0.129997 0.998554C0.0440987 1.20111 -0.000112994 1.4189 2.16871e-07 1.63892C2.16871e-07 15.1885 11.0192 26.2076 24.5687 26.2076C38.1182 26.2076 49.1374 15.1885 49.1374 1.63892C49.1374 1.39145 49.0813 1.14721 48.9733 0.924527C48.8654 0.701846 48.7084 0.506516 48.5141 0.353205C48.3199 0.199894 48.0934 0.0925888 47.8517 0.0393461C47.6101 -0.0138966 47.3595 -0.0116925 47.1188 0.0457934C47.1188 0.0457934 37.0212 2.45788 24.5687 2.45788C12.1162 2.45788 2.0186 0.0457934 2.0186 0.0457934C1.91266 0.0201516 1.80442 0.00514837 1.6955 0.00100672ZM3.47737 3.63833C6.14224 4.20885 13.7862 5.7337 24.5687 5.7337C35.3512 5.7337 42.9951 4.20885 45.66 3.63833C45.5318 4.99914 45.2765 6.32126 44.9082 7.59555C42.3724 8.72922 36.3875 10.6474 24.5687 10.6474C12.7499 10.6474 6.76499 8.72922 4.22914 7.59555C3.86093 6.32126 3.60554 4.99914 3.47737 3.63833ZM10.608 17.6502C13.9481 18.309 18.444 18.837 24.5687 18.837C30.6934 18.837 35.1892 18.309 38.5293 17.6502C34.8121 20.9317 29.9442 22.9318 24.5687 22.9318C19.1932 22.9318 14.3253 20.9317 10.608 17.6502Z" fill="#0068b5"/>
</svg>
