<svg width="41" height="37" viewBox="0 0 41 37" fill="none" xmlns="http://www.w3.org/2000/svg">
<path d="M11.4654 0C4.82201 0 0 4.82202 0 11.4654C0 16.7116 1.32029 19.8094 2.38329 22.2974C2.81079 23.2998 3.18142 24.1666 3.38779 25.0102C3.56796 25.7423 3.71376 26.569 3.86445 27.419C4.50487 31.0552 5.38382 36.0341 9.82748 36.0341C13.9534 36.0341 15.0706 32.9581 15.5538 30.6437C16.127 27.892 17.3045 25.2889 18.017 24.6551C18.7295 25.2906 19.9087 27.8936 20.4803 30.6437C20.9635 32.9581 22.0807 36.0341 26.2066 36.0341C30.6503 36.0341 31.5292 31.0552 32.1696 27.419C32.3203 26.569 32.4661 25.7439 32.6463 25.0102C32.8609 24.1355 33.2391 23.1604 33.6764 22.0318C34.0269 21.1294 34.4024 20.1454 34.7513 19.0791L30.6213 20.8514C30.1627 22.034 29.7269 23.1486 29.4632 24.2296C29.2667 25.0256 29.1088 25.9242 28.945 26.8496C28.3537 30.1975 27.7774 32.7583 26.2066 32.7583C25.0715 32.7583 24.2246 32.5581 23.6858 29.9751C23.3844 28.5255 21.6925 21.2929 18.017 21.2929C14.3416 21.2929 12.6497 28.5255 12.3483 29.9751C11.8095 32.5581 10.9626 32.7583 9.82748 32.7583C8.25672 32.7583 7.67874 30.1975 7.08909 26.8496C6.9253 25.9258 6.7674 25.0273 6.57085 24.2296C6.30059 23.1256 5.86352 22.0989 5.39999 21.0114C4.40414 18.6822 3.27583 16.0417 3.27583 11.4654C3.27583 6.64337 6.64337 3.27583 11.4654 3.27583C17.0048 3.27583 19.8104 7.28313 19.9333 7.46658C20.4377 8.21183 21.4496 8.41401 22.2014 7.91445C22.9532 7.41161 23.1537 6.39656 22.6525 5.64312C22.5984 5.56286 22.1142 4.85308 21.1937 3.96042C22.3615 3.59517 23.6531 3.27583 24.5687 3.27583C27.1271 3.27583 29.1394 4.00557 30.5349 5.35521L33.7404 3.98282C31.7667 1.4375 28.6061 0 24.5687 0C22.3493 0 19.2625 1.1144 17.9914 1.61232C16.288 0.703279 14.1139 0 11.4654 0ZM40.0105 4.91374C39.9093 4.91996 39.8077 4.94473 39.7098 4.98732L30.8996 8.76219C30.6294 8.87849 30.4355 9.12169 30.3782 9.4116C30.3225 9.70151 30.4133 9.99851 30.6213 10.2082L32.5087 12.0956L28.1036 16.5007C27.8023 16.8021 27.7557 17.2762 27.9949 17.63C28.0276 17.6775 28.0643 17.7218 28.1036 17.7611C28.3575 18.015 28.7435 18.0924 29.0825 17.9467L37.8895 14.175C38.1631 14.0554 38.3585 13.8107 38.4142 13.5224C38.4699 13.2325 38.3791 12.9355 38.171 12.7258L36.2836 10.8384L40.6887 6.43329C40.9901 6.13191 41.0366 5.65781 40.7975 5.30402C40.6144 5.035 40.3142 4.89508 40.0105 4.91374Z" fill="#0068b5"/>
</svg>
