<svg width="6" height="10" viewBox="0 0 6 10" fill="none" xmlns="http://www.w3.org/2000/svg">
<path fill-rule="evenodd" clip-rule="evenodd" d="M1.73522 7.42442C1.73522 6.67694 1.73235 5.9295 1.73792 5.18214C1.73893 5.05617 1.7033 5.01674 1.57729 5.02189C1.34438 5.03135 1.11084 5.02092 0.877635 5.02628C0.783197 5.02869 0.74841 5.00251 0.749442 4.9025C0.754152 4.43618 0.753687 3.96956 0.74993 3.50311C0.749086 3.4134 0.776104 3.38389 0.866827 3.38592C1.10527 3.39141 1.34421 3.37925 1.58223 3.39103C1.72019 3.39778 1.74873 3.34877 1.74586 3.22077C1.73754 2.86586 1.73754 2.5104 1.74531 2.15544C1.75481 1.72192 1.87115 1.31715 2.12939 0.964687C2.45615 0.518249 2.92074 0.314175 3.45672 0.29028C4.00718 0.265837 4.55903 0.279388 5.11016 0.273457C5.187 0.272591 5.20994 0.300074 5.20958 0.374755C5.20713 0.846438 5.20663 1.31829 5.20994 1.78997C5.21068 1.8739 5.18328 1.89957 5.10092 1.89826C4.83584 1.89412 4.57072 1.89615 4.30581 1.89687C3.95301 1.89796 3.74185 2.07945 3.71972 2.42867C3.70199 2.70864 3.71495 2.99031 3.70845 3.27109C3.70605 3.37115 3.76549 3.36426 3.83168 3.36418C4.23447 3.36359 4.63742 3.36819 5.04021 3.36131C5.15846 3.35924 5.19747 3.38647 5.18396 3.51092C5.13326 3.97961 5.08969 4.44918 5.04954 4.91901C5.04038 5.02501 4.992 5.04524 4.89676 5.04363C4.579 5.03873 4.2609 5.04025 3.94284 5.04228C3.71445 5.04363 3.73661 5.00885 3.73661 5.24175C3.73556 6.70476 3.73357 8.16781 3.73986 9.63078C3.7405 9.78529 3.70102 9.82362 3.54816 9.82092C3.0023 9.81087 2.45615 9.81037 1.91029 9.82117C1.75645 9.82421 1.73112 9.77203 1.73235 9.63483C1.73817 8.89803 1.73522 8.16127 1.73522 7.42442Z" fill="#FFFFFE"/>
</svg>
