<svg width="42" height="37" viewBox="0 0 42 37" fill="none" xmlns="http://www.w3.org/2000/svg">
<path d="M27.7628 0C24.8569 0 22.5016 2.35533 22.5016 5.26125C22.5016 10.3562 31.1939 17.3345 31.1939 17.3345C31.4639 17.537 31.7819 17.6798 32.1451 17.6798C32.5083 17.6798 32.8262 17.537 33.0963 17.3345C33.0963 17.3345 41.7886 10.3562 41.7886 5.26125C41.7886 2.35533 39.4333 0 36.5274 0C33.7516 0 32.1451 2.41088 32.1451 2.41088C32.1451 2.41088 30.5385 0 27.7628 0ZM3.21451 11.2508C3.00683 11.2517 2.79972 11.2727 2.59609 11.3136C2.57473 11.3178 2.55452 11.3247 2.53331 11.3293C2.34656 11.3694 2.16377 11.4262 1.98709 11.4988C1.97007 11.5058 1.95374 11.5134 1.93687 11.5208C1.75951 11.5964 1.5893 11.6878 1.42832 11.7939C1.42521 11.7959 1.42201 11.798 1.4189 11.8001C1.25131 11.9128 1.0947 12.041 0.951168 12.1831C0.941662 12.1925 0.935444 12.205 0.926055 12.2145C0.788022 12.3535 0.662981 12.5048 0.552494 12.6666L0.549355 12.6697C0.547255 12.6728 0.545165 12.676 0.543076 12.6791C0.430197 12.8475 0.333498 13.0262 0.254273 13.2128V13.2159C0.086944 13.6112 0.000485963 14.036 0 14.4653V33.7524C0.000901116 33.96 0.0219272 34.1671 0.0627834 34.3708C0.0669696 34.3921 0.0738709 34.4123 0.0784792 34.4336C0.118643 34.6203 0.175373 34.8031 0.247994 34.9798C0.255063 34.9968 0.262617 35.0131 0.269969 35.03C0.345569 35.2074 0.436974 35.3776 0.543076 35.5385C0.548908 35.5472 0.555997 35.555 0.561911 35.5637C0.671403 35.7253 0.79539 35.8766 0.932333 36.0157C0.941763 36.0252 0.954179 36.0314 0.963725 36.0408C1.10271 36.1788 1.25402 36.3039 1.41577 36.4144L1.4189 36.4175C1.42201 36.4196 1.42521 36.4217 1.42832 36.4238C1.5967 36.5367 1.77539 36.6334 1.96198 36.7126H1.96512C2.36043 36.8799 2.78525 36.9664 3.21451 36.9669H38.5741C38.7818 36.966 38.9889 36.9449 39.1925 36.9041C39.2139 36.8999 39.2341 36.893 39.2553 36.8884C39.4421 36.8482 39.6249 36.7915 39.8015 36.7189C39.8186 36.7118 39.8349 36.7042 39.8518 36.6969C40.0326 36.6198 40.206 36.5263 40.3697 36.4175C40.3753 36.4137 40.3799 36.4087 40.3854 36.405C40.5507 36.2929 40.7052 36.1658 40.8469 36.0251C40.8532 36.0188 40.8563 36.0095 40.8626 36.0031C41.0018 35.8633 41.1279 35.7109 41.2393 35.548C41.2414 35.5449 41.2435 35.5417 41.2455 35.5385C41.3586 35.3692 41.4553 35.1894 41.5344 35.0017C41.7017 34.6064 41.7881 34.1816 41.7886 33.7524V14.4653C41.7886 14.0571 41.704 13.6701 41.5657 13.3101C40.3105 14.9479 38.9146 16.4052 37.714 17.548C37.9888 17.6251 38.2736 17.6798 38.5741 17.6798L38.571 30.5378C37.719 30.5387 36.9022 30.8777 36.3 31.4805C35.6978 32.0832 35.3596 32.9004 35.3596 33.7524H6.42902C6.42902 32.8998 6.09035 32.0822 5.48751 31.4794C4.88467 30.8765 4.06705 30.5378 3.21451 30.5378V17.6798C4.06705 17.6798 4.88467 17.3411 5.48751 16.7383C6.09035 16.1355 6.42902 15.3178 6.42902 14.4653H23.6536C22.8098 13.4672 21.9936 12.3823 21.2993 11.2508H3.21451ZM20.8943 17.6798C17.3439 17.6798 14.4653 20.9184 14.4653 24.9125C14.4653 27.198 15.4259 29.2119 16.8981 30.5378H24.8905C26.3627 29.2119 27.3233 27.198 27.3233 24.9125C27.3233 20.9184 24.4447 17.6798 20.8943 17.6798ZM8.03627 22.5016C7.61 22.5016 7.20119 22.6709 6.89977 22.9723C6.59836 23.2737 6.42902 23.6826 6.42902 24.1088C6.42902 24.5351 6.59836 24.9439 6.89977 25.2453C7.20119 25.5467 7.61 25.7161 8.03627 25.7161C8.46254 25.7161 8.87136 25.5467 9.17278 25.2453C9.47419 24.9439 9.64353 24.5351 9.64353 24.1088C9.64353 23.6826 9.47419 23.2737 9.17278 22.9723C8.87136 22.6709 8.46254 22.5016 8.03627 22.5016ZM33.7524 22.5016C33.3261 22.5016 32.9173 22.6709 32.6158 22.9723C32.3144 23.2737 32.1451 23.6826 32.1451 24.1088C32.1451 24.5351 32.3144 24.9439 32.6158 25.2453C32.9173 25.5467 33.3261 25.7161 33.7524 25.7161C34.1786 25.7161 34.5874 25.5467 34.8889 25.2453C35.1903 24.9439 35.3596 24.5351 35.3596 24.1088C35.3596 23.6826 35.1903 23.2737 34.8889 22.9723C34.5874 22.6709 34.1786 22.5016 33.7524 22.5016Z" fill="#0068b5"/>
</svg>
