<svg width="44" height="45" viewBox="0 0 44 45" fill="none" xmlns="http://www.w3.org/2000/svg">
<path d="M19.2871 0C12.4691 0 9.64353 4.37334 9.64353 9.64353C9.64353 11.4179 10.4911 13.2002 10.4911 13.2002C10.1504 13.3963 9.58999 14.0187 9.73143 15.1245C9.99502 17.1866 10.889 17.7117 11.458 17.7551C11.6749 19.679 13.742 22.14 14.4653 22.4984V25.7129C12.858 30.5347 0 27.3202 0 38.571H18.5211C17.9859 37.0602 17.6798 35.4433 17.6798 33.7492C17.6798 28.0611 20.9708 23.155 25.7443 20.7907C26.4017 19.8746 27.0036 18.7468 27.1161 17.7551C27.6851 17.7117 28.5791 17.1866 28.8427 15.1245C28.9841 14.0171 28.4238 13.3963 28.083 13.2002C28.083 13.2002 28.9306 11.5899 28.9306 9.64353C28.9306 5.74111 27.3989 2.41088 24.1088 2.41088C24.1088 2.41088 22.9661 0 19.2871 0ZM32.1451 22.4984C25.9315 22.4984 20.8943 27.5356 20.8943 33.7492C20.8943 39.9629 25.9315 45 32.1451 45C38.3587 45 43.3959 39.9629 43.3959 33.7492C43.3959 27.5356 38.3587 22.4984 32.1451 22.4984ZM32.1451 27.3202C33.0323 27.3202 33.7524 28.0386 33.7524 28.9275V32.142H36.9669C37.8541 32.142 38.5741 32.8604 38.5741 33.7492C38.5741 34.638 37.8541 35.3565 36.9669 35.3565H33.7524V38.571C33.7524 39.4598 33.0323 40.1782 32.1451 40.1782C31.2579 40.1782 30.5378 39.4598 30.5378 38.571V35.3565H27.3233C26.4361 35.3565 25.7161 34.638 25.7161 33.7492C25.7161 32.8604 26.4361 32.142 27.3233 32.142H30.5378V28.9275C30.5378 28.0386 31.2579 27.3202 32.1451 27.3202Z" fill="#0068b5"/>
</svg>
