<svg width="36" height="36" viewBox="0 0 36 36" fill="none" xmlns="http://www.w3.org/2000/svg">
<path d="M0 0V32.1451C0 33.9131 1.44653 35.3596 3.21451 35.3596H22.5016L25.7161 32.1451L32.1451 25.7161L35.3596 22.5016V0H33.7524L30.5378 1.60725L27.3547 0L24.1088 1.60725L20.8504 0L17.6798 1.60725L14.5281 0L11.2508 1.60725L8.07081 0L4.82176 1.60725L1.56331 0H0ZM8.05511 3.59435L9.80049 4.47646L11.2288 5.19846L12.6665 4.49529L14.4998 3.59435L16.2201 4.47018L17.6735 5.21416L19.1332 4.47332L20.8692 3.59435L22.6868 4.49215L24.112 5.19219L25.534 4.48901L27.3422 3.59435L29.0875 4.47646L30.5284 5.20474L31.9756 4.48273L32.1451 4.39798V22.5016H25.7161H19.2871V24.1088H22.5016V25.7161H19.2871V27.3233H22.5016V32.1451H3.21451V4.39798L3.39972 4.49215L4.8249 5.19219L6.24695 4.48901L8.05511 3.59435ZM6.42902 8.03627V11.2508H28.9306V8.03627H6.42902ZM6.42902 12.858V24.1088H17.6798V12.858H6.42902ZM19.2871 12.858V14.4653H28.9306V12.858H19.2871ZM9.64353 14.4653V16.0725L11.2508 14.4653H14.4653L16.0725 16.0725H12.858V19.2871L14.4653 17.6798H16.0725V19.2871V20.8943L14.4653 22.5016H9.64353L8.03627 20.8943V16.0725L9.64353 14.4653ZM12.858 19.2871L11.2508 20.8943H14.4653V19.2871H12.858ZM11.2508 20.8943V16.0725H9.64353V20.8943H11.2508ZM19.2871 16.0725V17.6798H28.9306V16.0725H19.2871ZM19.2871 19.2871V20.8943H28.9306V19.2871H19.2871ZM6.42902 25.7161V27.3233H17.6798V25.7161H6.42902Z" fill="#0068b5"/>
</svg>
