<svg width="40" height="40" viewBox="0 0 40 40" fill="none" xmlns="http://www.w3.org/2000/svg">
<path d="M4.92973 0C3.92569 0 2.9606 0.443567 2.3513 1.24123C0.877179 3.16905 0 5.57546 0 8.18956V18.017C0 19.8269 1.46593 21.2929 3.27583 21.2929H21.2929C22.197 21.2929 22.9308 20.5591 22.9308 19.655V8.18956C22.9308 5.57546 22.0536 3.16905 20.5795 1.24123C19.9702 0.443567 19.0051 0 18.001 0H4.92973ZM26.2066 9.82748V19.655C26.2066 20.5591 26.9404 21.2929 27.8445 21.2929H39.3099V11.4654H31.0884C27.8436 11.4654 26.2066 9.82748 26.2066 9.82748ZM11.4398 24.5463C11.3604 24.548 11.2813 24.5555 11.2031 24.5687H4.91374C4.6967 24.5656 4.48121 24.6057 4.2798 24.6867C4.07838 24.7676 3.89507 24.8878 3.7405 25.0401C3.58593 25.1925 3.46319 25.3741 3.37941 25.5744C3.29564 25.7746 3.2525 25.9895 3.2525 26.2066C3.2525 26.4237 3.29564 26.6386 3.37941 26.8388C3.46319 27.0391 3.58593 27.2207 3.7405 27.3731C3.89507 27.5255 4.07838 27.6456 4.2798 27.7266C4.48121 27.8075 4.6967 27.8476 4.91374 27.8445H9.82748V33.2029C9.33034 33.4899 8.91735 33.9026 8.62989 34.3995C8.34243 34.8963 8.19058 35.46 8.18956 36.0341C8.18956 36.9029 8.5347 37.7361 9.14903 38.3504C9.76337 38.9648 10.5966 39.3099 11.4654 39.3099C12.3342 39.3099 13.1674 38.9648 13.7817 38.3504C14.3961 37.7361 14.7412 36.9029 14.7412 36.0341C14.7408 35.4595 14.5892 34.8951 14.3017 34.3976C14.0142 33.9001 13.6009 33.487 13.1033 33.1997V27.8445H18.017C18.2341 27.8476 18.4496 27.8075 18.651 27.7266C18.8524 27.6456 19.0357 27.5255 19.1903 27.3731C19.3449 27.2207 19.4676 27.0391 19.5514 26.8388C19.6351 26.6386 19.6783 26.4237 19.6783 26.2066C19.6783 25.9895 19.6351 25.7746 19.5514 25.5744C19.4676 25.3741 19.3449 25.1925 19.1903 25.0401C19.0357 24.8878 18.8524 24.7676 18.651 24.6867C18.4496 24.6057 18.2341 24.5656 18.017 24.5687H11.7181C11.6261 24.5533 11.533 24.5458 11.4398 24.5463Z" fill="#0068b5"/>
</svg>
