<svg width="9" height="13" viewBox="0 0 9 13" fill="none" xmlns="http://www.w3.org/2000/svg">
<path d="M2.14018 0.731779C1.71591 0.378215 1.08534 0.435539 0.731779 0.859816C0.378215 1.28409 0.435539 1.91466 0.859816 2.26822L2.14018 0.731779ZM7.5 6.5L8.14018 7.26822C8.36818 7.07823 8.5 6.79678 8.5 6.5C8.5 6.20322 8.36818 5.92177 8.14018 5.73178L7.5 6.5ZM0.859816 10.7318C0.435539 11.0853 0.378215 11.7159 0.731779 12.1402C1.08534 12.5645 1.71591 12.6218 2.14018 12.2682L0.859816 10.7318ZM0.859816 2.26822L6.85982 7.26822L8.14018 5.73178L2.14018 0.731779L0.859816 2.26822ZM6.85982 5.73178L0.859816 10.7318L2.14018 12.2682L8.14018 7.26822L6.85982 5.73178Z" fill="#bc8452"/>
</svg>
