<svg width="9" height="7" viewBox="0 0 9 7" fill="none" xmlns="http://www.w3.org/2000/svg">
<path d="M2.83032 6.75C6.22656 6.75 8.08416 4.15285 8.08416 1.90061C8.08416 1.82684 8.08416 1.75341 8.07876 1.68031C8.44014 1.43904 8.75209 1.1403 9 0.798086C8.663 0.935919 8.3055 1.02631 7.93944 1.06624C8.32491 0.853239 8.6134 0.518225 8.75124 0.123544C8.38878 0.32207 7.99223 0.461982 7.57872 0.537241C7.30032 0.263997 6.93211 0.0830611 6.53107 0.0224337C6.13004 -0.0381936 5.71853 0.0248671 5.36024 0.201858C5.00194 0.378848 4.71683 0.659901 4.54903 1.00152C4.38122 1.34315 4.34008 1.72629 4.43196 2.09168C3.69783 2.05771 2.97965 1.88162 2.32403 1.57484C1.66841 1.26805 1.09002 0.837443 0.6264 0.310954C0.390273 0.686159 0.317952 1.13033 0.424162 1.55302C0.530373 1.97571 0.807128 2.34515 1.19808 2.58612C0.904227 2.57808 0.616781 2.50491 0.36 2.37279C0.36 2.37977 0.36 2.38708 0.36 2.39439C0.360117 2.78789 0.507694 3.16924 0.777702 3.47376C1.04771 3.77827 1.42352 3.98721 1.8414 4.06513C1.56955 4.13356 1.28433 4.14356 1.00764 4.09437C1.12563 4.43302 1.35535 4.72917 1.66467 4.94139C1.97398 5.15361 2.34742 5.27129 2.73276 5.27797C2.0789 5.75229 1.27118 6.00978 0.43956 6.009C0.292645 6.00874 0.145873 6.00053 0 5.98441C0.844429 6.48459 1.82697 6.74991 2.83032 6.74867" fill="#FFFFFE"/>
</svg>
