<svg width="8" height="6" viewBox="0 0 8 6" fill="none" xmlns="http://www.w3.org/2000/svg">
<path d="M7.8328 1.18312C7.7408 0.914375 7.4696 0.7025 7.1256 0.630625C6.5016 0.5 4 0.5 4 0.5C4 0.5 1.4984 0.5 0.8744 0.630625C0.5304 0.7025 0.2592 0.914375 0.1672 1.18312C-1.19209e-08 1.67062 0 3 0 3C0 3 -1.19209e-08 4.32937 0.1672 4.81687C0.2592 5.08562 0.5304 5.2975 0.8744 5.36938C1.4984 5.5 4 5.5 4 5.5C4 5.5 6.5016 5.5 7.1256 5.36938C7.47 5.2975 7.7408 5.08562 7.8328 4.81687C8 4.32937 8 3 8 3C8 3 8 1.67062 7.8328 1.18312ZM3.2 4.0825V1.9175L5.6 3L3.2 4.0825Z" fill="#FFFFFE"/>
</svg>
