<?xml version="1.0" encoding="utf-8"?>
<!-- Generator: Adobe Illustrator 19.1.0, SVG Export Plug-In . SVG Version: 6.00 Build 0)  -->
<svg version="1.1" id="Layer_1" xmlns="http://www.w3.org/2000/svg" xmlns:xlink="http://www.w3.org/1999/xlink" x="0px" y="0px"
	 viewBox="-328.1 252.6 245 65" enable-background="new -328.1 252.6 245 65" xml:space="preserve">
<path fill="#1E428A" d="M-88.8,277.5c0.5,0.7,0.7,1.6,0.7,2.5h-8.2c0-0.7,0.2-1.5,0.9-2.2c0.9-1.1,2-1.6,3.4-1.6
	C-90.7,276.2-89.6,276.7-88.8,277.5L-88.8,277.5z M-84.1,282.7v-1c0-2.7-0.6-4.7-1.8-6.3c-1.4-1.6-3.4-2.5-5.9-2.5
	c-2.2,0-3.9,0.6-5.4,1.7c-2.3,1.6-3.4,4.5-3.4,8.6c0,4.1,1,7.1,2.9,9.3c1.8,2,4.4,2.9,7.7,2.9c1.6,0,3.4-0.2,5.4-0.7v-3.2
	c-1.5,0.5-2.8,0.7-4.1,0.7c-2.7,0-4.7-1.1-6.1-3.3c-1.2-1.8-1.7-3.9-1.7-6.4H-84.1L-84.1,282.7z"/>
<path fill="#1E428A" d="M-100.7,277.5V273c-1.8,0-3.4,0.6-4.7,1.8c-0.9,0.9-1.6,1.8-2,3.1h-0.1v-4.4h-4.1v21.6h4.1v-9.2
	C-107.4,280.4-105.1,277.5-100.7,277.5L-100.7,277.5z"/>
<path fill="#1E428A" d="M-113.5,295.1v-21.6h-4.1v9.2c0,2.2-0.5,4.3-1.6,6c-1.1,1.8-2.5,2.8-4.1,2.8c-1.4,0-2.2-0.6-2.6-1.6
	c-0.2-0.7-0.4-2.2-0.4-4.7v-11.8h-4.1v15c0,1.8,0.4,3.3,1,4.5c1,1.7,2.6,2.6,4.8,2.6c3.3,0,5.5-1.7,6.8-5.2h0.1v4.7L-113.5,295.1
	L-113.5,295.1z"/>
<path fill="#1E428A" d="M-154.2,277.5c0.6,0.7,0.9,1.6,0.9,2.5h-8.2c0-0.7,0.2-1.5,0.9-2.2c0.9-1.1,2-1.6,3.4-1.6
	C-155.9,276.2-154.8,276.7-154.2,277.5L-154.2,277.5z M-162.6,274.7c-2.2,1.6-3.3,4.5-3.3,8.6c0,4.1,1,7.1,2.9,9.3
	c1.8,2,4.4,2.9,7.7,2.9c1.6,0,3.3-0.2,5.4-0.7v-3.2c-1.6,0.5-2.9,0.7-4.1,0.7c-2.7,0-4.8-1.1-6.1-3.3c-1.2-1.8-1.8-3.9-1.8-6.4h12.5
	v-1c0-2.7-0.6-4.7-2-6.3c-1.4-1.6-3.3-2.5-5.8-2.5C-159.2,273-161.1,273.6-162.6,274.7L-162.6,274.7z"/>
<path fill="#1E428A" d="M-172.8,276.2c1.6,0,3.2,0.5,5,1.4v-3.7l-2.1-0.5c-1-0.2-2-0.4-2.8-0.4c-2.3,0-4.2,0.6-5.5,1.6
	c-1.5,1.1-2.2,2.6-2.2,4.4c0,1.5,0.6,2.7,1.5,3.7c0.6,0.6,1.6,1.4,2.8,2.2l4.3,2.7c0.9,0.7,1.2,1.4,1.2,2c0,2-1.4,2.8-4.3,2.8
	c-1.7,0-3.4-0.4-5.5-1.2v3.6c2.2,0.6,4.1,0.9,5.9,0.9c2.5,0,4.4-0.5,5.8-1.6c1.5-1.1,2.2-2.7,2.2-4.9c0-1.6-0.5-2.9-1.6-4.1
	c-0.6-0.5-1.6-1.4-3.3-2.3l-1.7-1c-1.2-0.7-1.8-1.2-2.1-1.4c-0.7-0.6-1-1.2-1-1.8c0-0.6,0.4-1.2,1.1-1.7
	C-174.5,276.4-173.6,276.2-172.8,276.2L-172.8,276.2z"/>
<path fill="#1E428A" d="M-136.3,280.5h4.7c0-2.1-0.5-3.7-1.6-5c-1.2-1.6-3.3-2.5-6.1-2.5c-3.1,0-5.4,1.1-7,3.1
	c-1.5,1.8-2.2,4.3-2.2,7.5c0,3.2,0.7,5.9,2.2,8c1.8,2.7,4.7,4.1,8.3,4.1c2.3,0,4.3-0.2,6-0.9v-2.8c-1,0.4-2.1,0.5-3.4,0.5
	c-3.1,0-5.4-1.1-6.9-3.2c-1.1-1.7-1.7-3.8-1.7-6.4c0-2,0.5-3.7,1.2-4.8c0.7-1.2,1.8-1.8,3.2-1.8
	C-137.4,276.2-136.3,277.7-136.3,280.5L-136.3,280.5z"/>
<path fill="#C9CBCC" d="M-181.9,277.7c0-1.2-0.5-2.2-1.4-3.1c-0.7-0.7-1.7-1.1-2.8-1.1c-1.7,0-3.4,0.7-4.9,2c-1,0.9-1.8,2-2.3,3.1
	h-0.1v-0.9c0-0.9-0.4-1.7-1-2.6c-0.7-1.1-1.8-1.6-3.2-1.6c-1.8,0-3.4,0.7-4.9,2.1c-1,0.9-1.7,1.8-2.3,3.1l-0.1-0.1l0.9-4.5h-3.2
	l-4.2,21.1h3.3l1.8-9.3c0.4-2.2,1.1-4.2,2.1-5.9c1.5-2.5,3.1-3.7,5-3.7c0.7,0,1.2,0.2,1.7,0.9c0.4,0.5,0.6,1.1,0.6,1.8
	c0,0.2-0.1,1.2-0.4,3.1l-2.6,13.1h3.2l1.8-9.3c0.4-2.1,1.1-3.9,2-5.5c1.4-2.7,3.1-4.1,5-4.1c0.7,0,1.4,0.2,1.8,0.7
	c0.4,0.5,0.6,1,0.6,1.7c0,1-0.1,2.1-0.4,3.1l-2.6,13.4h3.3l2.8-14.6C-182,279.5-181.9,278.6-181.9,277.7L-181.9,277.7z"/>
<polygon fill="#C9CBCC" points="-234.6,264.5 -237.9,264.5 -243.8,295.1 -240.6,295.1 "/>
<polygon fill="#C9CBCC" points="-208.5,264.5 -212.6,264.5 -213.3,268.5 -209.4,268.5 "/>
<path fill="#C9CBCC" d="M-257.1,277.5c-1.8,2.5-2.7,5.5-2.7,9.2c0,5.9,3.1,8.8,9,8.8c1.2,0,2.8-0.2,4.5-0.7l0.5-2.1
	c-1.6,0.5-2.8,0.7-3.8,0.7c-2.3,0-4.1-0.9-5.2-2.5c-0.9-1.4-1.4-3.2-1.4-5.4c0-2.8,0.6-5.2,1.7-7.1c1.2-2,2.7-2.9,4.5-2.9
	c2.1,0,3.1,1.1,3.1,3.2c0,0.2,0,0.7-0.1,1.7h3.8c0.1-0.7,0.1-1.4,0.1-1.8c0-1.5-0.5-2.7-1.7-3.7c-1.1-1-2.7-1.5-4.7-1.5
	C-252.7,273.5-255.3,274.8-257.1,277.5L-257.1,277.5z"/>
<polygon fill="#C9CBCC" points="-210.7,274 -214,274 -218.1,295.1 -214.9,295.1 "/>
<path fill="#C9CBCC" d="M-226.7,275.6c1.4,0,2.5,0.7,3.2,2.2c0.5,1.1,0.7,2.2,0.7,3.7c0,2.5-0.5,4.9-1.4,7.2
	c-1.2,3.2-3.1,4.8-5.4,4.8c-2.2,0-3.3-1.8-3.3-5.6c0-2.8,0.5-5.4,1.4-7.9C-230.2,277-228.6,275.6-226.7,275.6L-226.7,275.6z
	 M-221.5,277.4c-1.1-2.6-2.9-3.9-5.5-3.9c-3.1,0-5.5,1.6-7.2,4.9c-1.5,2.7-2.2,5.9-2.2,9.6c0,2.3,0.5,4.1,1.4,5.4
	c1,1.5,2.5,2.2,4.5,2.2c2.8,0,5-1.5,6.3-4.2l0.1,0.1l-0.6,3.6h3.2l4.1-21.1h-3.3L-221.5,277.4L-221.5,277.4L-221.5,277.4z"/>
<path fill="#646569" d="M-181.9,277.7c0-1.2-0.5-2.2-1.4-3.1c-0.7-0.7-1.7-1.1-2.8-1.1c-1.7,0-3.4,0.7-4.9,2c-1,0.9-1.8,2-2.3,3.1
	h-0.1v-0.9c0-0.9-0.4-1.7-1-2.6c-0.7-1.1-1.8-1.6-3.2-1.6c-1.8,0-3.4,0.7-4.9,2.1c-1,0.9-1.7,1.8-2.3,3.1l-0.1-0.1l0.9-4.5h-3.2
	l-4.2,21.1h3.3l1.8-9.3c0.4-2.2,1.1-4.2,2.1-5.9c1.5-2.5,3.1-3.7,5-3.7c0.7,0,1.2,0.2,1.7,0.9c0.4,0.5,0.6,1.1,0.6,1.8
	c0,0.2-0.1,1.2-0.4,3.1l-2.6,13.1h3.2l1.8-9.3c0.4-2.1,1.1-3.9,2-5.5c1.4-2.7,3.1-4.1,5-4.1c0.7,0,1.4,0.2,1.8,0.7
	c0.4,0.5,0.6,1,0.6,1.7c0,1-0.1,2.1-0.4,3.1l-2.6,13.4h3.3l2.8-14.6C-182,279.5-181.9,278.6-181.9,277.7L-181.9,277.7z"/>
<polygon fill="#646569" points="-234.5,264.7 -237.8,264.7 -243.7,295.3 -240.5,295.3 "/>
<polygon fill="#646569" points="-208.5,264.5 -212.6,264.5 -213.3,268.5 -209.4,268.5 "/>
<path fill="#646569" d="M-257.1,277.5c-1.8,2.5-2.7,5.5-2.7,9.2c0,5.9,3.1,8.8,9,8.8c1.2,0,2.8-0.2,4.5-0.7l0.5-2.1
	c-1.6,0.5-2.8,0.7-3.8,0.7c-2.3,0-4.1-0.9-5.2-2.5c-0.9-1.4-1.4-3.2-1.4-5.4c0-2.8,0.6-5.2,1.7-7.1c1.2-2,2.7-2.9,4.5-2.9
	c2.1,0,3.1,1.1,3.1,3.2c0,0.2,0,0.7-0.1,1.7h3.8c0.1-0.7,0.1-1.4,0.1-1.8c0-1.5-0.5-2.7-1.7-3.7c-1.1-1-2.7-1.5-4.7-1.5
	C-252.7,273.5-255.3,274.8-257.1,277.5L-257.1,277.5z"/>
<polygon fill="#646569" points="-210.7,274 -214,274 -218.1,295.1 -214.9,295.1 "/>
<path fill="#646569" d="M-226.7,275.6c1.4,0,2.5,0.7,3.2,2.2c0.5,1.1,0.7,2.2,0.7,3.7c0,2.5-0.5,4.9-1.4,7.2
	c-1.2,3.2-3.1,4.8-5.4,4.8c-2.2,0-3.3-1.8-3.3-5.6c0-2.8,0.5-5.4,1.4-7.9C-230.2,277-228.6,275.6-226.7,275.6L-226.7,275.6z
	 M-221.5,277.4c-1.1-2.6-2.9-3.9-5.5-3.9c-3.1,0-5.5,1.6-7.2,4.9c-1.5,2.7-2.2,5.9-2.2,9.6c0,2.3,0.5,4.1,1.4,5.4
	c1,1.5,2.5,2.2,4.5,2.2c2.8,0,5-1.5,6.3-4.2l0.1,0.1l-0.6,3.6h3.2l4.1-21.1h-3.3L-221.5,277.4L-221.5,277.4L-221.5,277.4z"/>
<g>
	<defs>
		<path id="SVGID_1_" d="M-269.6,267.6c-11.9-14.3-45.8-9.6-45.8,5.5c0,5.8,6.7,10.9,16,12.6c12.6,2.3,9.8,11.9,1.9,11.6
			c-15.4-0.6-27.6-9.7-27.6-20.9C-325.1,253.5-282.2,248.3-269.6,267.6L-269.6,267.6z"/>
	</defs>
	<use xlink:href="#SVGID_1_"  overflow="visible" fill-rule="evenodd" clip-rule="evenodd" fill="#39498C"/>
	<clipPath id="SVGID_2_">
		<use xlink:href="#SVGID_1_"  overflow="visible"/>
	</clipPath>
	<g clip-path="url(#SVGID_2_)">
		<defs>
			<rect id="SVGID_3_" x="-325.1" y="248.3" width="55.4" height="49.4"/>
		</defs>
		<use xlink:href="#SVGID_3_"  overflow="visible" fill="#39498C"/>
		<clipPath id="SVGID_4_">
			<use xlink:href="#SVGID_3_"  overflow="visible"/>
		</clipPath>
		<linearGradient id="SVGID_5_" gradientUnits="userSpaceOnUse" x1="-325.0605" y1="288.2527" x2="-269.6122" y2="288.2527">
			<stop  offset="0" style="stop-color:#030055"/>
			<stop  offset="1" style="stop-color:#3A70B4"/>
		</linearGradient>
		<rect x="-325.1" y="263.6" display="none" clip-path="url(#SVGID_4_)" fill="url(#SVGID_5_)" width="55.4" height="49.4"/>
	</g>
</g>
<g>
	<defs>
		<path id="SVGID_6_" d="M-320.5,296c11.9,14.3,45.8,9.6,45.8-5.5c0-5.8-6.7-10.9-16-12.6c-12.6-2.3-9.8-11.9-1.9-11.6
			c15.4,0.6,27.6,9.7,27.6,20.9C-265.1,310.1-307.9,315.3-320.5,296L-320.5,296z"/>
	</defs>
	<clipPath id="SVGID_7_">
		<use xlink:href="#SVGID_6_"  overflow="visible"/>
	</clipPath>
	<g clip-path="url(#SVGID_7_)">
		<defs>
			<rect id="SVGID_8_" x="-320.5" y="265.9" width="60.3" height="49.4"/>
		</defs>
		<clipPath id="SVGID_9_">
			<use xlink:href="#SVGID_8_"  overflow="visible"/>
		</clipPath>
		<linearGradient id="SVGID_10_" gradientUnits="userSpaceOnUse" x1="-322.8828" y1="289.88" x2="-251.238" y2="289.88">
			<stop  offset="0" style="stop-color:#272424"/>
			<stop  offset="1" style="stop-color:#6A6A6C"/>
		</linearGradient>
		<rect x="-322.9" y="265.1" clip-path="url(#SVGID_9_)" fill="url(#SVGID_10_)" width="71.6" height="49.5"/>
	</g>
</g>
<g>
	<path fill="#274E7F" d="M-244,314.4l-1.3-4.2c-0.1-0.3-0.2-0.8-0.5-1.8h-0.1c-0.2,0.8-0.3,1.4-0.5,1.8l-1.4,4.2h-1.3l-2-7.2h1.1
		c0.5,1.8,0.8,3.2,1.1,4.1c0.2,0.9,0.4,1.6,0.4,1.9h0.1c0-0.3,0.1-0.6,0.2-1c0.1-0.4,0.2-0.7,0.3-0.9l1.3-4.1h1.2l1.3,4.1
		c0.2,0.8,0.4,1.4,0.5,1.9h0.1c0-0.2,0.1-0.4,0.1-0.7c0.1-0.3,0.5-2.1,1.4-5.3h1.1l-2,7.2C-242.7,314.4-244,314.4-244,314.4z"/>
	<path fill="#274E7F" d="M-234.2,314.4v-4.7c0-0.6-0.1-1-0.4-1.3c-0.3-0.3-0.7-0.4-1.3-0.4c-0.8,0-1.3,0.2-1.7,0.6
		c-0.3,0.4-0.5,1.1-0.5,2v3.8h-1.1v-10.3h1.1v3.1c0,0.4,0,0.7-0.1,0.9h0.1c0.2-0.3,0.5-0.6,0.9-0.8c0.4-0.2,0.9-0.3,1.4-0.3
		c0.9,0,1.5,0.2,2,0.6c0.4,0.4,0.7,1.1,0.7,2v4.7L-234.2,314.4L-234.2,314.4z"/>
	<path fill="#274E7F" d="M-227.5,314.5c-1.1,0-1.9-0.3-2.5-1c-0.6-0.7-0.9-1.6-0.9-2.7c0-1.2,0.3-2.1,0.9-2.8c0.6-0.7,1.3-1,2.3-1
		c0.9,0,1.6,0.3,2.1,0.9c0.5,0.6,0.8,1.4,0.8,2.4v0.7h-5c0,0.8,0.2,1.5,0.6,1.9c0.4,0.4,1,0.7,1.7,0.7c0.8,0,1.5-0.2,2.3-0.5v1
		c-0.4,0.2-0.8,0.3-1.1,0.4C-226.6,314.5-227,314.5-227.5,314.5z M-227.8,307.9c-0.6,0-1,0.2-1.4,0.6c-0.3,0.4-0.5,0.9-0.6,1.6h3.8
		c0-0.7-0.2-1.2-0.5-1.6S-227.2,307.9-227.8,307.9z"/>
	<path fill="#274E7F" d="M-217.8,314.4v-4.7c0-0.6-0.1-1-0.4-1.3c-0.3-0.3-0.7-0.4-1.3-0.4c-0.8,0-1.3,0.2-1.7,0.6
		c-0.4,0.4-0.5,1.1-0.5,2v3.8h-1.1v-7.2h0.9l0.2,1h0.1c0.2-0.4,0.5-0.6,0.9-0.8c0.4-0.2,0.9-0.3,1.4-0.3c0.9,0,1.5,0.2,2,0.6
		c0.4,0.4,0.7,1.1,0.7,2v4.7H-217.8z"/>
	<path fill="#274E7F" d="M-207,314.5c-0.5,0-0.9-0.1-1.3-0.3c-0.4-0.2-0.7-0.4-1-0.8h-0.1c0.1,0.4,0.1,0.8,0.1,1.2v3h-1.1v-10.5h0.9
		l0.2,1h0.1c0.3-0.4,0.6-0.7,1-0.9c0.4-0.2,0.8-0.3,1.3-0.3c1,0,1.7,0.3,2.2,1c0.5,0.7,0.8,1.6,0.8,2.8c0,1.2-0.3,2.1-0.8,2.8
		C-205.4,314.2-206.1,314.5-207,314.5z M-207.2,307.9c-0.7,0-1.3,0.2-1.6,0.6c-0.3,0.4-0.5,1.1-0.5,1.9v0.2c0,1,0.2,1.7,0.5,2.2
		c0.3,0.4,0.9,0.7,1.6,0.7c0.6,0,1.1-0.3,1.5-0.8c0.4-0.5,0.5-1.2,0.5-2.1c0-0.9-0.2-1.6-0.5-2.1
		C-206.1,308.2-206.6,307.9-207.2,307.9z"/>
	<path fill="#274E7F" d="M-198.6,307c0.3,0,0.6,0,0.9,0.1l-0.2,1c-0.3-0.1-0.6-0.1-0.8-0.1c-0.6,0-1.1,0.2-1.5,0.7
		c-0.4,0.5-0.6,1.1-0.6,1.8v3.9h-1.1v-7.2h0.9l0.1,1.3h0.1c0.3-0.5,0.6-0.8,1-1.1C-199.4,307.1-199,307-198.6,307z"/>
	<path fill="#274E7F" d="M-193,314.5c-1.1,0-1.9-0.3-2.5-1c-0.6-0.7-0.9-1.6-0.9-2.7c0-1.2,0.3-2.1,0.9-2.8c0.6-0.7,1.3-1,2.3-1
		c0.9,0,1.6,0.3,2.1,0.9c0.5,0.6,0.8,1.4,0.8,2.4v0.7h-5c0,0.8,0.2,1.5,0.6,1.9c0.4,0.4,1,0.7,1.7,0.7c0.8,0,1.5-0.2,2.3-0.5v1
		c-0.4,0.2-0.8,0.3-1.1,0.4C-192.1,314.5-192.6,314.5-193,314.5z M-193.3,307.9c-0.6,0-1,0.2-1.4,0.6c-0.3,0.4-0.5,0.9-0.6,1.6h3.8
		c0-0.7-0.2-1.2-0.5-1.6C-192.3,308.1-192.8,307.9-193.3,307.9z"/>
	<path fill="#274E7F" d="M-185.4,314.5c-1,0-1.9-0.3-2.4-1c-0.6-0.6-0.9-1.6-0.9-2.7c0-1.2,0.3-2.1,0.9-2.8s1.4-1,2.5-1
		c0.3,0,0.7,0,1,0.1c0.3,0.1,0.6,0.2,0.8,0.3l-0.3,0.9c-0.2-0.1-0.5-0.2-0.8-0.2c-0.3-0.1-0.5-0.1-0.8-0.1c-1.5,0-2.2,0.9-2.2,2.8
		c0,0.9,0.2,1.6,0.5,2c0.4,0.5,0.9,0.7,1.6,0.7c0.6,0,1.2-0.1,1.9-0.4v1C-184,314.4-184.6,314.5-185.4,314.5z"/>
	<path fill="#274E7F" d="M-181.7,305.2c0-0.3,0.1-0.4,0.2-0.6c0.1-0.1,0.3-0.2,0.5-0.2c0.2,0,0.3,0.1,0.5,0.2
		c0.1,0.1,0.2,0.3,0.2,0.5c0,0.2-0.1,0.4-0.2,0.5c-0.1,0.1-0.3,0.2-0.5,0.2c-0.2,0-0.3-0.1-0.5-0.2
		C-181.6,305.6-181.7,305.4-181.7,305.2z M-180.5,314.4h-1.1v-7.2h1.1V314.4z"/>
	<path fill="#274E7F" d="M-173.2,312.4c0,0.7-0.3,1.2-0.8,1.6c-0.5,0.4-1.2,0.5-2.1,0.5c-1,0-1.7-0.2-2.2-0.5v-1
		c0.3,0.2,0.7,0.3,1.1,0.4c0.4,0.1,0.8,0.2,1.1,0.2c0.6,0,1-0.1,1.3-0.3s0.5-0.5,0.5-0.8c0-0.3-0.1-0.5-0.4-0.7
		c-0.2-0.2-0.7-0.4-1.4-0.7c-0.7-0.3-1.2-0.5-1.4-0.7c-0.3-0.2-0.5-0.4-0.6-0.6c-0.1-0.2-0.2-0.5-0.2-0.9c0-0.6,0.2-1.1,0.7-1.4
		c0.5-0.3,1.1-0.5,2-0.5c0.8,0,1.5,0.2,2.3,0.5l-0.4,0.9c-0.7-0.3-1.4-0.4-2-0.4c-0.5,0-0.9,0.1-1.2,0.2s-0.4,0.4-0.4,0.7
		c0,0.2,0,0.4,0.1,0.5c0.1,0.1,0.3,0.3,0.5,0.4c0.2,0.1,0.6,0.3,1.3,0.5c0.9,0.3,1.4,0.6,1.7,0.9
		C-173.4,311.5-173.2,311.9-173.2,312.4z"/>
	<path fill="#274E7F" d="M-171.3,305.2c0-0.3,0.1-0.4,0.2-0.6c0.1-0.1,0.3-0.2,0.5-0.2c0.2,0,0.3,0.1,0.5,0.2
		c0.1,0.1,0.2,0.3,0.2,0.5c0,0.2-0.1,0.4-0.2,0.5c-0.1,0.1-0.3,0.2-0.5,0.2c-0.2,0-0.3-0.1-0.5-0.2
		C-171.2,305.6-171.3,305.4-171.3,305.2z M-170.1,314.4h-1.1v-7.2h1.1V314.4z"/>
	<path fill="#274E7F" d="M-161.3,310.8c0,1.2-0.3,2.1-0.9,2.8c-0.6,0.7-1.4,1-2.5,1c-0.6,0-1.2-0.2-1.7-0.5
		c-0.5-0.3-0.9-0.7-1.2-1.3c-0.3-0.6-0.4-1.2-0.4-2c0-1.2,0.3-2.1,0.9-2.8c0.6-0.7,1.4-1,2.5-1c1,0,1.8,0.3,2.4,1
		C-161.6,308.7-161.3,309.6-161.3,310.8z M-166.8,310.8c0,0.9,0.2,1.6,0.6,2.1s0.9,0.7,1.6,0.7c0.7,0,1.3-0.2,1.6-0.7
		c0.4-0.5,0.6-1.2,0.6-2.1c0-0.9-0.2-1.6-0.6-2.1c-0.4-0.5-0.9-0.7-1.6-0.7c-0.7,0-1.3,0.2-1.6,0.7
		C-166.6,309.1-166.8,309.8-166.8,310.8z"/>
	<path fill="#274E7F" d="M-154.1,314.4v-4.7c0-0.6-0.1-1-0.4-1.3c-0.3-0.3-0.7-0.4-1.3-0.4c-0.8,0-1.3,0.2-1.7,0.6
		c-0.4,0.4-0.5,1.1-0.5,2v3.8h-1.1v-7.2h0.9l0.2,1h0.1c0.2-0.4,0.5-0.6,0.9-0.8c0.4-0.2,0.9-0.3,1.4-0.3c0.9,0,1.5,0.2,2,0.6
		c0.4,0.4,0.7,1.1,0.7,2v4.7H-154.1z"/>
	<path fill="#274E7F" d="M-137.5,314.4v-4.7c0-0.6-0.1-1-0.4-1.3c-0.2-0.3-0.6-0.4-1.1-0.4c-0.7,0-1.2,0.2-1.5,0.6
		c-0.3,0.4-0.5,1-0.5,1.8v4h-1.1v-4.7c0-0.6-0.1-1-0.4-1.3c-0.2-0.3-0.6-0.4-1.2-0.4c-0.7,0-1.2,0.2-1.5,0.6c-0.3,0.4-0.5,1.1-0.5,2
		v3.8h-1.1v-7.2h0.9l0.2,1h0.1c0.2-0.4,0.5-0.6,0.9-0.8c0.4-0.2,0.8-0.3,1.3-0.3c1.1,0,1.9,0.4,2.2,1.2h0.1c0.2-0.4,0.5-0.7,0.9-0.9
		c0.4-0.2,0.9-0.3,1.4-0.3c0.8,0,1.4,0.2,1.8,0.6c0.4,0.4,0.6,1.1,0.6,2v4.7H-137.5z"/>
	<path fill="#274E7F" d="M-129.5,314.4l-0.2-1h-0.1c-0.4,0.5-0.7,0.8-1.1,0.9c-0.4,0.2-0.8,0.2-1.3,0.2c-0.7,0-1.3-0.2-1.7-0.6
		c-0.4-0.4-0.6-0.9-0.6-1.6c0-1.5,1.2-2.2,3.5-2.3l1.2,0v-0.4c0-0.6-0.1-1-0.4-1.3c-0.2-0.3-0.6-0.4-1.2-0.4c-0.6,0-1.3,0.2-2,0.6
		l-0.3-0.8c0.4-0.2,0.7-0.3,1.2-0.5c0.4-0.1,0.8-0.2,1.3-0.2c0.9,0,1.5,0.2,1.9,0.6c0.4,0.4,0.6,1,0.6,1.8v4.9L-129.5,314.4
		L-129.5,314.4z M-132,313.6c0.7,0,1.2-0.2,1.6-0.6c0.4-0.4,0.6-0.9,0.6-1.6v-0.7l-1.1,0c-0.9,0-1.5,0.2-1.9,0.4
		c-0.4,0.2-0.6,0.6-0.6,1.1c0,0.4,0.1,0.7,0.4,0.9C-132.7,313.5-132.4,313.6-132,313.6z"/>
	<path fill="#274E7F" d="M-123.8,313.6c0.2,0,0.4,0,0.6,0c0.2,0,0.3-0.1,0.4-0.1v0.8c-0.1,0.1-0.3,0.1-0.5,0.1
		c-0.2,0-0.4,0.1-0.6,0.1c-1.4,0-2.1-0.7-2.1-2.2V308h-1v-0.5l1-0.5l0.5-1.5h0.6v1.7h2.1v0.8h-2.1v4.2c0,0.4,0.1,0.8,0.3,1
		C-124.5,313.5-124.2,313.6-123.8,313.6z"/>
	<path fill="#274E7F" d="M-118.8,313.6c0.2,0,0.4,0,0.6,0c0.2,0,0.3-0.1,0.4-0.1v0.8c-0.1,0.1-0.3,0.1-0.5,0.1
		c-0.2,0-0.4,0.1-0.6,0.1c-1.4,0-2.1-0.7-2.1-2.2V308h-1v-0.5l1-0.5l0.5-1.5h0.6v1.7h2.1v0.8h-2.1v4.2c0,0.4,0.1,0.8,0.3,1
		C-119.4,313.5-119.1,313.6-118.8,313.6z"/>
	<path fill="#274E7F" d="M-113,314.5c-1.1,0-1.9-0.3-2.5-1s-0.9-1.6-0.9-2.7c0-1.2,0.3-2.1,0.9-2.8c0.6-0.7,1.3-1,2.3-1
		c0.9,0,1.6,0.3,2.1,0.9c0.5,0.6,0.8,1.4,0.8,2.4v0.7h-5c0,0.8,0.2,1.5,0.6,1.9c0.4,0.4,1,0.7,1.7,0.7c0.8,0,1.5-0.2,2.3-0.5v1
		c-0.4,0.2-0.8,0.3-1.1,0.4C-112.1,314.5-112.5,314.5-113,314.5z M-113.3,307.9c-0.6,0-1,0.2-1.4,0.6c-0.3,0.4-0.5,0.9-0.6,1.6h3.8
		c0-0.7-0.2-1.2-0.5-1.6C-112.3,308.1-112.8,307.9-113.3,307.9z"/>
	<path fill="#274E7F" d="M-104.9,307c0.3,0,0.6,0,0.9,0.1l-0.2,1c-0.3-0.1-0.6-0.1-0.8-0.1c-0.6,0-1.1,0.2-1.5,0.7
		c-0.4,0.5-0.6,1.1-0.6,1.8v3.9h-1.1v-7.2h0.9l0.1,1.3h0.1c0.3-0.5,0.6-0.8,1-1.1C-105.8,307.1-105.4,307-104.9,307z"/>
	<path fill="#274E7F" d="M-97.8,312.4c0,0.7-0.3,1.2-0.8,1.6c-0.5,0.4-1.2,0.5-2.1,0.5c-1,0-1.7-0.2-2.2-0.5v-1
		c0.3,0.2,0.7,0.3,1.1,0.4c0.4,0.1,0.8,0.2,1.1,0.2c0.6,0,1-0.1,1.3-0.3c0.3-0.2,0.5-0.5,0.5-0.8c0-0.3-0.1-0.5-0.4-0.7
		c-0.2-0.2-0.7-0.4-1.4-0.7c-0.7-0.3-1.2-0.5-1.4-0.7c-0.3-0.2-0.5-0.4-0.6-0.6c-0.1-0.2-0.2-0.5-0.2-0.9c0-0.6,0.2-1.1,0.7-1.4
		c0.5-0.3,1.1-0.5,2-0.5c0.8,0,1.5,0.2,2.3,0.5l-0.4,0.9c-0.7-0.3-1.4-0.4-2-0.4c-0.5,0-0.9,0.1-1.2,0.2c-0.3,0.2-0.4,0.4-0.4,0.7
		c0,0.2,0,0.4,0.1,0.5c0.1,0.1,0.3,0.3,0.5,0.4c0.2,0.1,0.6,0.3,1.3,0.5c0.9,0.3,1.4,0.6,1.7,0.9C-98,311.5-97.8,311.9-97.8,312.4z"
		/>
</g>
</svg>
