<svg xmlns="http://www.w3.org/2000/svg" width="600" height="126.2"><style>.st0{fill:#0d9522}</style><path id="_Path__1_" d="M478.6 34.7h-14.4v37.5h37.5v-8.7h-23.1z"/><path id="_Path_2_1_" d="M386.9 55.7c-3.1 0-4.5-1.2-4.5-2.1 0-.7.7-3.1 4.8-3.1 2.2-.2 4.2 1.5 4.4 3.7v.3h14.2c0-9.2-14.6-10.4-19.6-10.4-4.2 0-18.7 1.2-18.7 9.9-.4 7.1 5.9 7.1 12.1 8.1 1.4.4 7.8.4 9.4.7 1.1 0 2 .8 2.2 1.9 0 1.9-1.4 3-4.8 2.8-2.8 0-4.9-.9-4.9-2.8h-14.4c0 9.7 15.6 9.4 19.3 9.4 4.3-.2 20.4-.4 20.4-9.4 0-9.9-14.9-9-19.9-9z"/><path id="_Path_3_1_" d="M506.5 45.5h13.4v26.7h-13.4z"/><path id="_Path_4_1_" d="M429 36.6h-8.1c-.3 4.6-3.9 8.3-8.5 8.7h-3v6.4h5.4v13.2c0 6.4 8.5 8.3 13.7 8.3 2.1 0 9.2-1.2 12.5-1.7v-6.4c-6.8 1-12.5 1.9-12.5-2.8V51.7H441v-6.4h-12v-8.7z"/><path id="_Compound_Path__1_" d="M571 61.6h29c-.2-10.6-7.8-18.4-22.4-18.4-12.1 0-22.7 6.6-22.7 15.3 0 8.8 9.2 14.9 22.9 14.9 14.4 0 19.6-6.1 21.8-9.4h-15.4c-1.9 3.5-13 4.5-13.2-2.4zm14.1-6.4H571c.9-7.3 13-6.8 14.1 0z"/><path id="_Path_5_1_" d="M543.1 45.1c0-5.2 5.7-4.5 12.5-3.1v-6.4c-4.1-1.2-8.3-1.7-12.5-1.6-6.4 0-13.3 2.1-13.3 11.1v.4h-4.9v6.2h4.7v20.5h13.5V51.7h10.1v-6.2h-10.1v-.4z"/><path id="_Path_6_1_" d="M513.3 33.2c-4.2 0-7.1 2.6-7.1 5.5 0 2.8 3.3 4.7 7.1 4.7s6.9-1.9 6.9-4.7c0-3.3-3.3-5.5-6.9-5.5z"/><path id="_Path_7_1_" d="M304.4 34.7l-4.2 13-2.6 8-6.4-21h-14.1L271 55.9l-7.4-21.2h-16l13.6 37.5H276l8.1-22.2 8.4 22.2h14.8l13.5-37.5z"/><path id="_Path_8_1_" d="M75.8 45.3H63.3L63 72.2h14V61.1c0-8.2 9-6.6 13-6.6v-9.9c-4.7 0-10.2 1.2-13 4-.1-1.2-.5-2.3-1.2-3.3z"/><path id="_Compound_Path_2_1_" d="M113.9 44.1h-.3c-12.3 0-22.7 6.2-22.7 14.9s9 14.9 22.7 14.9c14.7 0 20.1-6.2 22-9.7h-15.4c-1.9 3.8-12.7 4.5-13.4-2.4 9.7 0 17.7 0 29-.2 0 0 0-17.5-21.9-17.5zM107 55.5c1.4-6.4 13-6.7 14.4 0H107z"/><path id="_Path_9_1_" d="M28.5 41.8c7.8 0 10.2 4.7 10.4 6.8h17.8c-1.2-11.1-15.9-15.8-28.4-15.8C17 32.8 0 39.2 0 54c0 14.2 13.2 20.4 28.5 20.4 9.5-.2 19-1.6 28.2-4.1V52.6H31.9v8.1c2.9.2 5.8.2 8.7 0l.2 2.8c-4.1 1.1-8.3 1.6-12.5 1.6-6.4 0-12.3-4-12.3-11.5-.1-6.4 4.9-11.7 11.3-11.8h1.2z"/><path id="_Compound_Path_3_1_" d="M340.6 43.6c-12.1 0-22.4 6.7-22.4 15.4s8.9 14.9 22.6 14.9c14.7 0 19.9-6.2 22-9.7h-15.6c-1.9 3.8-12.7 4.5-13.2-2.4h29c0-10.4-7.5-18.2-22.4-18.2zm-6.4 11.9c1-7.4 12.8-6.9 14.2 0h-14.2z"/><path id="_Path_10_1_" d="M225.6 53.1h18.9v8h-18.9z"/><path id="_Path_11_1_" d="M207.1 36.6h-7.8c-.3 4.7-4 8.4-8.7 8.7h-3.1v6.4h5.4v13.2c0 6.4 8.5 8.3 13.7 8.3 2.6 0 12.5-1 12.5-1.7v-6.4c-6.6 1-12 1.9-12-2.6l-.5-10.8h12.5v-6.4h-12v-8.7z"/><path id="_Compound_Path_4_1_" d="M181.7 62.5l-.3-5.9c0-7.5-4.5-9.2-5.2-9.6-11.3-5.7-24.8-3.1-34 .7l4 6.1c11.6-5.9 22.7-3.3 21.3.5-1.4 2.8-8.5 2.6-14.4 2.8-7.6 0-13.3 2.6-13.3 9.2 0 6.9 10.4 7.8 13.8 7.8 5.8.1 11.6-1 17-3 5.2 3.7 14.9 2.6 17.5 1.1v-5.6c-1.1.2-2.3.4-3.4.4-2.8 0-3.3-2.1-3-4.5zm-19.6 5.7c-2.2.7-6.2 1-6.7-1.4-.4-5.2 7.8-3.5 12.1-5.4-.1 3.2-2.3 6-5.4 6.8z"/><g id="_Group__1_"><g id="_Group_2_1_"><path id="_Path_12_1_" class="st0" d="M325.4 115.2V126h12.4v-3.7h2.5v3.7h12.8v-10.8h-6.4v8.8h-4.4v-8.6h-6.4v8.6h-4.4v-8.8z"/></g><path id="_Compound_Path_5_1_" class="st0" d="M353.1 111.1v-6.5h-64.6v6.4h5.7c-.9 4.9-5 8.6-10 8.9-5.8 0-10.5-5.8-10.5-12.9s4.7-12.9 10.5-12.9c4.7.3 8.7 3.6 9.8 8.2l5.7-2.4c-2-7-8.2-12-15.5-12.3-9.2 0-16.6 8.6-16.6 19.3s7.4 19.3 16.6 19.3c8 0 14.7-6.6 16.3-15.3l52.6.2z"/></g><path d="M68.8 97.7h3.1l8.6 20h-4.1l-1.9-4.6h-8.7l-1.8 4.6h-4l8.8-20zm4.5 12.4l-3.1-8.1-3.1 8.1h6.2zM95.1 101.9c-.4-.5-1-1-1.6-1.2-.6-.3-1.4-.5-2.1-.5-.4 0-.8.1-1.2.2s-.8.3-1.1.5c-.3.2-.6.5-.8.8-.2.4-.3.8-.3 1.3 0 .4.1.8.3 1.2.2.3.5.6.8.8l1.2.6c.5.2 1 .3 1.6.5.6.2 1.3.4 2 .7.7.3 1.3.6 1.9 1 .6.4 1.1 1 1.4 1.6.4.8.6 1.6.6 2.5 0 1-.2 1.9-.6 2.8-.4.8-.9 1.5-1.6 2s-1.5.9-2.3 1.2c-.9.3-1.9.4-2.8.4-1.3 0-2.6-.2-3.8-.7-1.2-.4-2.2-1.2-3.1-2.1l2.5-2.4c.5.7 1.2 1.2 2 1.6 1.1.6 2.4.7 3.7.4.4-.1.8-.3 1.2-.5.3-.2.6-.6.8-.9.2-.4.3-.9.3-1.4s-.1-.9-.4-1.3-.6-.7-1-.9c-.5-.3-1-.5-1.5-.7l-1.8-.6c-.6-.2-1.2-.4-1.8-.7-.6-.3-1.1-.6-1.6-1-.5-.5-.9-1-1.2-1.6-.3-.7-.5-1.6-.5-2.4 0-.9.2-1.8.6-2.6.4-.7 1-1.3 1.7-1.8s1.5-.9 2.3-1.1c.9-.2 1.8-.4 2.7-.4 1.1 0 2.1.2 3.1.5s1.9.9 2.7 1.6l-2.3 2.6zM113 101.9c-.4-.5-1-1-1.6-1.2-.6-.3-1.4-.5-2.1-.5-.4 0-.8.1-1.2.2s-.8.3-1.1.5c-.3.2-.6.5-.8.8-.2.4-.3.8-.3 1.3 0 .4.1.8.3 1.2.2.3.5.6.8.8l1.2.6c.5.2 1 .3 1.6.5s1.3.4 2 .7c.7.3 1.3.6 1.9 1 .6.4 1.1 1 1.4 1.6.4.8.6 1.6.6 2.5 0 1-.2 1.9-.6 2.8-.4.8-.9 1.5-1.6 2-.7.5-1.5.9-2.3 1.2-.9.3-1.9.4-2.8.4-1.3 0-2.6-.2-3.8-.7-1.2-.4-2.2-1.2-3.1-2.1l2.5-2.4c.5.7 1.2 1.2 2 1.6 1.1.6 2.4.7 3.7.4.4-.1.8-.3 1.2-.5.3-.2.6-.6.8-.9.2-.4.3-.9.3-1.4s-.1-.9-.4-1.3c-.3-.4-.6-.7-1-.9-.5-.3-1-.5-1.5-.7l-1.8-.6c-.6-.2-1.2-.4-1.8-.7-.6-.3-1.1-.6-1.6-1-.5-.5-.9-1-1.2-1.6-.3-.7-.5-1.6-.5-2.4 0-.9.2-1.8.6-2.6.4-.7 1-1.3 1.7-1.8s1.5-.9 2.3-1.1c.9-.2 1.8-.4 2.7-.4 1.1 0 2.1.2 3.1.5s1.9.9 2.7 1.6l-2.3 2.6zM136.7 110.3c0 1.1-.2 2.2-.6 3.3-.4.9-1 1.8-1.7 2.5s-1.6 1.2-2.5 1.6c-2.1.7-4.3.7-6.4 0-1-.3-1.8-.9-2.6-1.6-.7-.7-1.3-1.5-1.7-2.5s-.6-2.1-.6-3.3V97.6h3.6v12.5c0 .6.1 1.2.2 1.7.1.6.4 1.1.7 1.5.4.5.8.8 1.4 1.1 1.4.6 2.9.6 4.3 0 .5-.3 1-.6 1.4-1.1s.6-1 .7-1.5c.2-.6.2-1.2.2-1.7V97.6h3.6v12.7zM143 97.7h7c.9 0 1.8.1 2.7.3.8.2 1.6.5 2.4 1 .7.5 1.3 1.1 1.7 1.8.4.8.7 1.8.6 2.7.1 1.3-.4 2.6-1.2 3.5-.9 1-2.1 1.6-3.4 1.9l5.3 8.9h-4.3l-4.6-8.5h-2.6v8.5H143V97.7zm6.4 8.6c.5 0 1 0 1.5-.1s.9-.2 1.4-.4c.4-.2.7-.5 1-.9s.4-1 .4-1.5-.1-.9-.4-1.3c-.2-.3-.6-.6-.9-.8-.4-.2-.8-.4-1.3-.4-.5-.1-.9-.1-1.4-.1h-3.2v5.6l2.9-.1zM170 97.7h3.1l8.6 20h-4.1l-1.9-4.6H167l-1.8 4.6h-4l8.8-20zm4.5 12.4l-3.1-8.1-3.1 8.1h6.2zM185.8 97.7h4.7l9.3 15h.1v-15h3.6v20H199l-9.5-15.5h-.1v15.5h-3.6v-20zM224.1 102.4c-.5-.7-1.2-1.3-2.1-1.6-1.7-.7-3.6-.7-5.3.1-.8.4-1.6.9-2.2 1.6-.6.7-1.1 1.5-1.4 2.3-.3.9-.5 1.9-.5 2.9s.2 2 .5 3c.3.9.8 1.7 1.4 2.3.6.7 1.3 1.2 2.1 1.5.9.4 1.8.6 2.8.5 1 0 2-.2 2.9-.6.8-.4 1.5-1 2-1.7l2.9 2c-.9 1.1-2 2-3.3 2.6-1.4.6-2.9 1-4.5.9-1.5 0-2.9-.2-4.3-.8-2.6-1-4.6-3-5.6-5.5-.5-1.4-.8-2.8-.8-4.3s.3-3 .8-4.3c.5-1.2 1.3-2.4 2.3-3.3s2.2-1.6 3.4-2.1c1.4-.5 2.8-.7 4.3-.7.7 0 1.3.1 2 .2s1.4.3 2 .6l1.8.9c.6.4 1 .8 1.4 1.4l-2.6 2.1zM231.3 97.7h13.3v3.1h-9.7v5.1h9.2v3h-9.2v5.7h10.2v3.2h-13.8V97.7z"/><g><path d="M391.1 102.4c-.5-.7-1.2-1.3-2.1-1.6-1.7-.7-3.6-.7-5.3.1-.8.4-1.6.9-2.2 1.6s-1.1 1.5-1.4 2.3c-.3.9-.5 1.9-.5 2.9s.1 2 .5 3c.3.9.8 1.7 1.4 2.3.6.7 1.3 1.2 2.1 1.5.9.4 1.8.6 2.8.5 1 0 2-.2 2.9-.6.8-.4 1.5-1 2-1.7l2.9 2c-.9 1.1-2 2-3.3 2.6-1.4.6-2.9 1-4.5.9-1.5 0-2.9-.2-4.3-.8-2.6-1-4.6-3-5.6-5.5-.5-1.4-.8-2.8-.8-4.3s.3-3 .8-4.3c.5-1.2 1.3-2.4 2.3-3.3s2.2-1.6 3.4-2.1c1.4-.5 2.8-.7 4.3-.7.7 0 1.3.1 2 .2s1.4.3 2 .6l1.8.9c.6.4 1 .8 1.4 1.4l-2.6 2.1zM397.5 107.6c0-1.5.3-3 .8-4.3.5-1.2 1.3-2.4 2.2-3.3 1-.9 2.1-1.6 3.4-2.1 1.4-.5 2.8-.7 4.3-.7s2.9.2 4.3.7c1.3.5 2.4 1.2 3.4 2.1s1.7 2 2.2 3.3c.6 1.4.8 2.9.8 4.3 0 1.5-.3 2.9-.8 4.3-.5 1.3-1.3 2.4-2.2 3.3-1 .9-2.1 1.7-3.4 2.2-1.4.5-2.8.8-4.3.8s-2.9-.2-4.3-.8c-1.3-.5-2.4-1.2-3.4-2.2s-1.7-2.1-2.2-3.3c-.5-1.4-.8-2.8-.8-4.3zm3.9 0c0 1 .2 2 .5 3 .3.9.8 1.7 1.4 2.3.6.7 1.4 1.2 2.2 1.5.9.4 1.8.6 2.8.6s1.9-.2 2.8-.6c.8-.4 1.6-.9 2.2-1.5.6-.7 1.1-1.5 1.4-2.3.3-.9.5-1.9.5-3 0-1-.2-2-.5-2.9s-.8-1.6-1.4-2.3c-.6-.7-1.4-1.2-2.2-1.6-.9-.4-1.9-.6-2.8-.6-1 0-1.9.2-2.8.6-.8.4-1.6.9-2.2 1.6s-1.1 1.5-1.4 2.3c-.3 1-.5 1.9-.5 2.9zM425.1 97.7h5.6l5.2 14.2h.1l5.1-14.2h5.6v20h-3.5v-16.1h-.1l-6.1 16.1h-2.5l-6-16.1h-.1v16.1H425v-20h.1zM454.2 97.7h6.5c1 0 2.1.1 3.1.3.9.2 1.7.5 2.4 1s1.2 1.1 1.5 1.8c.4.8.6 1.7.5 2.7 0 1-.2 1.9-.6 2.8-.4.7-1 1.4-1.7 1.8-.8.5-1.6.8-2.5 1-1 .2-2 .3-3 .3h-2.7v8.3h-3.6l.1-20zm6.1 8.7c.6 0 1.1 0 1.7-.1.5-.1 1-.2 1.4-.5.4-.2.7-.5 1-.9s.4-1 .4-1.5c.1-1-.5-1.9-1.3-2.3-.4-.2-.9-.4-1.4-.4-.5-.1-1.1-.1-1.6-.1h-2.6v5.7l2.4.1zM478.8 97.7h3.1l8.6 20h-4.1l-1.9-4.6h-8.7l-1.8 4.6h-4l8.8-20zm4.5 12.4l-3.1-8.1-3.1 8.1h6.2zM495.3 97.7h4.7l9.3 15h.1v-15h3.6v20h-4.6l-9.5-15.5h-.1v15.5h-3.6v-20h.1zM525.4 109l-7.5-11.3h4.4l5 8.4 5.1-8.4h4.1L529 109v8.7h-3.6V109z"/></g><g><path d="M265 2.6h-5.2V0h13.4v2.6H268v14.3h-3V2.6zM277.1 0h3v6.8h7.9V0h3v16.9h-3V9.4h-7.9v7.5h-3V0zM296.9 0h11.2v2.6h-8.2v4.3h7.8v2.5h-7.8v4.8h8.6v2.7h-11.6V0z"/></g></svg>