<svg enable-background="new 0 0 172.7 32" viewBox="0 0 172.7 32" xmlns="http://www.w3.org/2000/svg" xmlns:xlink="http://www.w3.org/1999/xlink"><linearGradient id="a" gradientUnits="userSpaceOnUse" x1="56.9734" x2="-5.6932" y1="50.8974" y2="-10.4359"><stop offset="0" stop-color="#e95e26"/><stop offset=".03632563" stop-color="#ea6626"/><stop offset=".1923" stop-color="#ec8327"/><stop offset=".3582" stop-color="#ed9a27"/><stop offset=".5365" stop-color="#eeaa28"/><stop offset=".736" stop-color="#efb428"/><stop offset="1" stop-color="#efb728"/></linearGradient><g enable-background="new" fill="#424242"><path d="m70.5 10.2c2.9 0 4.6 1.7 4.6 3.9 0 1.5-1 2.8-2.2 3.2 1.3.3 2.6 1.5 2.6 3.4 0 2.4-1.8 4.2-4.6 4.2h-5.9v-14.7zm-.6 5.9c1.1 0 1.9-.6 1.9-1.6s-.6-1.6-1.9-1.6h-1.8v3.2zm.3 6.1c1.3 0 2-.7 2-1.7s-.7-1.7-2-1.7h-2.1v3.5z"/><path d="m84.1 17.7c-.4-.1-.7-.1-1-.1-1.3 0-2.4.7-2.4 2.8v4.5h-3.2v-10.3h3.1v1.4c.5-1.2 1.8-1.5 2.7-1.5.3 0 .6 0 .8.1z"/><path d="m88.5 18.9 2.4-.4c.6-.1.7-.4.7-.7 0-.6-.5-1.1-1.5-1.1-1.1 0-1.7.7-1.8 1.5l-2.7-.6c.1-1.5 1.5-3.4 4.5-3.4 3.3 0 4.6 1.9 4.6 4v5c0 .8.1 1.5.1 1.6h-2.7c0-.1-.1-.5-.1-1.2-.5.9-1.5 1.5-2.9 1.5-2.3 0-3.6-1.5-3.6-3.1 0-1.8 1.3-2.8 3-3.1zm3.2 1.9v-.5l-2 .3c-.7.1-1.2.4-1.2 1.1 0 .5.4 1.1 1.2 1.1 1.1.1 2-.4 2-2z"/><path d="m100.6 24.9h-3.2v-10.3h3.1v1.2c.6-1 1.8-1.5 2.9-1.5 2.6 0 3.8 1.8 3.8 4.1v6.5h-3.2v-5.9c0-1-.5-1.8-1.7-1.8-1 0-1.7.8-1.7 1.8z"/><path d="m120 23c0 .9.1 1.6.1 1.8h-3c0-.1-.1-.6-.1-1-.5.7-1.5 1.2-2.8 1.2-2.9 0-5.1-2.2-5.1-5.4 0-3.1 2.1-5.4 5-5.4 1.8 0 2.5.7 2.8 1.1v-5.5h3.1zm-5.4-.7c1.2 0 2.3-.9 2.3-2.6s-1.1-2.6-2.3-2.6-2.3.8-2.3 2.6c0 1.7 1.1 2.6 2.3 2.6z"/><path d="m123.1 24.9v-14.7h3.3v11.6h6.4v3.1z"/><path d="m144.9 19.7c0 3.2-2.4 5.5-5.5 5.5s-5.5-2.3-5.5-5.5 2.4-5.5 5.5-5.5c3.1.1 5.5 2.3 5.5 5.5zm-3.1 0c0-1.7-1.1-2.6-2.3-2.6s-2.3.8-2.3 2.6c0 1.7 1.1 2.6 2.3 2.6 1.1 0 2.3-.8 2.3-2.6z"/><path d="m147.2 28.9 2.3-5.4-4.3-8.9h3.5l2.5 5.5 2.3-5.5h3.3l-6.4 14.3z"/><path d="m160.6 18.9 2.4-.4c.6-.1.7-.4.7-.7 0-.6-.5-1.1-1.5-1.1-1.1 0-1.7.7-1.8 1.5l-2.7-.6c.1-1.5 1.5-3.4 4.5-3.4 3.3 0 4.6 1.9 4.6 4v5c0 .8.1 1.5.1 1.6h-2.8c0-.1-.1-.5-.1-1.2-.5.9-1.5 1.5-2.9 1.5-2.3 0-3.6-1.5-3.6-3.1 0-1.8 1.4-2.8 3.1-3.1zm3.2 1.9v-.5l-2 .3c-.7.1-1.2.4-1.2 1.1 0 .5.4 1.1 1.2 1.1 1 .1 2-.4 2-2z"/><path d="m169.5 24.9v-15h3.2v15z"/></g><path d="m45.2 11.3c-.5-6.3-5.8-11.3-12.3-11.3-5 0-9.2 2.9-11.2 7.2-1.1-.4-2.3-.6-3.5-.6-5.4 0-9.7 4.2-10 9.6-.1 0-.2 0-.3 0-4.3 0-7.9 3.5-7.9 7.9 0 4.3 3.5 7.9 7.9 7.9h37.2c5.7 0 10.3-4.6 10.3-10.3-.1-5.8-4.6-10.3-10.2-10.4zm-6.2 1-12.6 12.6-1 1c-.2.2-.6.2-.8 0l-1-1-6-5.9c-.2-.2-.2-.6 0-.8l1-1c.2-.2.6-.2.8 0l5 5c.2.2.6.2.8 0l11.9-11.7c.2-.2.6-.2.8 0l1 1c.3.2.3.6.1.8z" fill="url(#a)"/></svg>