<svg width="198" height="50" viewBox="0 0 198 50" fill="none" xmlns="http://www.w3.org/2000/svg">
<path d="M19.5857 21.7168C19.5857 21.7168 24.3559 26.8268 25.5025 35.1499C25.5025 35.1499 22.2327 31.8801 17.9296 32.97C17.9296 32.97 21.3126 32.6303 23.903 35.9001C26.4792 39.1699 25.7998 45.5397 21.3268 49.1068C21.3268 49.1068 21.8505 48.9935 24.7098 48.4132C27.5833 47.8328 32.4526 48.2433 32.4526 48.2433C32.4526 48.2433 29.6924 46.0634 29.933 38.3773C30.1595 30.6911 32.2261 27.4071 34.1229 24.9441C34.1229 24.9441 29.5084 28.3272 28.0504 32.9276C28.0363 32.9134 26.5358 26.1332 19.5857 21.7168Z" fill="url(#paint0_linear)"/>
<path d="M33.6983 11.7948C33.6983 11.7948 31.0513 16.1546 26.4651 16.2112C21.8788 16.2678 17.052 9.55832 12.1685 9.37431C7.28502 9.20445 2.41569 12.7007 2.69879 19.8773C2.98189 27.0539 7.05854 36.2972 14.2918 41.3505C14.2918 41.3505 3.39239 34.6976 0.802017 26.1339C-1.7742 17.5842 3.1376 8.31268 10.2293 6.68485C15.9762 5.36844 19.3451 10.7473 23.5633 13.2103C25.6724 14.4418 28.2345 14.6258 30.4993 13.7199C31.4618 13.3236 32.5942 12.7149 33.6983 11.7948Z" fill="url(#paint1_linear)"/>
<path d="M21.8222 7.4769C21.8222 7.4769 24.8655 10.407 29.5084 9.65677C34.1512 8.90656 35.3119 5.74999 42.4178 8.0431C49.5377 10.3362 50.8542 19.6927 47.9807 27.393C45.1072 35.0792 40.1671 39.5097 38.5676 40.543C38.5676 40.543 49.1839 34.4564 51.024 25.383C52.8642 16.3096 49.7642 9.31705 43.9607 5.74999C38.1571 2.19708 30.8106 6.5002 28.9846 6.95316C27.1586 7.42028 26.182 8.69423 21.8222 7.4769Z" fill="url(#paint2_linear)"/>
<path d="M28.8855 5.0706L31.4617 3.69756C31.4617 3.69756 20.987 -4.44158 11.2625 5.0706C11.2625 5.0706 18.609 -1.41241 28.8855 5.0706Z" fill="url(#paint3_linear)"/>
<path d="M18.8071 20.4151C18.8071 20.4151 19.9537 18.4334 18.1702 17.6266C16.3866 16.8197 12.6214 17.2868 12.6214 17.2868C12.6214 17.2868 13.2584 19.5516 14.7163 20.7973C16.1743 22.0429 18.3825 20.9105 18.3825 20.9105L19.0195 21.3776C19.0195 21.3776 17.8871 19.6932 15.3533 18.4759C15.3533 18.49 16.9953 18.9147 18.8071 20.4151Z" fill="url(#paint4_linear)"/>
<path d="M19.1752 23.9261C19.1752 23.9261 19.0478 22.4115 17.5332 22.454C16.0186 22.4965 13.952 23.8695 13.952 23.8695C13.952 23.8695 15.4382 25.2142 16.8396 25.5681C18.2409 25.922 19.1327 24.4216 19.1327 24.4216L19.7272 24.5206C19.7272 24.5206 18.425 23.7704 16.2592 23.7846C16.2592 23.7846 17.4341 23.5156 19.1752 23.9261Z" fill="url(#paint5_linear)"/>
<path d="M21.8222 27.3372C21.8222 27.3372 22.1761 28.7385 21.1286 29.2481C20.0812 29.7435 17.3209 29.8143 17.3209 29.8143C17.3209 29.8143 17.873 27.6203 18.7506 26.8134C19.6282 26.0066 21.3551 26.9833 21.3551 26.9833C21.3551 26.9833 19.5433 27.8609 19.062 28.3846C19.062 28.3846 22.2327 26.7427 22.2044 26.9833L21.8222 27.3372Z" fill="url(#paint6_linear)"/>
<path d="M16.9105 32.9552C16.9105 32.9552 15.042 33.1676 14.5183 33.3799C14.5183 33.3799 15.8488 32.7854 16.4433 32.7854C16.4433 32.7854 15.8488 31.9785 15.1269 32.0493C14.405 32.1201 13.0461 34.0027 13.0461 34.0027C13.0461 34.0027 13.6123 34.1867 14.4475 34.2858C15.2826 34.3849 16.4575 34.2433 16.5707 33.0826L16.9105 32.9552Z" fill="url(#paint7_linear)"/>
<path d="M21.3975 22.042C21.3975 22.042 22.0204 20.8388 22.6856 20.2443C22.6856 20.2443 22.0062 20.6406 21.3975 21.589C21.3975 21.589 20.6049 21.0794 20.8738 20.4141C21.1427 19.7488 23.8464 19.2676 23.8464 19.2676C23.8464 19.2676 23.7473 20.768 23.4217 21.3767C23.082 21.9995 21.6948 21.8296 21.6948 21.8296L21.3975 22.042Z" fill="url(#paint8_linear)"/>
<path d="M28.2485 28.1865C28.2485 28.1865 27.6823 26.955 27.0453 26.3321C27.0453 26.3321 27.7106 26.7568 28.2768 27.7335C28.2768 27.7335 29.0836 27.2664 28.8572 26.5869C28.6307 25.9075 25.9412 25.2988 25.9412 25.2988C25.9412 25.2988 25.9695 26.7993 26.2809 27.4362C26.5924 28.0732 27.9795 27.96 27.9795 27.96L28.2485 28.1865Z" fill="url(#paint9_linear)"/>
<path d="M32.8772 24.6185C32.8772 24.6185 32.3818 23.3587 31.7731 22.6935C31.7731 22.6935 32.4101 23.1464 32.9197 24.1656C32.9197 24.1656 33.7548 23.7409 33.5567 23.0473C33.3585 22.3537 30.7115 21.6035 30.7115 21.6035C30.7115 21.6035 30.6549 23.1039 30.9238 23.7551C31.1928 24.4062 32.5941 24.3779 32.5941 24.3779L32.8772 24.6185Z" fill="url(#paint10_linear)"/>
<path d="M34.222 28.2988C34.222 28.2988 35.5809 28.1006 35.9206 28.7517C36.2603 29.4029 35.6375 31.0449 35.6375 31.0449C35.6375 31.0449 34.1229 30.5353 33.5001 29.87C32.8773 29.2047 33.8115 28.4828 33.8115 28.4828L33.5992 28.1855C33.5992 28.1855 34.2928 28.681 35.1562 29.8841C35.1562 29.8841 34.6042 28.9216 34.222 28.2988Z" fill="url(#paint11_linear)"/>
<path d="M32.5658 32.3891C32.5658 32.3891 33.1037 31.9361 33.8822 32.1202C35.1703 32.4316 35.0146 34.6397 35.0146 34.6397C35.0146 34.6397 33.8681 34.5407 32.7357 34.1868C31.6033 33.8329 32.2827 32.6722 32.2827 32.6722L31.943 32.4316C31.943 32.4316 33.1603 32.8137 34.0238 33.5781C34.0521 33.6064 34.0804 33.6206 34.1087 33.6489C34.1087 33.663 33.0471 32.559 32.5658 32.3891Z" fill="url(#paint12_linear)"/>
<path d="M34.8448 23.7969C34.8448 23.7969 36.9822 22.3531 36.9114 22.5796C36.8406 22.7919 34.4909 24.4198 34.6607 24.4198C34.8306 24.4198 35.2269 24.2074 35.2269 24.2074C35.2269 24.2074 36.784 24.986 37.5059 23.9102C38.2278 22.8344 38.5534 21.7162 38.5534 21.7162C38.5534 21.7162 36.7132 21.6171 35.7082 21.9285C34.6891 22.2399 34.1936 22.9052 34.8448 23.7969Z" fill="url(#paint13_linear)"/>
<path d="M34.2928 26.2894C34.2928 26.2894 36.1613 26.2186 36.5577 26.1903L34.6609 26.0771C34.6609 26.0771 34.9723 25.2985 35.8357 25.3127C36.6992 25.3127 37.9165 26.5159 37.9165 26.5159C37.9165 26.5159 37.2654 26.8697 36.1047 27.167C34.944 27.4501 34.6609 26.4734 34.6609 26.4734L34.2928 26.2894Z" fill="url(#paint14_linear)"/>
<path d="M67.9999 15.7643C68.3543 15.7097 68.6542 15.5189 68.8451 15.219C69.0359 14.8919 69.145 14.4557 69.145 13.9104L69.1995 4.2596H69.1722V4.23234C69.1722 3.65983 69.0632 3.22363 68.8723 2.92374C68.6815 2.5966 68.3816 2.43302 68.0272 2.3785V2.35124C70.399 2.26946 72.3892 2.24219 73.9976 2.24219C76.3695 2.24219 78.2778 2.8147 79.7227 3.95971C81.2221 5.13199 81.9582 6.76772 81.9582 8.81239C81.9582 11.2115 81.1676 13.0108 79.5864 14.2376C78.1142 15.3826 76.2331 15.9006 73.9158 15.8461C73.3706 15.8188 71.4077 15.8188 67.9999 15.7643ZM71.0806 13.2561C71.0806 13.9377 71.2714 14.3739 71.6258 14.592C71.9802 14.8101 72.689 14.9191 73.7523 14.9191C77.7598 14.9191 79.7772 12.9563 79.7772 9.00323C79.7772 5.02294 77.7326 3.0328 73.6432 3.0328H72.1983C71.435 3.11459 71.0533 3.30542 71.0533 3.65983V13.2561H71.0806Z" fill="url(#paint15_linear)"/>
<path d="M94.4444 15.8465C94.3354 15.8738 94.1991 15.8738 94.0082 15.8738C92.945 15.8192 91.5819 15.792 89.9189 15.792C88.7193 15.792 87.0836 15.792 85.0389 15.8193V15.792C85.3933 15.7375 85.6932 15.5466 85.8841 15.2467C86.0749 14.9196 86.184 14.4834 86.184 13.9382L86.2112 4.31458H86.184V4.28731C86.184 3.71481 86.0749 3.27861 85.8841 2.97873C85.6932 2.65158 85.3933 2.48801 85.0389 2.43348V2.40622L88.9102 2.37896C89.9461 2.37896 90.9003 2.3517 91.8 2.32444H91.9363C92.5633 2.29717 93.1358 2.26991 93.6538 2.24264C94.09 2.21538 94.3354 2.24265 94.3354 2.32444V2.65158L94.3626 4.47815H94.3354C94.3081 4.28732 94.2263 4.12375 94.1173 3.98744C94.0082 3.85112 93.8174 3.71481 93.572 3.60576C93.3267 3.49671 92.9723 3.41492 92.5633 3.3604C92.1544 3.30587 91.6091 3.25135 90.9276 3.22409C90.3278 3.22409 89.51 3.19682 88.474 3.19682C88.2559 3.19682 88.0923 3.22409 88.0378 3.30588C88.0105 3.3604 87.9833 3.44219 87.9833 3.63302V7.94046C87.9833 8.10404 88.0923 8.18582 88.2831 8.18582C88.6376 8.18582 89.9734 8.18582 92.2634 8.21309C92.8359 8.21309 93.2449 8.07677 93.4902 7.83141C93.7356 7.55878 93.8992 7.2589 93.9537 6.90449H93.981C93.9537 7.44974 93.981 8.59475 94.0082 10.285H93.981C93.9264 9.9306 93.7356 9.63072 93.4357 9.43989C93.1086 9.24905 92.6724 9.14 92.1271 9.14C91.2547 9.08548 89.9461 9.05821 88.2014 9.08547C88.0651 9.08547 88.0105 9.14 88.0105 9.22178V13.7201C88.0105 14.3471 88.3922 14.756 89.1283 14.8923C89.3191 14.9196 89.9461 14.9469 91.0366 14.9469C91.5546 14.9469 91.9908 14.8923 92.3725 14.8105C93.2176 14.5652 93.8446 14.3198 94.2263 14.0199C94.6353 13.7201 94.8806 13.3929 94.9897 13.0385L95.0169 13.0658L94.608 15.792L94.5807 15.9283L94.4444 15.8465Z" fill="url(#paint16_linear)"/>
<path d="M112.547 2.35328C112.192 2.4078 111.892 2.59864 111.701 2.89852C111.511 3.22567 111.402 3.66186 111.402 4.20711L111.456 11.7042C111.456 13.2582 111.483 14.5122 111.511 15.4664C111.511 15.7118 111.456 15.9026 111.374 15.9844H111.183C109.902 14.6758 106.331 11.2953 100.497 5.84284L100.442 12.2767V13.8852C100.442 14.4577 100.551 14.8939 100.742 15.1938C100.933 15.5209 101.233 15.6845 101.587 15.739V15.7663H98.0976V15.739C98.452 15.6845 98.7519 15.4937 98.9427 15.1938C99.1336 14.8666 99.2426 14.4305 99.2426 13.8852V12.0314L99.2971 4.28889C99.2971 3.38924 99.2699 2.70768 99.2426 2.27148H99.2971L109.875 11.8951C109.984 12.0314 110.066 12.0859 110.12 12.0859C110.175 12.0859 110.202 12.0041 110.202 11.8133L110.175 4.23437C110.175 3.66186 110.066 3.22566 109.875 2.92578C109.684 2.59863 109.384 2.43506 109.03 2.38053V2.35328H112.547Z" fill="url(#paint17_linear)"/>
<path d="M128.631 2.29883C128.604 3.60742 128.604 4.72517 128.577 5.65208H128.522C127.895 4.6979 127.35 4.09814 126.914 3.77099C126.368 3.38932 125.414 3.17122 124.078 3.17122H123.288C123.042 3.19849 122.906 3.253 122.879 3.33479C122.852 3.38932 122.824 3.44384 122.824 3.49837L122.797 13.858C122.797 14.2397 122.906 14.5941 123.124 14.8395C123.261 15.0576 123.451 15.2211 123.642 15.3847C123.86 15.521 124.106 15.6301 124.378 15.6846C124.406 15.7119 124.406 15.7391 124.406 15.7391C124.351 15.7936 124.187 15.7936 123.888 15.7936C122.088 15.7119 120.671 15.7119 119.689 15.7936C119.471 15.8209 119.335 15.7664 119.28 15.7119C119.771 15.6573 120.153 15.4938 120.48 15.1939C120.807 14.894 120.998 14.5396 121.025 14.1306L120.998 3.49837C120.998 3.36205 120.916 3.25301 120.78 3.17122H119.662C118.326 3.17122 117.372 3.36205 116.827 3.77099C116.39 4.07087 115.845 4.6979 115.218 5.65208H115.164C115.136 4.72517 115.136 3.60742 115.109 2.29883L120.916 2.32609L128.631 2.29883Z" fill="url(#paint18_linear)"/>
<path d="M136.074 2.16195C135.692 2.18921 135.365 2.29826 135.12 2.51636C134.874 2.70719 134.629 2.97982 134.438 3.2797V13.8847C134.438 14.2664 134.547 14.6208 134.765 14.8662C134.902 15.0843 135.093 15.2478 135.283 15.4114C135.502 15.5477 135.747 15.6568 136.019 15.7113C136.047 15.7386 136.047 15.7658 136.047 15.7658C135.992 15.8203 135.801 15.8203 135.529 15.8203C133.702 15.7386 132.312 15.7386 131.33 15.8203C131.112 15.8476 130.976 15.7931 130.921 15.7386C131.412 15.684 131.794 15.5205 132.121 15.2206C132.448 14.9207 132.639 14.5663 132.666 14.1573V3.934C132.666 3.66137 132.612 3.41601 132.503 3.19791C132.394 2.92529 132.23 2.67993 132.039 2.46184C131.848 2.271 131.63 2.16195 131.412 2.16195C131.521 2.13469 132.312 2.10742 133.784 2.10742C135.256 2.10742 136.019 2.10743 136.074 2.16195Z" fill="url(#paint19_linear)"/>
<path d="M146.788 10.2038C147.415 10.8581 147.742 11.567 147.769 12.3576C147.796 12.6029 147.769 12.8755 147.715 13.23C147.66 13.5844 147.524 13.8843 147.333 14.1841C147.142 14.484 146.897 14.7839 146.624 15.0565C146.352 15.3291 146.133 15.52 145.915 15.5745C145.043 16.038 143.925 16.2015 142.589 16.0925C140.926 15.9562 139.836 15.629 139.345 15.1111V12.4121C139.372 12.4394 139.4 12.4666 139.427 12.5211C139.945 13.4481 140.49 14.1023 141.063 14.5113C141.635 14.9202 142.317 15.1656 143.053 15.2201C144.47 15.3564 145.397 15.0293 145.806 14.2387C145.806 14.1841 145.861 14.1023 145.915 13.9933C145.997 13.7752 146.052 13.5026 146.052 13.2027C146.079 12.6029 145.888 12.0849 145.506 11.6215C145.125 11.1853 144.307 10.5583 143.08 9.76765C141.526 8.75894 140.517 7.9956 139.999 7.45035C139.427 6.79606 139.154 6.00546 139.209 5.07854C139.263 4.12436 139.7 3.33376 140.545 2.76125C141.39 2.16148 142.426 1.91612 143.68 2.02516C144.552 2.10695 145.343 2.29779 146.052 2.57041C146.706 2.84303 147.006 3.08839 146.951 3.27923C146.979 3.41554 146.979 4.20614 147.006 5.65104C147.088 5.78735 146.951 5.59652 146.597 5.05128C146.243 4.50603 145.806 4.01531 145.288 3.60637C144.798 3.2247 144.171 3.0066 143.353 2.95208C142.644 2.89756 142.044 3.00661 141.608 3.30649C141.172 3.60638 140.926 4.06984 140.872 4.66961C140.845 5.24212 141.035 5.76009 141.417 6.22355C141.772 6.63249 142.48 7.17774 143.516 7.80477C145.125 8.78621 146.215 9.57681 146.788 10.2038Z" fill="url(#paint20_linear)"/>
<path d="M164.372 2.29883C164.345 3.60742 164.345 4.72517 164.318 5.65208H164.236C163.609 4.6979 163.064 4.09814 162.627 3.77099C162.082 3.38932 161.128 3.17122 159.792 3.17122H159.001C158.756 3.19849 158.62 3.253 158.592 3.33479C158.565 3.38932 158.538 3.44384 158.538 3.49837L158.511 13.858C158.511 14.2397 158.62 14.5941 158.838 14.8395C158.974 15.0576 159.165 15.2211 159.356 15.3847C159.574 15.521 159.819 15.6301 160.092 15.6846C160.119 15.7119 160.119 15.7391 160.119 15.7391C160.065 15.7936 159.874 15.7936 159.601 15.7936C157.802 15.7119 156.384 15.7119 155.403 15.7936C155.185 15.8209 155.048 15.7664 154.994 15.7119C155.485 15.6573 155.866 15.4938 156.193 15.1939C156.521 14.894 156.711 14.5396 156.739 14.1306L156.711 3.49837C156.711 3.36205 156.63 3.25301 156.493 3.17122H155.376C154.04 3.17122 153.086 3.36205 152.54 3.77099C152.104 4.07087 151.559 4.6979 150.932 5.65208H150.877C150.85 4.72517 150.85 3.60742 150.823 2.29883L156.63 2.32609L164.372 2.29883Z" fill="url(#paint21_linear)"/>
<path d="M171.133 15.819L169.279 15.7918H168.816L166.989 15.819V15.7918C167.644 15.71 168.025 15.2193 168.134 14.3196V14.2378C168.162 14.156 168.162 14.0743 168.162 13.9107L168.189 4.2871H168.162V4.25984C168.162 3.68733 168.053 3.25113 167.862 2.95125C167.671 2.6241 167.371 2.46053 167.017 2.406V2.37874L172.278 2.32422C173.423 2.37874 174.35 2.59684 175.032 3.03304C175.85 3.57828 176.286 4.36888 176.286 5.40485C176.286 6.79523 175.413 7.99477 173.669 8.97621C173.478 9.03073 173.341 9.11252 173.26 9.1943C176.013 13.1746 178.658 15.3283 181.193 15.6555L181.902 15.7918L178.521 15.819C177.131 15.8463 175.931 15.2465 174.923 14.0197C173.478 12.1659 172.305 10.6665 171.351 9.54872C170.724 9.54872 170.261 9.57598 169.906 9.65776L169.961 13.8834C169.961 14.4559 170.07 14.8921 170.261 15.192C170.479 15.5464 170.779 15.7373 171.133 15.819ZM174.159 5.59569C174.159 4.69604 173.941 4.04174 173.45 3.66007C172.987 3.25113 172.278 3.06029 171.269 3.06029C170.479 3.06029 170.043 3.16935 169.988 3.41471C169.961 3.46923 169.961 3.55102 169.961 3.6328L169.906 8.78537H170.752C171.924 8.78537 172.796 8.48549 173.341 7.85845C173.887 7.23142 174.159 6.46808 174.159 5.59569Z" fill="url(#paint22_linear)"/>
<path d="M192.207 15.7649L190.38 15.7376H190.026C189.453 15.7376 188.799 15.7376 188.063 15.7649V15.7376C188.417 15.6831 188.717 15.4922 188.908 15.1924C189.099 14.8652 189.208 14.429 189.208 13.8838L189.181 10.6668C188.254 8.84025 187.191 7.17725 185.964 5.70509C184.737 4.23293 183.946 3.30602 183.565 2.89708C183.183 2.51541 182.747 2.29731 182.256 2.27004C182.338 2.18826 182.501 2.18826 182.801 2.21553C183.892 2.21553 184.846 2.21552 185.664 2.24278L186.754 3.98757C186.863 4.15115 187 4.34198 187.136 4.50555L190.162 9.00383C190.244 9.14014 190.298 9.19466 190.353 9.19466C190.408 9.19466 190.489 9.14014 190.571 9.00383C190.871 8.54037 191.389 7.80428 192.098 6.76832C192.834 5.73235 193.924 4.23293 195.397 2.29731L195.451 2.24278H197.278V2.29731C197.169 2.29731 197.06 2.32457 196.95 2.40636C196.841 2.48814 196.732 2.54267 196.623 2.62446C196.16 3.06066 195.642 3.66042 195.042 4.45103C193.843 6.00497 193.079 6.98642 192.779 7.39535C192.098 8.34953 191.498 9.24919 190.953 10.0943L191.007 13.8565C191.007 14.429 191.116 14.8652 191.307 15.1651C191.553 15.5195 191.825 15.7103 192.207 15.7649Z" fill="url(#paint23_linear)"/>
<path d="M130.867 25.0909C130.867 26.6448 130.294 27.9807 129.149 29.0439C128.004 30.1071 126.641 30.6524 125.06 30.6524C123.397 30.6524 122.007 30.1617 120.889 29.153C119.744 28.117 119.171 26.7811 119.171 25.1454C119.171 23.5642 119.744 22.2283 120.889 21.1379C122.034 20.0746 123.397 19.5566 125.033 19.5566C126.696 19.5566 128.086 20.0746 129.177 21.1106C130.322 22.1466 130.867 23.4824 130.867 25.0909ZM129.231 25.3635C129.231 23.7823 128.795 22.5555 127.95 21.6286C127.132 20.7562 126.041 20.32 124.678 20.32C123.56 20.32 122.634 20.7289 121.925 21.5741C121.189 22.3919 120.834 23.4824 120.834 24.8183C120.834 26.3995 121.243 27.6535 122.088 28.5805C122.906 29.4528 124.024 29.9163 125.414 29.9163C126.532 29.9163 127.459 29.5074 128.168 28.6622C128.877 27.8171 129.231 26.7266 129.231 25.3635Z" fill="url(#paint24_linear)"/>
<path d="M144.716 19.8573C144.416 19.9118 144.198 20.0481 144.034 20.2935C143.871 20.5388 143.789 20.8932 143.789 21.3294L143.816 27.2181C143.816 28.4449 143.843 29.4263 143.871 30.1896C143.871 30.3805 143.843 30.5168 143.762 30.5986H143.625C142.617 29.5626 139.809 26.9182 135.201 22.6107L135.147 27.6815V28.9356C135.147 29.3718 135.229 29.7262 135.392 29.9716C135.556 30.2169 135.774 30.3805 136.074 30.4078V30.435H133.32V30.4078C133.62 30.3532 133.838 30.2169 134.002 29.9716C134.165 29.7262 134.247 29.3718 134.247 28.9356V27.4634L134.302 21.3839C134.302 20.6751 134.302 20.1299 134.274 19.8027H134.329L142.644 27.3816C142.726 27.4907 142.78 27.518 142.835 27.518C142.889 27.518 142.889 27.4362 142.889 27.2999L142.862 21.3294C142.862 20.8932 142.78 20.5388 142.617 20.2935C142.453 20.0481 142.235 19.9118 141.935 19.8573V19.83L144.716 19.8573Z" fill="url(#paint25_linear)"/>
<path d="M87.2744 48.2584C87.6288 48.2039 87.9286 48.013 88.1195 47.7132C88.3103 47.386 88.4194 46.9498 88.4194 46.4046L88.4739 36.7537H88.4466V36.7265C88.4466 36.154 88.3376 35.7178 88.1467 35.4179C87.9559 35.0907 87.656 34.9272 87.3016 34.8726V34.8454C89.6734 34.7636 91.6636 34.7363 93.2721 34.7363C95.6439 34.7363 97.5522 35.3088 98.9971 36.4538C100.497 37.6261 101.233 39.2619 101.233 41.3065C101.233 43.7056 100.442 45.5049 98.8608 46.7317C97.3887 47.8767 95.5076 48.3947 93.1903 48.3402C92.645 48.3129 90.6549 48.2857 87.2744 48.2584ZM90.355 45.7503C90.355 46.4318 90.5458 46.868 90.9002 47.0861C91.2546 47.3042 91.9635 47.4133 93.0267 47.4133C97.0342 47.4133 99.0517 45.4504 99.0517 41.5246C99.0517 37.5443 97.007 35.5542 92.9176 35.5542H91.4727C90.7094 35.636 90.3277 35.8268 90.3277 36.1812V45.7503H90.355Z" fill="url(#paint26_linear)"/>
<path d="M115.409 35.3381C115.218 35.0109 114.918 34.8473 114.564 34.7928V34.7655H118.054V34.7928C117.699 34.8473 117.399 35.0382 117.208 35.3381C117.018 35.6652 116.909 36.1014 116.909 36.6466L116.936 42.6443C117.045 44.5254 116.609 45.9703 115.627 47.0063C114.618 48.0695 113.146 48.5875 111.238 48.5875C107.203 48.5875 105.158 46.6791 105.158 42.8624L105.186 36.6466H105.158V36.6194C105.158 36.0469 105.049 35.6107 104.859 35.3108C104.668 34.9836 104.368 34.8201 104.013 34.7655V34.7383H108.212V34.7655C107.857 34.8201 107.558 35.0382 107.367 35.3926C107.176 35.747 107.04 36.3468 107.012 37.1646V42.508C107.012 44.2528 107.367 45.5614 108.103 46.3793C108.839 47.1971 109.984 47.6061 111.62 47.6061C114.4 47.6061 115.763 45.9976 115.763 42.8079L115.736 36.6466C115.709 36.0741 115.6 35.6379 115.409 35.3381Z" fill="url(#paint27_linear)"/>
<path d="M135.992 34.8473C135.638 34.9019 135.338 35.0927 135.147 35.3926C134.956 35.7197 134.847 36.1559 134.847 36.7012L134.902 44.171C134.902 45.725 134.929 46.979 134.956 47.9332C134.956 48.1786 134.902 48.3694 134.82 48.4512H134.629C133.348 47.1426 129.776 43.7621 123.942 38.3096L123.888 44.7435V46.352C123.888 46.9245 123.997 47.3607 124.188 47.6606C124.378 47.9877 124.678 48.1513 125.033 48.2058V48.2331H121.543V48.2058C121.898 48.1513 122.197 47.9605 122.388 47.6606C122.579 47.3335 122.688 46.8972 122.688 46.352V44.4982L122.743 36.7557C122.743 35.856 122.715 35.1745 122.688 34.7383H122.743L133.32 44.3619C133.429 44.4982 133.511 44.5527 133.566 44.5527C133.62 44.5527 133.648 44.4709 133.648 44.2801L133.62 36.7012C133.62 36.1287 133.511 35.6925 133.32 35.3926C133.13 35.0654 132.83 34.9019 132.475 34.8473V34.8201L135.992 34.8473Z" fill="url(#paint28_linear)"/>
<path d="M139.373 48.2604C139.727 48.2058 140.027 48.015 140.218 47.7151C140.409 47.388 140.518 46.9518 140.518 46.4065L140.572 36.7557H140.545V36.7284C140.545 36.1559 140.436 35.7197 140.245 35.4198C140.054 35.0927 139.754 34.9291 139.4 34.8746V34.8473C141.772 34.7655 143.762 34.7383 145.37 34.7383C147.742 34.7383 149.651 35.3108 151.095 36.4558C152.595 37.6281 153.331 39.2638 153.331 41.3085C153.331 43.7076 152.54 45.5069 150.959 46.7337C149.487 47.8787 147.606 48.3967 145.289 48.3422C144.743 48.3149 142.78 48.2876 139.373 48.2604ZM142.453 45.7522C142.453 46.4338 142.644 46.87 142.999 47.0881C143.353 47.3062 144.062 47.4152 145.125 47.4152C149.133 47.4152 151.15 45.4524 151.15 41.5266C151.15 37.5463 149.105 35.5561 145.016 35.5561H143.571C142.808 35.6379 142.426 35.8288 142.426 36.1832V45.7522H142.453Z" fill="url(#paint29_linear)"/>
<path d="M155.948 48.2882H153.385L153.358 48.2609C153.685 48.2064 153.931 48.0428 154.121 47.7975C154.312 47.5249 154.503 47.2795 154.721 47.0069C154.939 46.7615 155.403 45.8073 156.166 44.1716C156.929 42.5358 157.502 41.2545 157.884 40.3549C158.92 37.8467 159.792 35.584 160.528 33.6211C162.409 38.0921 164.263 42.3723 166.117 46.4344C166.335 47.0069 166.608 47.4431 166.907 47.7429C167.235 48.0428 167.589 48.2337 167.971 48.2882V48.3154L164.699 48.3427C164.099 46.7615 163.609 45.5347 163.254 44.6623H157.257L155.948 48.2882ZM162.845 43.6263C162.791 43.5173 161.946 41.4181 160.255 37.3288L157.584 43.7899H162.927L162.845 43.6263Z" fill="url(#paint30_linear)"/>
<path d="M175.577 42.6999C176.204 43.3542 176.531 44.063 176.558 44.8536C176.586 45.099 176.558 45.3716 176.504 45.726C176.449 46.0805 176.313 46.3803 176.122 46.6802C175.931 46.9801 175.686 47.28 175.413 47.5526C175.141 47.8252 174.923 48.0161 174.704 48.0706C173.832 48.5341 172.714 48.6976 171.378 48.5886C169.715 48.4523 168.625 48.1251 168.134 47.6071V44.9082C168.161 44.9354 168.189 44.9627 168.216 45.0172C168.734 45.9441 169.279 46.5984 169.852 47.0074C170.424 47.4163 171.106 47.6617 171.842 47.7162C173.26 47.8525 174.186 47.5254 174.595 46.7347C174.623 46.6802 174.65 46.5984 174.704 46.4894C174.786 46.2713 174.841 45.9987 174.841 45.6988C174.868 45.099 174.677 44.581 174.296 44.1176C173.914 43.6814 173.096 43.0543 171.869 42.2637C170.315 41.255 169.307 40.4917 168.789 39.9464C168.216 39.2921 167.943 38.5015 167.998 37.5746C168.052 36.6204 168.489 35.8298 169.334 35.2573C170.179 34.6576 171.215 34.4122 172.469 34.5213C173.341 34.603 174.132 34.7939 174.841 35.0665C175.495 35.3391 175.795 35.5845 175.74 35.7753C175.74 35.9116 175.768 36.7022 175.795 38.1471C175.877 38.2834 175.74 38.0926 175.386 37.5474C175.032 37.0021 174.595 36.5114 174.077 36.1025C173.587 35.7208 172.96 35.5027 172.142 35.4482C171.433 35.3936 170.833 35.5027 170.397 35.8026C169.961 36.1025 169.715 36.5659 169.661 37.1657C169.634 37.7382 169.824 38.2562 170.206 38.7196C170.561 39.1286 171.269 39.6738 172.305 40.3009C173.914 41.2823 175.004 42.0729 175.577 42.6999Z" fill="url(#paint31_linear)"/>
<path d="M114.673 24.627H67.9999V25.5811H114.673V24.627Z" fill="url(#paint32_linear)"/>
<path d="M195.669 24.627H148.996V25.5811H195.669V24.627Z" fill="url(#paint33_linear)"/>
<defs>
<linearGradient id="paint0_linear" x1="20.1604" y1="21.4392" x2="33.0101" y2="47.9623" gradientUnits="userSpaceOnUse">
<stop stop-color="#6E4A4A"/>
<stop offset="0.4975" stop-color="#CFBEA4"/>
<stop offset="1" stop-color="#483436"/>
</linearGradient>
<linearGradient id="paint1_linear" x1="22.5877" y1="5.37236" x2="3.95624" y2="33.8967" gradientUnits="userSpaceOnUse">
<stop stop-color="#6E4A4A"/>
<stop offset="0.4975" stop-color="#CFBEA4"/>
<stop offset="1" stop-color="#483436"/>
</linearGradient>
<linearGradient id="paint2_linear" x1="21.8232" y1="22.4544" x2="51.5682" y2="22.4544" gradientUnits="userSpaceOnUse">
<stop stop-color="#6E4A4A"/>
<stop offset="0.4975" stop-color="#CFBEA4"/>
<stop offset="1" stop-color="#483436"/>
</linearGradient>
<linearGradient id="paint3_linear" x1="11.2614" y1="2.76411" x2="31.4663" y2="2.76411" gradientUnits="userSpaceOnUse">
<stop stop-color="#6E4A4A"/>
<stop offset="0.4975" stop-color="#CFBEA4"/>
<stop offset="1" stop-color="#483436"/>
</linearGradient>
<linearGradient id="paint4_linear" x1="19.2442" y1="17.6275" x2="13.6016" y2="20.4488" gradientUnits="userSpaceOnUse">
<stop stop-color="#6E4A4A"/>
<stop offset="0.4975" stop-color="#CFBEA4"/>
<stop offset="1" stop-color="#483436"/>
</linearGradient>
<linearGradient id="paint5_linear" x1="13.9474" y1="24.0423" x2="19.7264" y2="24.0423" gradientUnits="userSpaceOnUse">
<stop stop-color="#6E4A4A"/>
<stop offset="0.4975" stop-color="#CFBEA4"/>
<stop offset="1" stop-color="#483436"/>
</linearGradient>
<linearGradient id="paint6_linear" x1="17.3095" y1="28.1495" x2="22.1971" y2="28.1495" gradientUnits="userSpaceOnUse">
<stop stop-color="#6E4A4A"/>
<stop offset="0.4975" stop-color="#CFBEA4"/>
<stop offset="1" stop-color="#483436"/>
</linearGradient>
<linearGradient id="paint7_linear" x1="13.0659" y1="33.1826" x2="16.9109" y2="33.1826" gradientUnits="userSpaceOnUse">
<stop stop-color="#6E4A4A"/>
<stop offset="0.4975" stop-color="#CFBEA4"/>
<stop offset="1" stop-color="#483436"/>
</linearGradient>
<linearGradient id="paint8_linear" x1="20.8198" y1="20.6584" x2="23.8441" y2="20.6584" gradientUnits="userSpaceOnUse">
<stop stop-color="#6E4A4A"/>
<stop offset="0.4975" stop-color="#CFBEA4"/>
<stop offset="1" stop-color="#483436"/>
</linearGradient>
<linearGradient id="paint9_linear" x1="25.9344" y1="26.7472" x2="28.8913" y2="26.7472" gradientUnits="userSpaceOnUse">
<stop stop-color="#6E4A4A"/>
<stop offset="0.4975" stop-color="#CFBEA4"/>
<stop offset="1" stop-color="#483436"/>
</linearGradient>
<linearGradient id="paint10_linear" x1="30.7242" y1="23.1064" x2="33.5969" y2="23.1064" gradientUnits="userSpaceOnUse">
<stop stop-color="#6E4A4A"/>
<stop offset="0.4975" stop-color="#CFBEA4"/>
<stop offset="1" stop-color="#483436"/>
</linearGradient>
<linearGradient id="paint11_linear" x1="33.2839" y1="29.6223" x2="36.0167" y2="29.6223" gradientUnits="userSpaceOnUse">
<stop stop-color="#6E4A4A"/>
<stop offset="0.4975" stop-color="#CFBEA4"/>
<stop offset="1" stop-color="#483436"/>
</linearGradient>
<linearGradient id="paint12_linear" x1="31.9408" y1="33.3672" x2="35.0142" y2="33.3672" gradientUnits="userSpaceOnUse">
<stop stop-color="#6E4A4A"/>
<stop offset="0.4975" stop-color="#CFBEA4"/>
<stop offset="1" stop-color="#483436"/>
</linearGradient>
<linearGradient id="paint13_linear" x1="34.5501" y1="23.0896" x2="38.5525" y2="23.0896" gradientUnits="userSpaceOnUse">
<stop stop-color="#6E4A4A"/>
<stop offset="0.4975" stop-color="#CFBEA4"/>
<stop offset="1" stop-color="#483436"/>
</linearGradient>
<linearGradient id="paint14_linear" x1="34.2887" y1="26.2535" x2="37.9058" y2="26.2535" gradientUnits="userSpaceOnUse">
<stop stop-color="#6E4A4A"/>
<stop offset="0.4975" stop-color="#CFBEA4"/>
<stop offset="1" stop-color="#483436"/>
</linearGradient>
<linearGradient id="paint15_linear" x1="67.9999" y1="9.02256" x2="81.9335" y2="9.02256" gradientUnits="userSpaceOnUse">
<stop offset="1" stop-color="#483436"/>
</linearGradient>
<linearGradient id="paint16_linear" x1="85.0528" y1="9.03577" x2="95.0655" y2="9.03577" gradientUnits="userSpaceOnUse">
<stop offset="1" stop-color="#483436"/>
</linearGradient>
<linearGradient id="paint17_linear" x1="98.0796" y1="9.14804" x2="112.54" y2="9.14804" gradientUnits="userSpaceOnUse">
<stop offset="1" stop-color="#483436"/>
</linearGradient>
<linearGradient id="paint18_linear" x1="115.112" y1="9.05589" x2="128.645" y2="9.05589" gradientUnits="userSpaceOnUse">
<stop offset="1" stop-color="#483436"/>
</linearGradient>
<linearGradient id="paint19_linear" x1="130.9" y1="8.96505" x2="136.064" y2="8.96505" gradientUnits="userSpaceOnUse">
<stop offset="1" stop-color="#483436"/>
</linearGradient>
<linearGradient id="paint20_linear" x1="139.261" y1="9.08991" x2="147.797" y2="9.08991" gradientUnits="userSpaceOnUse">
<stop offset="1" stop-color="#483436"/>
</linearGradient>
<linearGradient id="paint21_linear" x1="150.841" y1="9.05589" x2="164.373" y2="9.05589" gradientUnits="userSpaceOnUse">
<stop offset="1" stop-color="#483436"/>
</linearGradient>
<linearGradient id="paint22_linear" x1="166.987" y1="9.08324" x2="181.891" y2="9.08324" gradientUnits="userSpaceOnUse">
<stop offset="1" stop-color="#483436"/>
</linearGradient>
<linearGradient id="paint23_linear" x1="182.249" y1="8.99753" x2="197.278" y2="8.99753" gradientUnits="userSpaceOnUse">
<stop offset="1" stop-color="#483436"/>
</linearGradient>
<linearGradient id="paint24_linear" x1="119.177" y1="25.1084" x2="130.874" y2="25.1084" gradientUnits="userSpaceOnUse">
<stop offset="1" stop-color="#483436"/>
</linearGradient>
<linearGradient id="paint25_linear" x1="133.328" y1="25.2001" x2="144.709" y2="25.2001" gradientUnits="userSpaceOnUse">
<stop offset="1" stop-color="#483436"/>
</linearGradient>
<linearGradient id="paint26_linear" x1="87.2664" y1="41.5066" x2="101.2" y2="41.5066" gradientUnits="userSpaceOnUse">
<stop offset="1" stop-color="#483436"/>
</linearGradient>
<linearGradient id="paint27_linear" x1="103.982" y1="41.6529" x2="118.042" y2="41.6529" gradientUnits="userSpaceOnUse">
<stop offset="1" stop-color="#483436"/>
</linearGradient>
<linearGradient id="paint28_linear" x1="121.541" y1="41.632" x2="136.001" y2="41.632" gradientUnits="userSpaceOnUse">
<stop offset="1" stop-color="#483436"/>
</linearGradient>
<linearGradient id="paint29_linear" x1="139.374" y1="41.5086" x2="153.307" y2="41.5086" gradientUnits="userSpaceOnUse">
<stop offset="1" stop-color="#483436"/>
</linearGradient>
<linearGradient id="paint30_linear" x1="153.37" y1="40.9474" x2="167.978" y2="40.9474" gradientUnits="userSpaceOnUse">
<stop offset="1" stop-color="#483436"/>
</linearGradient>
<linearGradient id="paint31_linear" x1="168.055" y1="41.5757" x2="176.591" y2="41.5757" gradientUnits="userSpaceOnUse">
<stop offset="1" stop-color="#483436"/>
</linearGradient>
<linearGradient id="paint32_linear" x1="67.9999" y1="25.1078" x2="114.674" y2="25.1078" gradientUnits="userSpaceOnUse">
<stop offset="1" stop-color="#483436"/>
</linearGradient>
<linearGradient id="paint33_linear" x1="148.986" y1="25.1078" x2="195.66" y2="25.1078" gradientUnits="userSpaceOnUse">
<stop offset="1" stop-color="#483436"/>
</linearGradient>
</defs>
</svg>
