<?xml version="1.0" encoding="UTF-8"?>
<svg width="52px" height="50px" viewBox="0 0 52 50" version="1.1" xmlns="http://www.w3.org/2000/svg" xmlns:xlink="http://www.w3.org/1999/xlink">
    <!-- Generator: Sketch 62 (91390) - https://sketch.com -->
    <title>dod-logo-horizontal.843c8d7</title>
    <desc>Created with Sketch.</desc>
    <defs>
        <linearGradient x1="37.3385848%" y1="-1.01350858%" x2="65.074614%" y2="95.8214677%" id="linearGradient-1">
            <stop stop-color="#6E4A4A" offset="0%"></stop>
            <stop stop-color="#CFBEA4" offset="49.75%"></stop>
            <stop stop-color="#483436" offset="100%"></stop>
        </linearGradient>
        <linearGradient x1="65.7048869%" y1="-3.17781579%" x2="14.233781%" y2="78.6240533%" id="linearGradient-2">
            <stop stop-color="#6E4A4A" offset="0%"></stop>
            <stop stop-color="#CFBEA4" offset="49.75%"></stop>
            <stop stop-color="#483436" offset="100%"></stop>
        </linearGradient>
        <linearGradient x1="0.00336345318%" y1="50.0142712%" x2="100.049278%" y2="50.0142712%" id="linearGradient-3">
            <stop stop-color="#6E4A4A" offset="0%"></stop>
            <stop stop-color="#CFBEA4" offset="49.75%"></stop>
            <stop stop-color="#483436" offset="100%"></stop>
        </linearGradient>
        <linearGradient x1="-0.00544576023%" y1="50.0275211%" x2="100.022773%" y2="50.0275211%" id="linearGradient-4">
            <stop stop-color="#6E4A4A" offset="0%"></stop>
            <stop stop-color="#CFBEA4" offset="49.75%"></stop>
            <stop stop-color="#483436" offset="100%"></stop>
        </linearGradient>
        <linearGradient x1="101.134469%" y1="33.8288081%" x2="14.9682923%" y2="61.6551628%" id="linearGradient-5">
            <stop stop-color="#6E4A4A" offset="0%"></stop>
            <stop stop-color="#CFBEA4" offset="49.75%"></stop>
            <stop stop-color="#483436" offset="100%"></stop>
        </linearGradient>
        <linearGradient x1="-0.0796509212%" y1="50.1474572%" x2="99.9861477%" y2="50.1474572%" id="linearGradient-6">
            <stop stop-color="#6E4A4A" offset="0%"></stop>
            <stop stop-color="#CFBEA4" offset="49.75%"></stop>
            <stop stop-color="#483436" offset="100%"></stop>
        </linearGradient>
        <linearGradient x1="-0.23343013%" y1="49.8580341%" x2="99.8466667%" y2="49.8580341%" id="linearGradient-7">
            <stop stop-color="#6E4A4A" offset="0%"></stop>
            <stop stop-color="#CFBEA4" offset="49.75%"></stop>
            <stop stop-color="#483436" offset="100%"></stop>
        </linearGradient>
        <linearGradient x1="0.51236932%" y1="50.189638%" x2="100.010351%" y2="50.189638%" id="linearGradient-8">
            <stop stop-color="#6E4A4A" offset="0%"></stop>
            <stop stop-color="#CFBEA4" offset="49.75%"></stop>
            <stop stop-color="#483436" offset="100%"></stop>
        </linearGradient>
        <linearGradient x1="0.0551418905%" y1="50.1297578%" x2="99.924049%" y2="50.1297578%" id="linearGradient-9">
            <stop stop-color="#6E4A4A" offset="0%"></stop>
            <stop stop-color="#CFBEA4" offset="49.75%"></stop>
            <stop stop-color="#483436" offset="100%"></stop>
        </linearGradient>
        <linearGradient x1="-0.230035012%" y1="50.1575648%" x2="99.7979835%" y2="50.1575648%" id="linearGradient-10">
            <stop stop-color="#6E4A4A" offset="0%"></stop>
            <stop stop-color="#CFBEA4" offset="49.75%"></stop>
            <stop stop-color="#483436" offset="100%"></stop>
        </linearGradient>
        <linearGradient x1="0.61334215%" y1="49.8474295%" x2="100.340424%" y2="49.8474295%" id="linearGradient-11">
            <stop stop-color="#6E4A4A" offset="0%"></stop>
            <stop stop-color="#CFBEA4" offset="49.75%"></stop>
            <stop stop-color="#483436" offset="100%"></stop>
        </linearGradient>
        <linearGradient x1="-0.0772119464%" y1="50.2483038%" x2="99.8067204%" y2="50.2483038%" id="linearGradient-12">
            <stop stop-color="#6E4A4A" offset="0%"></stop>
            <stop stop-color="#CFBEA4" offset="49.75%"></stop>
            <stop stop-color="#483436" offset="100%"></stop>
        </linearGradient>
        <linearGradient x1="-0.071486563%" y1="50.361063%" x2="99.795242%" y2="50.361063%" id="linearGradient-13">
            <stop stop-color="#6E4A4A" offset="0%"></stop>
            <stop stop-color="#CFBEA4" offset="49.75%"></stop>
            <stop stop-color="#483436" offset="100%"></stop>
        </linearGradient>
        <linearGradient x1="-0.0278554185%" y1="49.9686336%" x2="99.9775123%" y2="49.9686336%" id="linearGradient-14">
            <stop stop-color="#6E4A4A" offset="0%"></stop>
            <stop stop-color="#CFBEA4" offset="49.75%"></stop>
            <stop stop-color="#483436" offset="100%"></stop>
        </linearGradient>
        <linearGradient x1="-0.113144024%" y1="49.3705857%" x2="99.7047217%" y2="49.3705857%" id="linearGradient-15">
            <stop stop-color="#6E4A4A" offset="0%"></stop>
            <stop stop-color="#CFBEA4" offset="49.75%"></stop>
            <stop stop-color="#483436" offset="100%"></stop>
        </linearGradient>
    </defs>
    <g id="Page-1" stroke="none" stroke-width="1" fill="none" fill-rule="evenodd">
        <g id="dod-logo-horizontal.843c8d7" fill-rule="nonzero">
            <path d="M19.5857,21.7168 C19.5857,21.7168 24.3559,26.8268 25.5025,35.1499 C25.5025,35.1499 22.2327,31.8801 17.9296,32.97 C17.9296,32.97 21.3126,32.6303 23.903,35.9001 C26.4792,39.1699 25.7998,45.5397 21.3268,49.1068 C21.3268,49.1068 21.8505,48.9935 24.7098,48.4132 C27.5833,47.8328 32.4526,48.2433 32.4526,48.2433 C32.4526,48.2433 29.6924,46.0634 29.933,38.3773 C30.1595,30.6911 32.2261,27.4071 34.1229,24.9441 C34.1229,24.9441 29.5084,28.3272 28.0504,32.9276 C28.0363,32.9134 26.5358,26.1332 19.5857,21.7168 Z" id="Path" fill="url(#linearGradient-1)"></path>
            <path d="M33.6983,11.7948 C33.6983,11.7948 31.0513,16.1546 26.4651,16.2112 C21.8788,16.2678 17.052,9.55832 12.1685,9.37431 C7.28502,9.20445 2.41569,12.7007 2.69879,19.8773 C2.98189,27.0539 7.05854,36.2972 14.2918,41.3505 C14.2918,41.3505 3.39239,34.6976 0.802017,26.1339 C-1.7742,17.5842 3.1376,8.31268 10.2293,6.68485 C15.9762,5.36844 19.3451,10.7473 23.5633,13.2103 C25.6724,14.4418 28.2345,14.6258 30.4993,13.7199 C31.4618,13.3236 32.5942,12.7149 33.6983,11.7948 Z" id="Path" fill="url(#linearGradient-2)"></path>
            <path d="M21.8222,7.4769 C21.8222,7.4769 24.8655,10.407 29.5084,9.65677 C34.1512,8.90656 35.3119,5.74999 42.4178,8.0431 C49.5377,10.3362 50.8542,19.6927 47.9807,27.393 C45.1072,35.0792 40.1671,39.5097 38.5676,40.543 C38.5676,40.543 49.1839,34.4564 51.024,25.383 C52.8642,16.3096 49.7642,9.31705 43.9607,5.74999 C38.1571,2.19708 30.8106,6.5002 28.9846,6.95316 C27.1586,7.42028 26.182,8.69423 21.8222,7.4769 Z" id="Path" fill="url(#linearGradient-3)"></path>
            <path d="M28.8855,5.0706 L31.4617,3.69756 C31.4617,3.69756 20.987,-4.44158 11.2625,5.0706 C11.2625,5.0706 18.609,-1.41241 28.8855,5.0706 Z" id="Path" fill="url(#linearGradient-4)"></path>
            <path d="M18.8071,20.4151 C18.8071,20.4151 19.9537,18.4334 18.1702,17.6266 C16.3866,16.8197 12.6214,17.2868 12.6214,17.2868 C12.6214,17.2868 13.2584,19.5516 14.7163,20.7973 C16.1743,22.0429 18.3825,20.9105 18.3825,20.9105 L19.0195,21.3776 C19.0195,21.3776 17.8871,19.6932 15.3533,18.4759 C15.3533,18.49 16.9953,18.9147 18.8071,20.4151 Z" id="Path" fill="url(#linearGradient-5)"></path>
            <path d="M19.1752,23.9261 C19.1752,23.9261 19.0478,22.4115 17.5332,22.454 C16.0186,22.4965 13.952,23.8695 13.952,23.8695 C13.952,23.8695 15.4382,25.2142 16.8396,25.5681 C18.2409,25.922 19.1327,24.4216 19.1327,24.4216 L19.7272,24.5206 C19.7272,24.5206 18.425,23.7704 16.2592,23.7846 C16.2592,23.7846 17.4341,23.5156 19.1752,23.9261 Z" id="Path" fill="url(#linearGradient-6)"></path>
            <path d="M21.8222,27.3372 C21.8222,27.3372 22.1761,28.7385 21.1286,29.2481 C20.0812,29.7435 17.3209,29.8143 17.3209,29.8143 C17.3209,29.8143 17.873,27.6203 18.7506,26.8134 C19.6282,26.0066 21.3551,26.9833 21.3551,26.9833 C21.3551,26.9833 19.5433,27.8609 19.062,28.3846 C19.062,28.3846 22.2327,26.7427 22.2044,26.9833 L21.8222,27.3372 Z" id="Path" fill="url(#linearGradient-7)"></path>
            <path d="M16.9105,32.9552 C16.9105,32.9552 15.042,33.1676 14.5183,33.3799 C14.5183,33.3799 15.8488,32.7854 16.4433,32.7854 C16.4433,32.7854 15.8488,31.9785 15.1269,32.0493 C14.405,32.1201 13.0461,34.0027 13.0461,34.0027 C13.0461,34.0027 13.6123,34.1867 14.4475,34.2858 C15.2826,34.3849 16.4575,34.2433 16.5707,33.0826 L16.9105,32.9552 Z" id="Path" fill="url(#linearGradient-8)"></path>
            <path d="M21.3975,22.042 C21.3975,22.042 22.0204,20.8388 22.6856,20.2443 C22.6856,20.2443 22.0062,20.6406 21.3975,21.589 C21.3975,21.589 20.6049,21.0794 20.8738,20.4141 C21.1427,19.7488 23.8464,19.2676 23.8464,19.2676 C23.8464,19.2676 23.7473,20.768 23.4217,21.3767 C23.082,21.9995 21.6948,21.8296 21.6948,21.8296 L21.3975,22.042 Z" id="Path" fill="url(#linearGradient-9)"></path>
            <path d="M28.2485,28.1865 C28.2485,28.1865 27.6823,26.955 27.0453,26.3321 C27.0453,26.3321 27.7106,26.7568 28.2768,27.7335 C28.2768,27.7335 29.0836,27.2664 28.8572,26.5869 C28.6307,25.9075 25.9412,25.2988 25.9412,25.2988 C25.9412,25.2988 25.9695,26.7993 26.2809,27.4362 C26.5924,28.0732 27.9795,27.96 27.9795,27.96 L28.2485,28.1865 Z" id="Path" fill="url(#linearGradient-10)"></path>
            <path d="M32.8772,24.6185 C32.8772,24.6185 32.3818,23.3587 31.7731,22.6935 C31.7731,22.6935 32.4101,23.1464 32.9197,24.1656 C32.9197,24.1656 33.7548,23.7409 33.5567,23.0473 C33.3585,22.3537 30.7115,21.6035 30.7115,21.6035 C30.7115,21.6035 30.6549,23.1039 30.9238,23.7551 C31.1928,24.4062 32.5941,24.3779 32.5941,24.3779 L32.8772,24.6185 Z" id="Path" fill="url(#linearGradient-11)"></path>
            <path d="M34.222,28.2988 C34.222,28.2988 35.5809,28.1006 35.9206,28.7517 C36.2603,29.4029 35.6375,31.0449 35.6375,31.0449 C35.6375,31.0449 34.1229,30.5353 33.5001,29.87 C32.8773,29.2047 33.8115,28.4828 33.8115,28.4828 L33.5992,28.1855 C33.5992,28.1855 34.2928,28.681 35.1562,29.8841 C35.1562,29.8841 34.6042,28.9216 34.222,28.2988 Z" id="Path" fill="url(#linearGradient-12)"></path>
            <path d="M32.5658,32.3891 C32.5658,32.3891 33.1037,31.9361 33.8822,32.1202 C35.1703,32.4316 35.0146,34.6397 35.0146,34.6397 C35.0146,34.6397 33.8681,34.5407 32.7357,34.1868 C31.6033,33.8329 32.2827,32.6722 32.2827,32.6722 L31.943,32.4316 C31.943,32.4316 33.1603,32.8137 34.0238,33.5781 C34.0521,33.6064 34.0804,33.6206 34.1087,33.6489 C34.1087,33.663 33.0471,32.559 32.5658,32.3891 Z" id="Path" fill="url(#linearGradient-13)"></path>
            <path d="M34.8448,23.7969 C34.8448,23.7969 36.9822,22.3531 36.9114,22.5796 C36.8406,22.7919 34.4909,24.4198 34.6607,24.4198 C34.8306,24.4198 35.2269,24.2074 35.2269,24.2074 C35.2269,24.2074 36.784,24.986 37.5059,23.9102 C38.2278,22.8344 38.5534,21.7162 38.5534,21.7162 C38.5534,21.7162 36.7132,21.6171 35.7082,21.9285 C34.6891,22.2399 34.1936,22.9052 34.8448,23.7969 Z" id="Path" fill="url(#linearGradient-14)"></path>
            <path d="M34.2928,26.2894 C34.2928,26.2894 36.1613,26.2186 36.5577,26.1903 L34.6609,26.0771 C34.6609,26.0771 34.9723,25.2985 35.8357,25.3127 C36.6992,25.3127 37.9165,26.5159 37.9165,26.5159 C37.9165,26.5159 37.2654,26.8697 36.1047,27.167 C34.944,27.4501 34.6609,26.4734 34.6609,26.4734 L34.2928,26.2894 Z" id="Path" fill="url(#linearGradient-15)"></path>
        </g>
    </g>
</svg>