<svg width="166" height="191" viewBox="0 0 166 191" fill="none" xmlns="http://www.w3.org/2000/svg">
<path d="M67.5273 52.582C67.5273 52.582 79.3244 65.2193 82.1599 85.803C82.1599 85.803 74.0734 77.7166 63.4315 80.4121C63.4315 80.4121 71.798 79.5719 78.2042 87.6584C84.5753 95.7448 82.895 111.498 71.833 120.319C71.833 120.319 73.1283 120.039 80.1996 118.604C87.3058 117.169 99.348 118.184 99.348 118.184C99.348 118.184 92.5218 112.793 93.1169 93.7845C93.677 74.776 98.7879 66.6546 103.479 60.5635C103.479 60.5635 92.0667 68.93 88.461 80.307C88.426 80.272 84.7154 63.504 67.5273 52.582Z" fill="white"/>
<path d="M102.429 28.0431C102.429 28.0431 95.8824 38.8251 84.5403 38.9651C73.1983 39.1051 61.2611 22.5121 49.1839 22.0571C37.1067 21.637 25.0646 30.2835 25.7647 48.0317C26.4648 65.78 36.5466 88.6391 54.4349 101.136C54.4349 101.136 27.48 84.6834 21.0738 63.5045C14.7027 42.3607 26.8499 19.4316 44.3881 15.4058C58.6006 12.1503 66.9321 25.4527 77.364 31.5438C82.58 34.5893 88.9161 35.0444 94.5171 32.804C96.8976 31.8238 99.6981 30.3185 102.429 28.0431Z" fill="white"/>
<path d="M73.0583 17.366C73.0583 17.366 80.5847 24.6123 92.0668 22.757C103.549 20.9016 106.419 13.0952 123.993 18.7662C141.601 24.4373 144.856 47.5765 137.75 66.6199C130.644 85.6283 118.427 96.5853 114.471 99.1408C114.471 99.1408 140.726 84.0881 145.276 61.649C149.827 39.2099 142.161 21.9168 127.808 13.0952C113.456 4.30863 95.2874 14.9506 90.7715 16.0708C86.2557 17.226 83.8403 20.3765 73.0583 17.366Z" fill="white"/>
<path d="M90.5264 11.4145L96.8975 8.01887C96.8975 8.01887 70.9928 -12.1098 46.9435 11.4145C46.9435 11.4145 65.1118 -4.61841 90.5264 11.4145Z" fill="white"/>
<path d="M65.6018 49.36C65.6018 49.36 68.4373 44.4591 64.0265 42.4638C59.6157 40.4684 50.304 41.6236 50.304 41.6236C50.304 41.6236 51.8793 47.2246 55.485 50.3052C59.0906 53.3858 64.5516 50.5852 64.5516 50.5852L66.1269 51.7405C66.1269 51.7405 63.3264 47.5747 57.0603 44.5642C57.0603 44.5992 61.121 45.6494 65.6018 49.36Z" fill="white"/>
<path d="M66.5119 58.0432C66.5119 58.0432 66.1968 54.2975 62.4511 54.4026C58.7055 54.5076 53.5946 57.9032 53.5946 57.9032C53.5946 57.9032 57.2702 61.2288 60.7358 62.1039C64.2015 62.9791 66.4069 59.2684 66.4069 59.2684L67.8771 59.5135C67.8771 59.5135 64.6565 57.6581 59.3006 57.6932C59.3006 57.6932 62.2061 57.028 66.5119 58.0432Z" fill="white"/>
<path d="M73.0583 66.4794C73.0583 66.4794 73.9335 69.945 71.343 71.2053C68.7526 72.4305 61.9263 72.6055 61.9263 72.6055C61.9263 72.6055 63.2916 67.1795 65.462 65.1842C67.6324 63.1888 71.9031 65.6042 71.9031 65.6042C71.9031 65.6042 67.4223 67.7746 66.2321 69.0699C66.2321 69.0699 74.0735 65.0091 74.0035 65.6042L73.0583 66.4794Z" fill="white"/>
<path d="M60.9111 80.3782C60.9111 80.3782 56.2903 80.9033 54.9951 81.4284C54.9951 81.4284 58.2857 79.9582 59.7559 79.9582C59.7559 79.9582 58.2857 77.9628 56.5003 78.1378C54.715 78.3129 51.3544 82.9687 51.3544 82.9687C51.3544 82.9687 52.7547 83.4238 54.82 83.6688C56.8854 83.9139 59.7909 83.5638 60.071 80.6933L60.9111 80.3782Z" fill="white"/>
<path d="M72.0079 53.3886C72.0079 53.3886 73.5482 50.413 75.1935 48.9428C75.1935 48.9428 73.5132 49.923 72.0079 52.2684C72.0079 52.2684 70.0476 51.0082 70.7127 49.3629C71.3778 47.7176 78.064 46.5273 78.064 46.5273C78.064 46.5273 77.819 50.238 77.0138 51.7433C76.1737 53.2836 72.7431 52.8635 72.7431 52.8635L72.0079 53.3886Z" fill="white"/>
<path d="M88.9509 68.5788C88.9509 68.5788 87.5506 65.5332 85.9754 63.993C85.9754 63.993 87.6207 65.0432 89.0209 67.4586C89.0209 67.4586 91.0163 66.3034 90.4562 64.6231C89.8961 62.9428 83.2449 61.4375 83.2449 61.4375C83.2449 61.4375 83.3149 65.1482 84.085 66.7235C84.8552 68.2987 88.2858 68.0187 88.2858 68.0187L88.9509 68.5788Z" fill="white"/>
<path d="M100.398 59.7571C100.398 59.7571 99.1729 56.6416 97.6677 54.9963C97.6677 54.9963 99.2429 56.1165 100.503 58.6369C100.503 58.6369 102.569 57.5867 102.078 55.8714C101.588 54.1561 95.0422 52.3008 95.0422 52.3008C95.0422 52.3008 94.9022 56.0115 95.5673 57.6217C96.2324 59.232 99.698 59.162 99.698 59.162L100.398 59.7571Z" fill="white"/>
<path d="M103.724 68.8601C103.724 68.8601 107.084 68.37 107.924 69.9803C108.765 71.5906 107.224 75.6514 107.224 75.6514C107.224 75.6514 103.479 74.3911 101.938 72.7458C100.398 71.1005 102.708 69.3152 102.708 69.3152L102.183 68.5801C102.183 68.5801 103.899 69.8053 106.034 72.7808C106.034 72.7808 104.669 70.4004 103.724 68.8601Z" fill="white"/>
<path d="M99.628 78.977C99.628 78.977 100.958 77.8568 102.884 78.3119C106.069 79.082 105.684 84.543 105.684 84.543C105.684 84.543 102.849 84.298 100.048 83.4228C97.2475 82.5477 98.9278 79.6771 98.9278 79.6771L98.0877 79.082C98.0877 79.082 101.098 80.0272 103.234 81.9175C103.304 81.9876 103.374 82.0226 103.444 82.0926C103.444 82.1276 100.818 79.3971 99.628 78.977Z" fill="white"/>
<path d="M105.264 57.7279C105.264 57.7279 110.55 54.1573 110.375 54.7174C110.2 55.2425 104.389 59.2682 104.809 59.2682C105.229 59.2682 106.209 58.7431 106.209 58.7431C106.209 58.7431 110.06 60.6684 111.845 58.008C113.63 55.3475 114.436 52.582 114.436 52.582C114.436 52.582 109.885 52.3369 107.399 53.1071C104.879 53.8772 103.654 55.5225 105.264 57.7279Z" fill="white"/>
<path d="M103.899 63.8886C103.899 63.8886 108.52 63.7135 109.5 63.6435L104.809 63.3635C104.809 63.3635 105.579 61.4381 107.715 61.4731C109.85 61.4731 112.861 64.4487 112.861 64.4487C112.861 64.4487 111.25 65.3238 108.38 66.059C105.509 66.7591 104.809 64.3436 104.809 64.3436L103.899 63.8886Z" fill="white"/>
<path d="M0 148.394C0.455082 148.324 0.840152 148.079 1.0852 147.694C1.33024 147.274 1.47027 146.714 1.47027 146.014L1.54028 133.622H1.50527V133.587C1.50527 132.852 1.36525 132.291 1.1202 131.906C0.875158 131.486 0.490089 131.276 0.0350063 131.206V131.171C3.08056 131.066 5.63602 131.031 7.70139 131.031C10.7469 131.031 13.1974 131.766 15.0527 133.237C16.9781 134.742 17.9232 136.842 17.9232 139.468C17.9232 142.548 16.9081 144.859 14.8777 146.434C12.9873 147.904 10.5719 148.569 7.59637 148.499C6.89625 148.464 4.37579 148.464 0 148.394ZM3.95572 145.174C3.95572 146.049 4.20076 146.609 4.65584 146.889C5.11092 147.169 6.02109 147.309 7.38634 147.309C12.5323 147.309 15.1227 144.789 15.1227 139.713C15.1227 134.602 12.4973 132.046 7.24631 132.046H5.39097C4.4108 132.151 3.92071 132.397 3.92071 132.852V145.174H3.95572Z" fill="white"/>
<path d="M33.9562 148.499C33.8162 148.534 33.6411 148.534 33.3961 148.534C32.0308 148.464 30.2805 148.429 28.1451 148.429C26.6049 148.429 24.5045 148.429 21.879 148.464V148.429C22.3341 148.359 22.7192 148.114 22.9642 147.729C23.2092 147.309 23.3493 146.749 23.3493 146.048L23.3843 133.691H23.3493V133.656C23.3493 132.921 23.2092 132.361 22.9642 131.976C22.7192 131.556 22.3341 131.346 21.879 131.276V131.241L26.8499 131.206C28.1801 131.206 29.4054 131.171 30.5606 131.136H30.7356C31.5408 131.101 32.2759 131.066 32.941 131.031C33.5011 130.996 33.8162 131.031 33.8162 131.136V131.556L33.8512 133.901H33.8162C33.7812 133.656 33.6761 133.446 33.5361 133.271C33.3961 133.096 33.151 132.921 32.836 132.781C32.5209 132.641 32.0658 132.536 31.5408 132.466C31.0157 132.396 30.3155 132.326 29.4404 132.291C28.6702 132.291 27.62 132.256 26.2898 132.256C26.0098 132.256 25.7997 132.291 25.7297 132.396C25.6947 132.466 25.6597 132.571 25.6597 132.816V138.347C25.6597 138.557 25.7997 138.662 26.0448 138.662C26.4998 138.662 28.2152 138.662 31.1557 138.697C31.8908 138.697 32.4159 138.522 32.731 138.207C33.046 137.857 33.2561 137.472 33.3261 137.017H33.3611C33.3261 137.717 33.3611 139.187 33.3961 141.358H33.3611C33.2911 140.902 33.046 140.517 32.661 140.272C32.2409 140.027 31.6808 139.887 30.9806 139.887C29.8604 139.817 28.1801 139.782 25.9397 139.817C25.7647 139.817 25.6947 139.887 25.6947 139.992V145.768C25.6947 146.574 26.1848 147.099 27.13 147.274C27.375 147.309 28.1801 147.344 29.5804 147.344C30.2455 147.344 30.8056 147.274 31.2957 147.169C32.3809 146.854 33.186 146.539 33.6761 146.153C34.2012 145.768 34.5163 145.348 34.6563 144.893L34.6913 144.928L34.1662 148.429L34.1312 148.604L33.9562 148.499Z" fill="white"/>
<path d="M57.2004 131.171C56.7453 131.241 56.3603 131.486 56.1152 131.872C55.8702 132.292 55.7301 132.852 55.7301 133.552L55.8002 143.179C55.8002 145.174 55.8352 146.784 55.8702 148.009C55.8702 148.325 55.8002 148.57 55.6951 148.675H55.4501C53.8048 146.994 49.219 142.654 41.7276 135.652L41.6576 143.914V145.979C41.6576 146.714 41.7976 147.274 42.0427 147.659C42.2877 148.079 42.6728 148.29 43.1279 148.36V148.395H38.6471V148.36C39.1021 148.29 39.4872 148.044 39.7323 147.659C39.9773 147.239 40.1173 146.679 40.1173 145.979V143.599L40.1873 133.657C40.1873 132.502 40.1523 131.627 40.1173 131.066H40.1873L53.7698 143.424C53.9098 143.599 54.0148 143.669 54.0848 143.669C54.1549 143.669 54.1899 143.564 54.1899 143.319L54.1549 133.587C54.1549 132.852 54.0148 132.292 53.7698 131.907C53.5247 131.486 53.1397 131.276 52.6846 131.206V131.171H57.2004Z" fill="white"/>
<path d="M77.854 131.102C77.819 132.782 77.819 134.217 77.784 135.407H77.714C76.9089 134.182 76.2087 133.412 75.6486 132.992C74.9485 132.502 73.7233 132.222 72.008 132.222H70.9928C70.6777 132.257 70.5027 132.327 70.4677 132.432C70.4327 132.502 70.3977 132.572 70.3977 132.642L70.3627 145.944C70.3627 146.434 70.5027 146.889 70.7828 147.204C70.9578 147.485 71.2028 147.695 71.4479 147.905C71.7279 148.08 72.043 148.22 72.3931 148.29C72.4281 148.325 72.4281 148.36 72.4281 148.36C72.358 148.43 72.148 148.43 71.7629 148.43C69.4525 148.325 67.6322 148.325 66.372 148.43C66.0919 148.465 65.9169 148.395 65.8469 148.325C66.477 148.255 66.9671 148.045 67.3871 147.66C67.8072 147.274 68.0523 146.819 68.0873 146.294L68.0523 132.642C68.0523 132.467 67.9473 132.327 67.7722 132.222H66.337C64.6216 132.222 63.3964 132.467 62.6963 132.992C62.1362 133.377 61.4361 134.182 60.6309 135.407H60.5609C60.5259 134.217 60.5259 132.782 60.4909 131.102L67.9473 131.137L77.854 131.102Z" fill="white"/>
<path d="M87.411 130.927C86.9209 130.962 86.5009 131.102 86.1858 131.383C85.8707 131.628 85.5557 131.978 85.3106 132.363V145.98C85.3106 146.47 85.4507 146.925 85.7307 147.24C85.9057 147.52 86.1508 147.73 86.3958 147.941C86.6759 148.116 86.9909 148.256 87.341 148.326C87.376 148.361 87.376 148.396 87.376 148.396C87.306 148.466 87.061 148.466 86.7109 148.466C84.3655 148.361 82.5801 148.361 81.3199 148.466C81.0399 148.501 80.8648 148.431 80.7948 148.361C81.4249 148.291 81.915 148.081 82.3351 147.695C82.7552 147.31 83.0002 146.855 83.0352 146.33V133.203C83.0352 132.853 82.9652 132.538 82.8252 132.258C82.6852 131.908 82.4751 131.593 82.2301 131.313C81.985 131.067 81.705 130.927 81.4249 130.927C81.565 130.892 82.5801 130.857 84.4705 130.857C86.3608 130.857 87.341 130.857 87.411 130.927Z" fill="white"/>
<path d="M101.168 141.253C101.973 142.093 102.393 143.003 102.428 144.018C102.463 144.334 102.428 144.684 102.358 145.139C102.288 145.594 102.113 145.979 101.868 146.364C101.623 146.749 101.308 147.134 100.958 147.484C100.608 147.834 100.328 148.079 100.048 148.149C98.9278 148.744 97.4925 148.954 95.7772 148.814C93.6418 148.639 92.2416 148.219 91.6115 147.554V144.088C91.6465 144.123 91.6815 144.158 91.7165 144.229C92.3816 145.419 93.0817 146.259 93.8169 146.784C94.552 147.309 95.4272 147.624 96.3723 147.694C98.1927 147.869 99.3829 147.449 99.908 146.434C99.908 146.364 99.978 146.259 100.048 146.119C100.153 145.839 100.223 145.489 100.223 145.104C100.258 144.334 100.013 143.668 99.5229 143.073C99.0328 142.513 97.9826 141.708 96.4073 140.693C94.412 139.398 93.1168 138.417 92.4516 137.717C91.7165 136.877 91.3664 135.862 91.4365 134.672C91.5065 133.447 92.0666 132.431 93.1518 131.696C94.237 130.926 95.5672 130.611 97.1775 130.751C98.2977 130.856 99.3129 131.101 100.223 131.451C101.063 131.801 101.448 132.116 101.378 132.361C101.413 132.536 101.413 133.552 101.448 135.407C101.553 135.582 101.378 135.337 100.923 134.637C100.468 133.937 99.908 133.307 99.2429 132.781C98.6127 132.291 97.8076 132.011 96.7574 131.941C95.8472 131.871 95.0771 132.011 94.517 132.396C93.9569 132.781 93.6418 133.377 93.5718 134.147C93.5368 134.882 93.7819 135.547 94.272 136.142C94.727 136.667 95.6372 137.367 96.9674 138.172C99.0328 139.433 100.433 140.448 101.168 141.253Z" fill="white"/>
<path d="M123.747 131.102C123.712 132.782 123.712 134.217 123.677 135.407H123.572C122.767 134.182 122.067 133.412 121.507 132.992C120.807 132.502 119.582 132.222 117.866 132.222H116.851C116.536 132.257 116.361 132.327 116.326 132.432C116.291 132.502 116.256 132.572 116.256 132.642L116.221 145.944C116.221 146.434 116.361 146.889 116.641 147.204C116.816 147.485 117.061 147.695 117.306 147.905C117.586 148.08 117.901 148.22 118.251 148.29C118.286 148.325 118.286 148.36 118.286 148.36C118.216 148.43 117.971 148.43 117.621 148.43C115.311 148.325 113.491 148.325 112.23 148.43C111.95 148.465 111.775 148.395 111.705 148.325C112.335 148.255 112.825 148.045 113.246 147.66C113.666 147.274 113.911 146.819 113.946 146.294L113.911 132.642C113.911 132.467 113.806 132.327 113.631 132.222H112.195C110.48 132.222 109.255 132.467 108.555 132.992C107.995 133.377 107.294 134.182 106.489 135.407H106.419C106.384 134.217 106.384 132.782 106.349 131.102L113.806 131.137L123.747 131.102Z" fill="white"/>
<path d="M132.429 148.465L130.049 148.43H129.453L127.108 148.465V148.43C127.948 148.325 128.438 147.695 128.578 146.54V146.434C128.613 146.329 128.613 146.224 128.613 146.014L128.648 133.657H128.613V133.622C128.613 132.887 128.473 132.327 128.228 131.942C127.983 131.522 127.598 131.312 127.143 131.242V131.207L133.899 131.137C135.37 131.207 136.56 131.487 137.435 132.047C138.485 132.747 139.045 133.762 139.045 135.092C139.045 136.878 137.925 138.418 135.685 139.678C135.44 139.748 135.265 139.853 135.16 139.958C138.695 145.069 142.091 147.835 145.346 148.255L146.257 148.43L141.916 148.465C140.13 148.5 138.59 147.73 137.295 146.154C135.44 143.774 133.934 141.849 132.709 140.413C131.904 140.413 131.309 140.448 130.854 140.553L130.924 145.979C130.924 146.715 131.064 147.275 131.309 147.66C131.589 148.115 131.974 148.36 132.429 148.465ZM136.315 135.337C136.315 134.182 136.035 133.342 135.405 132.852C134.809 132.327 133.899 132.082 132.604 132.082C131.589 132.082 131.029 132.222 130.959 132.537C130.924 132.607 130.924 132.712 130.924 132.817L130.854 139.433H131.939C133.444 139.433 134.564 139.048 135.265 138.243C135.965 137.438 136.315 136.458 136.315 135.337Z" fill="white"/>
<path d="M159.489 148.394L157.143 148.359H156.688C155.953 148.359 155.113 148.359 154.168 148.394V148.359C154.623 148.289 155.008 148.044 155.253 147.659C155.498 147.238 155.638 146.678 155.638 145.978L155.603 141.848C154.413 139.502 153.048 137.367 151.472 135.476C149.897 133.586 148.882 132.396 148.392 131.871C147.902 131.381 147.342 131.101 146.712 131.066C146.817 130.961 147.027 130.961 147.412 130.996C148.812 130.996 150.037 130.996 151.087 131.031L152.488 133.271C152.628 133.481 152.803 133.726 152.978 133.936L156.863 139.712C156.968 139.887 157.038 139.957 157.108 139.957C157.178 139.957 157.284 139.887 157.389 139.712C157.774 139.117 158.439 138.172 159.349 136.842C160.294 135.511 161.694 133.586 163.585 131.101L163.655 131.031H166V131.101C165.86 131.101 165.72 131.136 165.58 131.241C165.44 131.346 165.3 131.416 165.16 131.521C164.565 132.081 163.9 132.851 163.13 133.866C161.589 135.861 160.609 137.122 160.224 137.647C159.349 138.872 158.579 140.027 157.879 141.112L157.949 145.943C157.949 146.678 158.089 147.238 158.334 147.624C158.649 148.079 158.999 148.324 159.489 148.394Z" fill="white"/>
<path d="M80.7247 160.366C80.7247 162.361 79.9896 164.077 78.5193 165.442C77.049 166.807 75.2987 167.507 73.2684 167.507C71.133 167.507 69.3476 166.877 67.9124 165.582C66.4421 164.252 65.707 162.536 65.707 160.436C65.707 158.406 66.4421 156.69 67.9124 155.29C69.3827 153.925 71.133 153.26 73.2333 153.26C75.3687 153.26 77.1541 153.925 78.5543 155.255C80.0246 156.585 80.7247 158.301 80.7247 160.366ZM78.6243 160.716C78.6243 158.686 78.0642 157.11 76.979 155.92C75.9288 154.8 74.5286 154.24 72.7783 154.24C71.343 154.24 70.1528 154.765 69.2426 155.85C68.2975 156.9 67.8424 158.301 67.8424 160.016C67.8424 162.046 68.3675 163.657 69.4527 164.847C70.5029 165.967 71.9381 166.562 73.7234 166.562C75.1587 166.562 76.3489 166.037 77.2591 164.952C78.1692 163.867 78.6243 162.466 78.6243 160.716Z" fill="white"/>
<path d="M98.5077 153.644C98.1226 153.714 97.8426 153.889 97.6325 154.204C97.4225 154.519 97.3175 154.974 97.3175 155.535L97.3525 163.096C97.3525 164.671 97.3875 165.931 97.4225 166.912C97.4225 167.157 97.3875 167.332 97.2824 167.437H97.1074C95.8122 166.106 92.2065 162.711 86.2905 157.18L86.2205 163.691V165.301C86.2205 165.861 86.3255 166.317 86.5355 166.632C86.7455 166.947 87.0256 167.157 87.4107 167.192V167.227H83.875V167.192C84.2601 167.122 84.5402 166.947 84.7502 166.632C84.9602 166.317 85.0652 165.861 85.0652 165.301V163.411L85.1353 155.605C85.1353 154.694 85.1353 153.994 85.1003 153.574H85.1703L95.8472 163.306C95.9522 163.446 96.0222 163.481 96.0922 163.481C96.1622 163.481 96.1623 163.376 96.1623 163.201L96.1272 155.535C96.1272 154.974 96.0222 154.519 95.8122 154.204C95.6022 153.889 95.3221 153.714 94.937 153.644V153.609L98.5077 153.644Z" fill="white"/>
<path d="M24.7495 190.121C25.2046 190.051 25.5896 189.806 25.8347 189.421C26.0797 189.001 26.2198 188.441 26.2198 187.741L26.2898 175.348H26.2548V175.313C26.2548 174.578 26.1147 174.018 25.8697 173.633C25.6246 173.213 25.2396 173.003 24.7845 172.933V172.898C27.83 172.793 30.3855 172.758 32.4509 172.758C35.4964 172.758 37.9469 173.493 39.8022 174.963C41.7276 176.468 42.6727 178.569 42.6727 181.194C42.6727 184.275 41.6575 186.585 39.6272 188.161C37.7368 189.631 35.3214 190.296 32.3459 190.226C31.6457 190.191 29.0903 190.156 24.7495 190.121ZM28.7052 186.9C28.7052 187.776 28.9502 188.336 29.4053 188.616C29.8604 188.896 30.7706 189.036 32.1358 189.036C37.2818 189.036 39.8722 186.515 39.8722 181.474C39.8722 176.363 37.2467 173.808 31.9958 173.808H30.1405C29.1603 173.913 28.6702 174.158 28.6702 174.613V186.9H28.7052Z" fill="white"/>
<path d="M60.8761 173.53C60.631 173.11 60.246 172.9 59.7909 172.83V172.795H64.2717V172.83C63.8166 172.9 63.4316 173.145 63.1865 173.53C62.9415 173.95 62.8014 174.51 62.8014 175.21L62.8364 182.912C62.9765 185.327 62.4164 187.182 61.1561 188.513C59.8609 189.878 57.9706 190.543 55.5201 190.543C50.3392 190.543 47.7137 188.093 47.7137 183.192L47.7487 175.21H47.7137V175.175C47.7137 174.44 47.5737 173.88 47.3286 173.495C47.0836 173.075 46.6985 172.865 46.2435 172.795V172.76H51.6344V172.795C51.1793 172.865 50.7943 173.145 50.5492 173.6C50.3042 174.055 50.1292 174.825 50.0941 175.875V182.737C50.0941 184.977 50.5492 186.657 51.4944 187.707C52.4396 188.758 53.9098 189.283 56.0102 189.283C59.5809 189.283 61.3312 187.217 61.3312 183.122L61.2962 175.21C61.2612 174.475 61.1211 173.915 60.8761 173.53Z" fill="white"/>
<path d="M87.3059 172.9C86.8508 172.97 86.4657 173.215 86.2207 173.6C85.9757 174.02 85.8356 174.58 85.8356 175.28L85.9056 184.872C85.9056 186.867 85.9407 188.478 85.9757 189.703C85.9757 190.018 85.9056 190.263 85.8006 190.368H85.5556C83.9103 188.688 79.3245 184.347 71.8331 177.346L71.7631 185.607V187.672C71.7631 188.408 71.9031 188.968 72.1482 189.353C72.3932 189.773 72.7783 189.983 73.2334 190.053V190.088H68.7525V190.053C69.2076 189.983 69.5927 189.738 69.8377 189.353C70.0828 188.933 70.2228 188.373 70.2228 187.672V185.292L70.2928 175.35C70.2928 174.195 70.2578 173.32 70.2228 172.76H70.2928L83.8753 185.117C84.0153 185.292 84.1203 185.362 84.1903 185.362C84.2603 185.362 84.2954 185.257 84.2954 185.012L84.2603 175.28C84.2603 174.545 84.1203 173.985 83.8753 173.6C83.6302 173.18 83.2452 172.97 82.7901 172.9V172.865L87.3059 172.9Z" fill="white"/>
<path d="M91.6468 190.123C92.1018 190.053 92.4869 189.808 92.732 189.423C92.977 189.003 93.117 188.443 93.117 187.742L93.187 175.35H93.152V175.315C93.152 174.58 93.012 174.02 92.767 173.635C92.5219 173.215 92.1368 173.005 91.6818 172.935V172.9C94.7273 172.795 97.2828 172.76 99.3482 172.76C102.394 172.76 104.844 173.495 106.699 174.965C108.625 176.47 109.57 178.571 109.57 181.196C109.57 184.277 108.555 186.587 106.524 188.163C104.634 189.633 102.219 190.298 99.2431 190.228C98.543 190.193 96.0226 190.158 91.6468 190.123ZM95.6025 186.902C95.6025 187.777 95.8475 188.338 96.3026 188.618C96.7577 188.898 97.6679 189.038 99.0331 189.038C104.179 189.038 106.769 186.517 106.769 181.476C106.769 176.365 104.144 173.81 98.8931 173.81H97.0377C96.0576 173.915 95.5675 174.16 95.5675 174.615V186.902H95.6025Z" fill="white"/>
<path d="M112.93 190.158H109.64L109.605 190.123C110.025 190.053 110.34 189.843 110.585 189.528C110.83 189.177 111.075 188.862 111.355 188.512C111.635 188.197 112.23 186.972 113.21 184.872C114.191 182.771 114.926 181.126 115.416 179.971C116.746 176.75 117.866 173.845 118.811 171.324C121.227 177.065 123.607 182.561 125.988 187.777C126.268 188.512 126.618 189.072 127.003 189.457C127.423 189.843 127.878 190.088 128.368 190.158V190.193L124.167 190.228C123.397 188.197 122.767 186.622 122.312 185.502H114.611L112.93 190.158ZM121.787 184.172C121.717 184.032 120.632 181.336 118.461 176.085L115.031 184.382H121.892L121.787 184.172Z" fill="white"/>
<path d="M138.135 182.981C138.94 183.822 139.36 184.732 139.395 185.747C139.43 186.062 139.395 186.412 139.325 186.867C139.255 187.322 139.08 187.707 138.835 188.092C138.59 188.477 138.275 188.863 137.925 189.213C137.575 189.563 137.295 189.808 137.015 189.878C135.895 190.473 134.459 190.683 132.744 190.543C130.609 190.368 129.208 189.948 128.578 189.283V185.817C128.613 185.852 128.648 185.887 128.683 185.957C129.348 187.147 130.049 187.987 130.784 188.512C131.519 189.038 132.394 189.353 133.339 189.423C135.159 189.598 136.35 189.178 136.875 188.162C136.91 188.092 136.945 187.987 137.015 187.847C137.12 187.567 137.19 187.217 137.19 186.832C137.225 186.062 136.98 185.397 136.49 184.802C136 184.242 134.949 183.437 133.374 182.421C131.379 181.126 130.084 180.146 129.418 179.446C128.683 178.606 128.333 177.59 128.403 176.4C128.473 175.175 129.033 174.16 130.119 173.425C131.204 172.655 132.534 172.34 134.144 172.48C135.264 172.585 136.28 172.83 137.19 173.18C138.03 173.53 138.415 173.845 138.345 174.09C138.345 174.265 138.38 175.28 138.415 177.135C138.52 177.31 138.345 177.065 137.89 176.365C137.435 175.665 136.875 175.035 136.21 174.51C135.58 174.02 134.774 173.74 133.724 173.67C132.814 173.6 132.044 173.74 131.484 174.125C130.924 174.51 130.609 175.105 130.539 175.875C130.504 176.61 130.749 177.275 131.239 177.871C131.694 178.396 132.604 179.096 133.934 179.901C136 181.161 137.4 182.176 138.135 182.981Z" fill="white"/>
<path d="M59.9308 159.771H0V160.997H59.9308V159.771Z" fill="white"/>
<path d="M163.935 159.771H104.004V160.997H163.935V159.771Z" fill="white"/>
</svg>
