<?xml version="1.0" encoding="UTF-8"?>
<svg width="128px" height="121px" viewBox="0 0 128 121" version="1.1" xmlns="http://www.w3.org/2000/svg" xmlns:xlink="http://www.w3.org/1999/xlink">
    <!-- Generator: Sketch 62 (91390) - https://sketch.com -->
    <title>dod-logo</title>
    <desc>Created with Sketch.</desc>
    <g id="Page-1" stroke="none" stroke-width="1" fill="none" fill-rule="evenodd">
        <g id="dod-logo" fill="#FFFFFF" fill-rule="nonzero">
            <path d="M48.5273,52.582 C48.5273,52.582 60.3244,65.2193 63.1599,85.803 C63.1599,85.803 55.0734,77.7166 44.4315,80.4121 C44.4315,80.4121 52.798,79.5719 59.2042,87.6584 C65.5753,95.7448 63.895,111.498 52.833,120.319 C52.833,120.319 54.1283,120.039 61.1996,118.604 C68.3058,117.169 80.348,118.184 80.348,118.184 C80.348,118.184 73.5218,112.793 74.1169,93.7845 C74.677,74.776 79.7879,66.6546 84.479,60.5635 C84.479,60.5635 73.0667,68.93 69.461,80.307 C69.426,80.272 65.7154,63.504 48.5273,52.582 Z" id="Path"></path>
            <path d="M83.429,28.0431 C83.429,28.0431 76.8824,38.8251 65.5403,38.9651 C54.1983,39.1051 42.2611,22.5121 30.1839,22.0571 C18.1067,21.637 6.0646,30.2835 6.7647,48.0317 C7.4648,65.78 17.5466,88.6391 35.4349,101.136 C35.4349,101.136 8.48,84.6834 2.0738,63.5045 C-4.2973,42.3607 7.8499,19.4316 25.3881,15.4058 C39.6006,12.1503 47.9321,25.4527 58.364,31.5438 C63.58,34.5893 69.9161,35.0444 75.5171,32.804 C77.8976,31.8238 80.6981,30.3185 83.429,28.0431 Z" id="Path"></path>
            <path d="M54.0583,17.366 C54.0583,17.366 61.5847,24.6123 73.0668,22.757 C84.549,20.9016 87.419,13.0952 104.993,18.7662 C122.601,24.4373 125.856,47.5765 118.75,66.6199 C111.644,85.6283 99.427,96.5853 95.471,99.1408 C95.471,99.1408 121.726,84.0881 126.276,61.649 C130.827,39.2099 123.161,21.9168 108.808,13.0952 C94.456,4.30863 76.2874,14.9506 71.7715,16.0708 C67.2557,17.226 64.8403,20.3765 54.0583,17.366 Z" id="Path"></path>
            <path d="M71.5264,11.4145 L77.8975,8.01887 C77.8975,8.01887 51.9928,-12.1098 27.9435,11.4145 C27.9435,11.4145 46.1118,-4.61841 71.5264,11.4145 Z" id="Path"></path>
            <path d="M46.6018,49.36 C46.6018,49.36 49.4373,44.4591 45.0265,42.4638 C40.6157,40.4684 31.304,41.6236 31.304,41.6236 C31.304,41.6236 32.8793,47.2246 36.485,50.3052 C40.0906,53.3858 45.5516,50.5852 45.5516,50.5852 L47.1269,51.7405 C47.1269,51.7405 44.3264,47.5747 38.0603,44.5642 C38.0603,44.5992 42.121,45.6494 46.6018,49.36 Z" id="Path"></path>
            <path d="M47.5119,58.0432 C47.5119,58.0432 47.1968,54.2975 43.4511,54.4026 C39.7055,54.5076 34.5946,57.9032 34.5946,57.9032 C34.5946,57.9032 38.2702,61.2288 41.7358,62.1039 C45.2015,62.9791 47.4069,59.2684 47.4069,59.2684 L48.8771,59.5135 C48.8771,59.5135 45.6565,57.6581 40.3006,57.6932 C40.3006,57.6932 43.2061,57.028 47.5119,58.0432 Z" id="Path"></path>
            <path d="M54.0583,66.4794 C54.0583,66.4794 54.9335,69.945 52.343,71.2053 C49.7526,72.4305 42.9263,72.6055 42.9263,72.6055 C42.9263,72.6055 44.2916,67.1795 46.462,65.1842 C48.6324,63.1888 52.9031,65.6042 52.9031,65.6042 C52.9031,65.6042 48.4223,67.7746 47.2321,69.0699 C47.2321,69.0699 55.0735,65.0091 55.0035,65.6042 L54.0583,66.4794 Z" id="Path"></path>
            <path d="M41.9111,80.3782 C41.9111,80.3782 37.2903,80.9033 35.9951,81.4284 C35.9951,81.4284 39.2857,79.9582 40.7559,79.9582 C40.7559,79.9582 39.2857,77.9628 37.5003,78.1378 C35.715,78.3129 32.3544,82.9687 32.3544,82.9687 C32.3544,82.9687 33.7547,83.4238 35.82,83.6688 C37.8854,83.9139 40.7909,83.5638 41.071,80.6933 L41.9111,80.3782 Z" id="Path"></path>
            <path d="M53.0079,53.3886 C53.0079,53.3886 54.5482,50.413 56.1935,48.9428 C56.1935,48.9428 54.5132,49.923 53.0079,52.2684 C53.0079,52.2684 51.0476,51.0082 51.7127,49.3629 C52.3778,47.7176 59.064,46.5273 59.064,46.5273 C59.064,46.5273 58.819,50.238 58.0138,51.7433 C57.1737,53.2836 53.7431,52.8635 53.7431,52.8635 L53.0079,53.3886 Z" id="Path"></path>
            <path d="M69.9509,68.5788 C69.9509,68.5788 68.5506,65.5332 66.9754,63.993 C66.9754,63.993 68.6207,65.0432 70.0209,67.4586 C70.0209,67.4586 72.0163,66.3034 71.4562,64.6231 C70.8961,62.9428 64.2449,61.4375 64.2449,61.4375 C64.2449,61.4375 64.3149,65.1482 65.085,66.7235 C65.8552,68.2987 69.2858,68.0187 69.2858,68.0187 L69.9509,68.5788 Z" id="Path"></path>
            <path d="M81.398,59.7571 C81.398,59.7571 80.1729,56.6416 78.6677,54.9963 C78.6677,54.9963 80.2429,56.1165 81.503,58.6369 C81.503,58.6369 83.569,57.5867 83.078,55.8714 C82.588,54.1561 76.0422,52.3008 76.0422,52.3008 C76.0422,52.3008 75.9022,56.0115 76.5673,57.6217 C77.2324,59.232 80.698,59.162 80.698,59.162 L81.398,59.7571 Z" id="Path"></path>
            <path d="M84.724,68.8601 C84.724,68.8601 88.084,68.37 88.924,69.9803 C89.765,71.5906 88.224,75.6514 88.224,75.6514 C88.224,75.6514 84.479,74.3911 82.938,72.7458 C81.398,71.1005 83.708,69.3152 83.708,69.3152 L83.183,68.5801 C83.183,68.5801 84.899,69.8053 87.034,72.7808 C87.034,72.7808 85.669,70.4004 84.724,68.8601 Z" id="Path"></path>
            <path d="M80.628,78.977 C80.628,78.977 81.958,77.8568 83.884,78.3119 C87.069,79.082 86.684,84.543 86.684,84.543 C86.684,84.543 83.849,84.298 81.048,83.4228 C78.2475,82.5477 79.9278,79.6771 79.9278,79.6771 L79.0877,79.082 C79.0877,79.082 82.098,80.0272 84.234,81.9175 C84.304,81.9876 84.374,82.0226 84.444,82.0926 C84.444,82.1276 81.818,79.3971 80.628,78.977 Z" id="Path"></path>
            <path d="M86.264,57.7279 C86.264,57.7279 91.55,54.1573 91.375,54.7174 C91.2,55.2425 85.389,59.2682 85.809,59.2682 C86.229,59.2682 87.209,58.7431 87.209,58.7431 C87.209,58.7431 91.06,60.6684 92.845,58.008 C94.63,55.3475 95.436,52.582 95.436,52.582 C95.436,52.582 90.885,52.3369 88.399,53.1071 C85.879,53.8772 84.654,55.5225 86.264,57.7279 Z" id="Path"></path>
            <path d="M84.899,63.8886 C84.899,63.8886 89.52,63.7135 90.5,63.6435 L85.809,63.3635 C85.809,63.3635 86.579,61.4381 88.715,61.4731 C90.85,61.4731 93.861,64.4487 93.861,64.4487 C93.861,64.4487 92.25,65.3238 89.38,66.059 C86.509,66.7591 85.809,64.3436 85.809,64.3436 L84.899,63.8886 Z" id="Path"></path>
        </g>
    </g>
</svg>