<?xml version="1.0" encoding="UTF-8"?>
<svg width="65px" height="22px" viewBox="0 0 65 22" version="1.1" xmlns="http://www.w3.org/2000/svg" xmlns:xlink="http://www.w3.org/1999/xlink">
    <!-- Generator: Sketch 63.1 (92452) - https://sketch.com -->
    <title>Google_logo</title>
    <desc>Created with Sketch.</desc>
    <g id="Page-1" stroke="none" stroke-width="1" fill="none" fill-rule="evenodd">
        <g id="Google_logo" fill="#B8B8B8" fill-rule="nonzero">
            <path d="M16.0113172,7.57215054 L8.4397491,7.57215054 L8.4397491,9.81896057 L13.8095878,9.81896057 C13.5443459,12.9694803 10.9230287,14.3131631 8.44883513,14.3131631 C5.28328853,14.3131631 2.52090502,11.8225448 2.52090502,8.33153226 C2.52090502,4.93079749 5.15410394,2.31181004 8.45582437,2.31181004 C11.0030556,2.31181004 12.5039964,3.93552867 12.5039964,3.93552867 L14.077276,2.30645161 C14.077276,2.30645161 12.0580824,0.05859319 8.37544803,0.05859319 C3.68601254,0.05859319 0.0582437276,4.01637097 0.0582437276,8.29134409 C0.0582437276,12.4803495 3.47074373,16.5649821 8.49496416,16.5649821 C12.9137993,16.5649821 16.1484229,13.5379391 16.1484229,9.06155914 C16.1484229,8.11731183 16.0113172,7.57145161 16.0113172,7.57145161 L16.0113172,7.57215054 Z" id="g_1_"></path>
            <path d="M22.2136918,5.94505376 C19.1068548,5.94505376 16.8803136,8.37405018 16.8803136,11.2067921 C16.8803136,14.0814695 19.039991,16.5555466 22.2501523,16.5555466 C25.1562814,16.5555466 27.5371685,14.3343638 27.5371685,11.268647 C27.5371685,7.75468638 24.7676792,5.94505376 22.2136918,5.94505376 L22.2136918,5.94505376 Z M22.2445609,8.02889785 C23.7722939,8.02889785 25.2201165,9.26413082 25.2201165,11.2544355 C25.2201165,13.2025717 23.7784677,14.4729839 22.2375717,14.4729839 C20.54431,14.4729839 19.2085484,13.1168369 19.2085484,11.2389427 C19.2085484,9.40135305 20.5277688,8.02889785 22.2445609,8.02889785 L22.2445609,8.02889785 Z" id="o_1_"></path>
            <path d="M33.8129301,5.94505376 C30.7060932,5.94505376 28.479552,8.37405018 28.479552,11.2067921 C28.479552,14.0814695 30.6392294,16.5555466 33.8493907,16.5555466 C36.7555197,16.5555466 39.1362903,14.3343638 39.1362903,11.268647 C39.1364068,7.75468638 36.3669176,5.94505376 33.8129301,5.94505376 L33.8129301,5.94505376 Z M33.8437993,8.02889785 C35.3717652,8.02889785 36.8194713,9.26413082 36.8194713,11.2544355 C36.8194713,13.2025717 35.3778226,14.4729839 33.83681,14.4729839 C32.1436649,14.4729839 30.8079032,13.1168369 30.8079032,11.2389427 C30.8079032,9.40135305 32.1270072,8.02889785 33.8437993,8.02889785 L33.8437993,8.02889785 Z" id="o"></path>
            <path d="M45.1900269,5.95052867 C42.3382975,5.95052867 40.0967294,8.4481362 40.0967294,11.2515233 C40.0967294,14.4447939 42.695448,16.5623029 45.1408692,16.5623029 C46.6528763,16.5623029 47.4568728,15.9621595 48.0504928,15.2732527 L48.0504928,16.31931 C48.0504928,18.1495609 46.9392025,19.2458244 45.2617832,19.2458244 C43.6412097,19.2458244 42.8284767,18.0408781 42.5459946,17.3570968 L40.5071147,18.209552 C41.2303853,19.7390323 42.6864785,21.3339785 45.2787903,21.3339785 C48.114095,21.3339785 50.2750538,19.5481093 50.2750538,15.8025717 L50.2750538,6.26958781 L48.0507258,6.26958781 L48.0507258,7.16828853 C47.3667115,6.4312724 46.4313172,5.95052867 45.1900269,5.95052867 L45.1900269,5.95052867 Z M45.3964427,8.0302957 C46.7945251,8.0302957 48.2303495,9.22417563 48.2303495,11.2628226 C48.2303495,13.3351344 46.7976703,14.4771774 45.3655735,14.4771774 C43.8451792,14.4771774 42.430672,13.2427599 42.430672,11.282509 C42.430672,9.24572581 43.8998118,8.0302957 45.3964427,8.0302957 L45.3964427,8.0302957 Z" id="g"></path>
            <path d="M60.1649552,5.93794803 C57.4749104,5.93794803 55.2164516,8.07817204 55.2164516,11.236147 C55.2164516,14.5778226 57.733862,16.5596237 60.4234409,16.5596237 C62.6681541,16.5596237 64.0457348,15.3316129 64.8677867,14.2313889 L63.0338082,13.0110663 C62.557957,13.7495968 61.7623477,14.4714695 60.4346237,14.4714695 C58.9430018,14.4714695 58.2573566,13.654776 57.8325269,12.8635932 L64.9460663,9.91191756 L64.5768011,9.04688172 C63.8896416,7.35292115 62.2864247,5.938181 60.1651882,5.938181 L60.1649552,5.93794803 Z M60.2575627,7.97834229 C61.2269713,7.97834229 61.9244982,8.4936828 62.2208423,9.11153226 L57.4703674,11.0971774 C57.2654659,9.55989247 58.7217921,7.97834229 60.2575627,7.97834229 L60.2575627,7.97834229 Z" id="e"></path>
            <polygon id="l" points="51.8250358 16.2446416 54.1616577 16.2446416 54.1616577 0.607249104 51.8250358 0.607249104"></polygon>
        </g>
    </g>
</svg>