<?xml version="1.0" encoding="UTF-8"?>
<svg width="25px" height="17px" viewBox="0 0 25 17" version="1.1" xmlns="http://www.w3.org/2000/svg" xmlns:xlink="http://www.w3.org/1999/xlink">
    <!-- Generator: Sketch 63.1 (92452) - https://sketch.com -->
    <title>Tripadvisor_Logo_RGB</title>
    <desc>Created with Sketch.</desc>
    <g id="Page-1" stroke="none" stroke-width="1" fill="none" fill-rule="evenodd">
        <g id="Tripadvisor_Logo_RGB" fill="#B8B8B8" fill-rule="nonzero">
            <path d="M6.25,11.5228218 C5.02572346,11.5228218 4.03325123,10.529282 4.03325123,9.30368857 C4.03325123,8.07809512 5.02572346,7.08455532 6.25,7.08455532 C7.47427654,7.08455532 8.46674877,8.07809512 8.46674877,9.30368857 C8.46674877,10.529282 7.47427654,11.5228218 6.25,11.5228218 Z M16.5277094,9.30368857 C16.5277094,10.529282 17.5201816,11.5228218 18.7444581,11.5228218 C19.9687347,11.5228218 20.9612069,10.529282 20.9612069,9.30368857 C20.9608672,8.07881712 19.9692448,7.08585218 18.7456897,7.08517146 C17.5201816,7.08455532 16.5277094,8.07809512 16.5277094,9.30368857 Z M18.7444581,15.5570212 C17.1703807,15.5595881 15.6538208,14.9648669 14.5003079,13.8926712 L12.5,16.0714286 L10.4987685,13.8902055 C9.34530543,14.9635629 7.82821804,15.5591995 6.2533867,15.5570212 C2.80511084,15.5570212 0.00677339901,12.7572147 0.00677339901,9.30368857 C0.00440528594,7.54439813 0.744393335,5.86593688 2.04433498,4.68203536 L0,2.45550499 L4.54187192,2.45550499 C9.34754315,-0.818501664 15.6641564,-0.818501664 20.4698276,2.45550499 L25,2.45550499 L22.9559729,4.68203536 C24.2563703,5.8657171 24.9968187,7.54420808 24.994766,9.30368857 C24.9944581,12.7572147 22.195197,15.5570212 18.7444581,15.5570212 Z M7.86927193,5.39373435 C6.28951644,4.73870807 4.47115857,5.10084269 3.26211922,6.31127072 C2.05307987,7.52169875 1.6914668,9.34203894 2.3459043,10.923446 C3.0003418,12.5048531 4.54194518,13.5358853 6.25184729,13.5357606 C7.37308157,13.5357606 8.44841645,13.0899909 9.24124881,12.2963057 C10.0340812,11.5026205 10.4793719,10.4261289 10.4793719,9.30368857 C10.479064,7.59194717 9.44902741,6.04876063 7.86927193,5.39373435 Z M7.80757389,2.98532306 C10.476601,4.00797363 12.5,6.39662401 12.5,9.18163624 C12.5,6.39693222 14.5230911,4.00797363 17.1911946,2.98563127 C14.1882068,1.73296821 10.8102538,1.73296821 7.80757389,2.98532306 Z M20.3631143,5.39373435 C18.7833588,4.73870807 16.9650009,5.10084269 15.7559616,6.31127072 C14.5469222,7.52169875 14.1853092,9.34203894 14.8397467,10.923446 C15.4941842,12.5048531 17.0357875,13.5358853 18.7456897,13.5357606 C21.080487,13.5357606 22.9732143,11.6409974 22.9732143,9.30368857 C22.9729064,7.59194717 21.9428698,6.04876063 20.3631143,5.39373435 Z" id="Shape"></path>
        </g>
    </g>
</svg>