<?xml version="1.0" encoding="UTF-8"?>
<svg width="48px" height="22px" viewBox="0 0 48 22" version="1.1" xmlns="http://www.w3.org/2000/svg" xmlns:xlink="http://www.w3.org/1999/xlink">
    <!-- Generator: Sketch 63.1 (92452) - https://sketch.com -->
    <title>Yelp_Logo (1)</title>
    <desc>Created with Sketch.</desc>
    <g id="Page-1" stroke="none" stroke-width="1" fill="none" fill-rule="evenodd">
        <g id="Yelp_Logo-(1)" fill="#B8B8B8" fill-rule="nonzero">
            <g id="g1382" transform="translate(36.623076, 10.796322) scale(-1, 1) rotate(-180.000000) translate(-36.623076, -10.796322) translate(33.623076, 8.296322)">
                <path d="M0.499019328,4.20052299 C0.196581672,3.71578264 0.0688857729,2.18931258 0.173898848,1.17614644 C0.21086345,0.841784808 0.271350981,0.562870081 0.359561964,0.396529371 C0.480537026,0.166340711 0.683842339,0.029403661 0.915711209,0.021002615 C1.06440972,0.0134416736 1.15682123,0.0386448115 3.95268933,0.937556732 C3.95268933,0.937556732 5.19520404,1.3340861 5.20024466,1.33660642 C5.51024326,1.41557625 5.7185892,1.70037171 5.73875171,2.064137 C5.75891422,2.43714344 5.56653027,2.76646444 5.24897073,2.8857593 C5.24897073,2.8857593 4.37274163,3.24280375 4.37106142,3.24280375 C1.36684738,4.48195803 1.23159054,4.5306841 1.08037171,4.53236431 C0.848502841,4.54160546 0.642677214,4.42483092 0.499019328,4.20052299" id="path1384"></path>
            </g>
            <g id="g1386" transform="translate(38.984475, 15.827568) scale(-1, 1) rotate(-180.000000) translate(-38.984475, -15.827568) translate(36.484475, 12.827568)">
                <path d="M4.35845705,0.499019328 C4.40718312,0.6401569 4.41306385,0.736768929 4.4214649,3.67377461 C4.4214649,3.67377461 4.42818573,4.97173621 4.42902584,4.98433778 C4.44918835,5.30273742 4.24336272,5.59257351 3.90648078,5.72194962 C3.55951758,5.85552625 3.18567103,5.773196 2.97564488,5.51192347 C2.97564488,5.51192347 2.36236852,4.78439289 2.36068831,4.78439289 C0.256226294,2.31196505 0.168015311,2.19771083 0.116768931,2.05153263 C0.0856850607,1.96584196 0.0730834917,1.87343045 0.0831647469,1.78185905 C0.0957663159,1.65080273 0.155413742,1.52142662 0.25370598,1.40045156 C0.741806752,0.820779389 3.08233816,-0.0403278249 3.83003126,0.0873680741 C4.08962358,0.134413932 4.27864711,0.280592132 4.35845705,0.499019328" id="path1388"></path>
            </g>
            <g id="g1390" transform="translate(45.401327, 14.464076) scale(-1, 1) rotate(-180.000000) translate(-45.401327, -14.464076) translate(42.401327, 11.464076)">
                <path d="M3.18987576,0.157934056 C3.89556362,0.439369097 5.43463525,2.39765292 5.54300874,3.15122674 C5.58081345,3.41333938 5.4984832,3.63932751 5.31786071,3.7838255 C5.19940596,3.87287659 5.10951477,3.90732088 2.31532687,4.8247151 C2.31532687,4.8247151 1.08961426,5.22964552 1.07365228,5.23720646 C0.777095352,5.35230079 0.438533198,5.24560751 0.210864852,4.96501257 C-0.0260446447,4.67685669 -0.0613290378,4.29628931 0.127694497,4.00897354 L0.620835896,3.20583354 C2.27920237,0.512458197 2.40605817,0.321754453 2.52535302,0.228502843 C2.71017603,0.0831647469 2.94540532,0.0596418181 3.18987576,0.157934056" id="path1392"></path>
            </g>
            <g id="g1394" transform="translate(45.138378, 7.700395) scale(-1, 1) rotate(-180.000000) translate(-45.138378, -7.700395) translate(42.138378, 4.700395)">
                <path d="M5.43211213,1.22066778 C5.62449608,1.35004388 5.72110811,1.56679087 5.70430602,1.83058371 C5.70430602,1.83898476 5.70598623,1.84822591 5.70430602,1.85746706 C5.62281587,2.63708413 4.2568058,4.66509663 3.58388201,4.99441763 C3.34529231,5.10867186 3.1067026,5.10111092 2.90843791,4.96837439 C2.78578264,4.88856445 2.69589145,4.76758939 0.995519743,2.44217986 C0.995519743,2.44217986 0.22766414,1.39624964 0.218422989,1.38616838 C0.0159577811,1.14001773 0.0125973627,0.787173803 0.210862048,0.484736147 C0.41584757,0.171377132 0.761970665,0.0184780949 1.0795302,0.106689078 C1.0795302,0.106689078 1.06692863,0.0840062536 1.06356822,0.0798057306 C1.21982767,0.138613053 1.4995825,0.20750163 2.00868589,0.328476692 C5.18428127,1.0980125 5.30693654,1.13833753 5.43211213,1.22066778 Z" id="path1396"></path>
            </g>
            <g id="g1398" transform="translate(38.249517, 4.589076) scale(-1, 1) rotate(-180.000000) translate(-38.249517, -4.589076) translate(35.249517, 0.089076)">
                <path d="M5.71018956,1.33912393 C5.65558276,2.59760062 5.27669558,8.20109829 5.23217004,8.46069061 C5.16832209,8.6959199 4.98433918,8.86394082 4.72054634,8.93030908 C3.9098454,9.13109408 0.81153964,8.26326603 0.237748199,7.67099229 C0.0529251876,7.47860833 -0.0151232849,7.24169884 0.0403236186,7.03167269 C0.131054915,6.84600957 3.96949283,0.806497611 3.96949283,0.806497611 C4.53656343,-0.113416925 4.99946107,0.0294008568 5.15152,0.0772868189 C5.30189872,0.123492572 5.76227604,0.266310354 5.71018956,1.33912393" id="path1400"></path>
            </g>
            <g id="g1402" transform="translate(4.631465, 15.031025) scale(-1, 1) rotate(-180.000000) translate(-4.631465, -15.031025) translate(0.131465, 8.531025)">
                <path d="M1.50966656,0.499019328 C1.90955635,0.128533199 2.6673307,0.0235201246 3.58808534,0.21086345 C4.45087276,0.381404684 4.98601939,0.767012695 5.50100351,2.40437656 L8.06584285,10.4626599 C8.19857938,10.8902731 8.18849812,11.2615993 8.03643919,11.5371537 C7.91294381,11.7589413 7.70711819,11.90932 7.416442,11.9866096 C6.95942509,12.1117852 6.38899407,12.0991836 6.0294293,10.8709507 L4.68358174,6.29994158 C4.68358174,6.29994158 1.94232043,11.4783463 1.94064022,11.4791864 C1.76757867,11.8253095 1.2601555,12.0731404 0.743491168,11.8681549 C0.0697272796,11.611923 -0.154580648,11.0062075 0.114252823,10.2257504 C0.114252823,10.2257504 3.44862798,3.44022553 3.45618892,3.42174323 C3.45618892,3.42174323 3.54692021,3.1797931 3.54692021,3.14030819 C3.54692021,3.14030819 3.57716398,2.95632528 3.57716398,2.94960444 C3.57044314,2.68833191 3.48307226,2.46822451 3.32681281,2.3212062 C3.17307367,2.17670821 2.9596871,2.1010988 2.71017603,2.11118005 C2.71017603,2.11118005 2.19015129,2.12294152 2.15066637,2.12294152 C1.61635985,2.05741336 1.28031801,1.75077518 1.22655131,1.27695619 C1.18874661,0.971998217 1.28703884,0.70400485 1.50966656,0.499019328" id="path1404"></path>
            </g>
            <g id="g1406" transform="translate(13.410423, 14.101444) scale(-1, 1) rotate(-180.000000) translate(-13.410423, -14.101444) translate(9.410423, 9.101444)">
                <path d="M5.36910428,5.71018956 L1.79865974,5.71018956 C1.70204771,5.78075834 1.65500185,5.89921309 1.72725085,6.25541744 C1.7726165,6.44276077 1.82134256,6.61078169 1.96416035,6.84601097 C2.0103661,6.91657976 2.05825206,6.98882876 2.10445781,7.06107775 C2.36573034,7.39123886 2.71941438,7.60294522 3.12182448,7.69703693 C4.37694075,8.00367511 5.25232975,7.36603572 5.39430742,6.27810027 C5.4623559,5.80344117 5.41783035,5.71018956 5.36910428,5.71018956 Z M7.5634575,6.33186696 C7.44836317,7.49625193 6.99890721,8.40524511 6.26213547,8.96223446 C5.47747778,9.55786862 4.3668595,9.74773226 3.0520958,9.51250297 C1.40381058,9.22686741 0.414167361,8.04904076 0.187339119,6.1016783 C-0.0915756076,3.77374846 0.29151209,2.01961005 1.2987975,1.02744652 C2.05825206,0.277233116 3.18147191,-0.0210040171 4.54748199,0.163818995 C6.49568455,0.437693094 7.37191365,1.50714625 7.37191365,2.18343045 C7.37191365,2.68077237 7.0711562,3.07226112 6.62926118,3.13190854 C6.3763897,3.18231482 6.16300313,3.13190854 5.69086435,2.70933593 C5.01037962,2.11622208 4.2215214,1.87763238 3.52255438,2.05489445 C2.98992806,2.19015129 2.57407628,2.557277 2.38589285,3.06049965 C2.38589285,3.06049965 2.30188239,3.39318107 2.30692302,3.35621647 C2.24979591,3.65613381 2.22375267,3.95353084 2.40857568,4.0745059 L2.45814185,4.10811009 L6.73763468,4.10811009 C7.13248384,4.10811009 7.33242873,4.15935647 7.44752306,4.28369195 C7.68275235,4.54496448 7.66427005,5.29097736 7.5634575,6.33186696" id="path1408"></path>
            </g>
            <g id="g1410" transform="translate(20.673274, 12.542636) scale(-1, 1) rotate(-180.000000) translate(-20.673274, -12.542636) translate(19.173274, 6.042636)">
                <path d="M1.6802092,12.4310263 C1.34164704,12.5688035 0.959399452,12.5318389 0.624197717,12.331894 C0.301597551,12.1411903 0.167180815,11.8505141 0.167180815,11.3254487 L0.167180815,1.12153824 C0.167180815,1.12153824 0.223467823,0.756932841 0.229348555,0.740970854 C0.301597551,0.486419161 0.489780981,0.269672174 0.751053511,0.151217426 C1.0408896,0.0168006899 1.37525123,0.0193210037 1.67432847,0.159618472 C2.0464948,0.320918555 2.2657621,0.693084892 2.2657621,1.15430232 L2.2657621,11.3775352 C2.2657621,11.3775352 2.20107405,11.8715167 2.20107405,11.8807578 C2.14142662,12.1176673 1.94568225,12.3226529 1.6802092,12.4310263" id="path1412"></path>
            </g>
            <g id="g1414" transform="translate(28.058484, 15.346065) scale(-1, 1) rotate(-180.000000) translate(-28.058484, -15.346065) translate(24.058484, 8.846065)">
                <path d="M4.87008496,4.87008496 C3.45702902,4.87008496 3.23188099,6.12436112 3.18735545,7.07115901 C3.18483513,7.07367932 3.16887314,7.62562804 3.16887314,7.62562804 C3.16887314,7.62562804 3.18483513,8.03559909 3.18483513,8.05156107 C3.27640653,9.68976504 3.61496869,10.3358055 4.47943632,10.5155879 C5.0599486,10.6500046 5.50352382,10.5844764 5.83620525,10.3164831 C6.33606748,9.91407297 6.55617489,9.06220691 6.53601238,7.64074992 C6.5217306,5.97650271 6.23189451,4.87008496 4.87008496,4.87008496 Z M4.97509803,12.3621378 C4.02830015,12.5553618 3.21843932,12.3932216 2.43966235,11.865636 C2.43966235,11.865636 2.35229147,11.7950672 2.31868729,11.7749047 L2.24895861,11.7396203 L2.03557204,11.6438483 L1.97508451,11.8832781 L1.92383813,11.9698089 L1.90619593,12.0235756 L1.9003152,12.0395376 C1.9003152,12.0395376 1.84822872,12.1092663 1.84066777,12.1201876 C1.61719995,12.4679909 1.00980433,12.6276108 0.462056127,12.3150919 C0.19406276,12.163033 0.0403236186,11.9488063 0.0403236186,11.3094867 L0.0403236186,1.29459978 C0.0403236186,0.746011482 0.212545061,0.404929015 0.588911922,0.22514663 C0.90647146,0.0655267566 1.26351591,0.0529251876 1.57015409,0.18482161 C1.83058652,0.299075835 2.02213037,0.500700939 2.09353926,0.746011482 L2.1565471,1.17530493 L2.1565471,2.90844072 L2.1380648,3.18735545 L2.14562574,3.2696857 L2.1565471,3.30917061 L2.25987997,3.63933172 L2.57323898,3.43098578 C2.57323898,3.43098578 2.65220882,3.37889929 2.685813,3.3436149 L2.77990472,3.28144716 C2.78074482,3.28060706 2.88911831,3.21759921 2.88911831,3.21759921 C2.89079852,3.21759921 2.98993087,3.16887314 2.98993087,3.16887314 C3.83003546,2.77234377 4.95409542,2.81854953 5.85888807,3.28480758 C6.99806991,3.87960164 7.56093999,4.93477301 7.6911562,6.70655361 C7.96335009,10.2475945 7.14844863,11.9395652 4.97509803,12.3621378" id="path1416"></path>
            </g>
        </g>
    </g>
</svg>