<svg fill="none" height="19" viewBox="0 0 30 19" width="30" xmlns="http://www.w3.org/2000/svg"><path d="m15 0c-4 0-6.94961 3-8.97461 3s-6.02539-1-6.02539-1v6 1c0 .80814.329624 1.544.857422 2.0859-.519046.485-.857422 1.1346-.857422 1.9141.00030084.0444.00356328.0888.00976562.1328.22493438 5.864 14.99023438 5.8672 14.99023438 5.8672s14.7502-.0034 14.9883-5.8594c.0072-.0465.0111-.0935.0117-.1406 0-.8256-.3765-1.508-.9492-2 .5727-.492.9492-1.17439.9492-2v-1-6s-4.0004 1-6.0254 1-4.9746-3-8.9746-3zm-2.5 5c.8408 0 1.5.65919 1.5 1.5v2.5c0 .56503-.435 1-1 1h-1c-.565 0-1-.43497-1-1v-1.5-1c0-.84081.6592-1.5 1.5-1.5zm5 0c.8408 0 1.5.65919 1.5 1.5v1 1.5c0 .56503-.435 1-1 1h-1c-.565 0-1-.43497-1-1v-2.5c0-.84081.6592-1.5 1.5-1.5zm-10 1c.84081 0 1.5.65919 1.5 1.5v1.5c0 .56503-.43497 1-1 1h-1c-.56503 0-1-.43497-1-1v-1-.5c0-.84081.65919-1.5 1.5-1.5zm15 0c.8408 0 1.5.65919 1.5 1.5v1.5c0 .56503-.435 1-1 1h-1c-.565 0-1-.43497-1-1v-1.5c0-.84081.6592-1.5 1.5-1.5zm-19.5 1c.56503 0 1 .43497 1 1v1c0 .56503-.43497 1-1 1s-1-.43497-1-1v-1c0-.56503.43497-1 1-1zm24 0c.565 0 1 .43497 1 1v1c0 .56503-.435 1-1 1s-1-.43497-1-1v-1c0-.56503.435-1 1-1zm-24 5c.56503 0 1 .435 1 1s-.43497 1-1 1-1-.435-1-1 .43497-1 1-1zm4 0h1c.56503 0 1 .435 1 1v1c0 .565-.43497 1-1 1-1.11667 0-2-.8833-2-2 0-.565.43497-1 1-1zm5 0h1c.565 0 1 .435 1 1v1c0 .565-.435 1-1 1h-1c-.565 0-1-.435-1-1v-1c0-.565.435-1 1-1zm5 0h1c.565 0 1 .435 1 1v1c0 .565-.435 1-1 1h-1c-.565 0-1-.435-1-1v-1c0-.565.435-1 1-1zm5 0h1c.565 0 1 .435 1 1 0 1.1167-.8833 2-2 2-.565 0-1-.435-1-1v-1c0-.565.435-1 1-1zm5 0c.565 0 1 .435 1 1s-.435 1-1 1-1-.435-1-1 .435-1 1-1z" fill="#0068b5"/></svg>