<svg fill="none" height="24" viewBox="0 0 24 24" width="24" xmlns="http://www.w3.org/2000/svg"><path d="m3.00977 0c-.613 0-1.20222.270813-1.57422.757812-.900003 1.176998-1.43555 2.646188-1.43555 4.242188v6c0 1.105.895 2 2 2h11c.552 0 1-.448 1-1v-7c0-1.596-.5355-3.06519-1.4355-4.242188-.372-.486999-.9613-.757812-1.5743-.757812zm12.99023 6v6c0 .552.448 1 1 1h7v-6h-5.0195c-1.981 0-2.9805-1-2.9805-1zm-9.01562 8.9863c-.04845.0011-.09675.0056-.14454.0137h-3.83984c-.13251-.0019-.26407.0226-.38704.072s-.23489.1228-.32926.2158c-.09437.0931-.16931.204-.22046.3262-.05114.1223-.07748.2535-.07748.386s.02634.2637.07748.386c.05115.1222.12609.2331.22046.3262.09437.093.20629.1664.32926.2158s.25453.0739.38704.072h3v3.2715c-.30352.1752-.55566.4271-.73117.7305-.1755.3034-.26821.6475-.26883.998 0 .5304.21071 1.0391.58579 1.4142.37507.3751.88378.5858 1.41421.5858s1.03914-.2107 1.41421-.5858c.37508-.3751.58579-.8838.58579-1.4142-.00028-.3508-.09282-.6954-.26834-.9991-.17553-.3037-.42785-.556-.73166-.7314v-3.2695h3c.1325.0019.2641-.0226.387-.072.123-.0494.2349-.1228.3293-.2158.0944-.0931.1693-.204.2205-.3262.0511-.1223.0774-.2535.0774-.386s-.0263-.2637-.0774-.386c-.0512-.1222-.1261-.2331-.2205-.3262-.0944-.093-.2063-.1664-.3293-.2158-.1229-.0494-.2545-.0739-.387-.072h-3.8457c-.05615-.0094-.113-.014-.16992-.0137z" fill="#0068b5"/></svg>