<svg width="26" height="22" viewBox="0 0 26 22" fill="none" xmlns="http://www.w3.org/2000/svg">
<path d="M11.5625 0C10.6445 0 9.84409 0.625625 9.62109 1.51562L9.5 2H2C0.895 2 0 2.895 0 4V6H1V20C1 21.105 1.895 22 3 22H23C24.105 22 25 21.105 25 20V6H26V4C26 2.895 25.105 2 24 2H16.5L16.3789 1.51562C16.1569 0.625625 15.3575 0 14.4395 0H11.5625ZM13 5C16.866 5 20 8.134 20 12C20 15.866 16.866 19 13 19C9.134 19 6 15.866 6 12C6 8.134 9.134 5 13 5ZM13 8C12.448 8 12 8.448 12 9V11H10C9.448 11 9 11.448 9 12C9 12.552 9.448 13 10 13H12V15C12 15.552 12.448 16 13 16C13.552 16 14 15.552 14 15V13H16C16.552 13 17 12.552 17 12C17 11.448 16.552 11 16 11H14V9C14 8.448 13.552 8 13 8Z" fill="#0068B5"/>
</svg>
