<svg width="21" height="28" viewBox="0 0 21 28" fill="none" xmlns="http://www.w3.org/2000/svg">
<path d="M10.5001 0.740234C2.7008 0.740234 0.640059 7.34147 0.640059 10.8313V12.8613C0.640059 12.8665 0.643457 12.8708 0.643457 12.8761C0.272257 13.3128 0.0600586 13.8922 0.0600586 14.5447C0.0600586 15.8549 0.953186 16.9653 2.18975 17.2634C3.24303 19.9036 4.48564 21.8716 5.90084 23.1801C6.12994 24.4231 7.3926 25.4097 8.72834 25.9068C8.73878 25.9109 8.74962 25.9169 8.76006 25.9204V25.9181V24.4205L8.18006 23.8405V22.2002C8.18006 20.9208 9.22058 19.8802 10.5001 19.8802C11.7795 19.8802 12.8201 20.9208 12.8201 22.2002V23.8405L12.2401 24.4205V25.9193V25.9215C12.2499 25.918 12.2597 25.912 12.2695 25.9079C13.6076 25.4109 14.873 24.422 15.1004 23.1767C16.5202 21.859 17.7617 19.8736 18.8104 17.2079C20.0638 16.9179 20.9401 15.8485 20.9401 14.5447C20.9401 13.887 20.7252 13.302 20.3476 12.8647C20.3499 12.8438 20.3601 10.8313 20.3601 10.8313C20.3601 4.51281 16.6742 0.740234 10.5001 0.740234ZM7.37236 6.64672C8.73304 8.30552 10.7793 8.28904 12.4961 8.2757C14.7697 8.25772 16.0824 8.34426 16.6456 10.325C16.9994 11.5679 17.8341 12.5958 18.9361 13.1468L19.2929 13.3246C19.3202 13.4105 19.3604 13.4935 19.4289 13.5614C19.56 13.6931 19.7801 13.9948 19.7801 14.5447C19.7801 15.3654 19.1688 16.0255 18.3278 16.1136C18.1103 16.1363 17.9252 16.2793 17.8475 16.4841C17.0262 18.6411 16.0922 20.3347 15.0528 21.5591C15.0059 21.5875 14.956 21.5934 14.9067 21.6021C14.2298 19.5147 12.1925 15.8202 10.5001 15.8202C8.80646 15.8202 6.76741 19.5192 6.09229 21.6066C6.04299 21.5979 5.99313 21.592 5.94615 21.5636C4.91027 20.3497 3.97682 18.674 3.15264 16.5396C3.07434 16.3366 2.8898 16.1957 2.67346 16.1725C1.84522 16.0838 1.22006 15.3839 1.22006 14.5447C1.22006 13.9948 1.44015 13.6925 1.57123 13.5614C1.62459 13.508 1.66289 13.4468 1.69131 13.3813C3.78453 12.6615 6.56674 9.94866 7.37236 6.64672ZM6.69494 14.0451C6.53747 14.0576 6.44006 14.1301 6.44006 14.3702C6.44006 14.8505 6.82982 15.2402 7.31006 15.2402C7.7903 15.2402 8.18006 14.8505 8.18006 14.3702C8.18006 13.89 7.7903 14.0802 7.31006 14.0802C7.06994 14.0802 6.85241 14.0326 6.69494 14.0451ZM13.0749 14.0451C12.9175 14.0576 12.8201 14.1301 12.8201 14.3702C12.8201 14.8505 13.2098 15.2402 13.6901 15.2402C14.1703 15.2402 14.5601 14.8505 14.5601 14.3702C14.5601 13.89 14.1703 14.0802 13.6901 14.0802C13.4499 14.0802 13.2324 14.0326 13.0749 14.0451ZM10.5001 21.0402C9.85916 21.0402 9.34006 21.5593 9.34006 22.2002V23.3602L9.92006 23.9402V27.4202H11.0801V23.9402L11.6601 23.3602V22.2002C11.6601 21.5593 11.141 21.0402 10.5001 21.0402Z" fill="#0068B5"/>
</svg>
