<svg width="28" height="24" viewBox="0 0 28 24" fill="none" xmlns="http://www.w3.org/2000/svg">
<path d="M14 0C13.9641 2.44099e-05 13.9283 0.00198035 13.8926 0.00585938C7.86152 0.0599806 2.96299 4.61262 2.19336 10.4551C0.959289 10.9969 0 12.0745 0 13.5C0 15.3002 1.40298 16.748 3.1582 16.9297C5.04929 21.0746 9.15547 24 14 24C18.8445 24 22.9507 21.0746 24.8418 16.9297C26.597 16.748 28 15.3002 28 13.5C28 12.0745 27.0407 10.9969 25.8066 10.4551C25.0324 4.57759 20.0808 0 14 0ZM14 2C14.565 2 15 2.43497 15 3C15 3.56503 14.565 4 14 4C13.7287 4 13.4949 3.89693 13.3145 3.72656C13.2189 3.63641 13.1065 3.56595 12.9838 3.51922C12.861 3.47249 12.7302 3.4504 12.5989 3.45421C12.4676 3.45802 12.3383 3.48765 12.2185 3.54142C12.0986 3.59519 11.9905 3.67204 11.9004 3.76758C11.7183 3.96053 11.6203 4.21792 11.628 4.4831C11.6318 4.61441 11.6615 4.74368 11.7152 4.86354C11.769 4.98339 11.8459 5.09149 11.9414 5.18164C12.477 5.68728 13.2073 6 14 6C15.645 6 17 4.64497 17 3C17 2.81037 16.9777 2.6256 16.9434 2.44531C20.7647 3.61958 23.6002 7.01526 23.9551 11.1328C23.9742 11.351 24.0644 11.5569 24.2119 11.7189C24.3594 11.8808 24.556 11.9899 24.7715 12.0293C25.4704 12.1572 26 12.7547 26 13.5C26 14.3408 25.3408 15 24.5 15C24.5458 15 24.4997 14.9953 24.3438 14.9805C24.127 14.9597 23.9093 15.0103 23.7239 15.1245C23.5385 15.2387 23.3954 15.4103 23.3164 15.6133C21.8668 19.3468 18.2558 22 14 22C9.74424 22 6.1332 19.3468 4.68359 15.6133C4.60461 15.4103 4.46153 15.2387 4.2761 15.1245C4.09068 15.0103 3.87304 14.9597 3.65625 14.9805C3.50029 14.9953 3.45422 15 3.5 15C2.65919 15 2 14.3408 2 13.5C2 12.7547 2.52964 12.1572 3.22852 12.0293C3.444 11.9899 3.64058 11.8808 3.78807 11.7189C3.93556 11.5569 4.0258 11.351 4.04492 11.1328C4.48618 6.01245 8.75897 2 14 2ZM9.5 10C9.10218 10 8.72064 10.158 8.43934 10.4393C8.15804 10.7206 8 11.1022 8 11.5C8 11.8978 8.15804 12.2794 8.43934 12.5607C8.72064 12.842 9.10218 13 9.5 13C9.89782 13 10.2794 12.842 10.5607 12.5607C10.842 12.2794 11 11.8978 11 11.5C11 11.1022 10.842 10.7206 10.5607 10.4393C10.2794 10.158 9.89782 10 9.5 10ZM18.5 10C18.1022 10 17.7206 10.158 17.4393 10.4393C17.158 10.7206 17 11.1022 17 11.5C17 11.8978 17.158 12.2794 17.4393 12.5607C17.7206 12.842 18.1022 13 18.5 13C18.8978 13 19.2794 12.842 19.5607 12.5607C19.842 12.2794 20 11.8978 20 11.5C20 11.1022 19.842 10.7206 19.5607 10.4393C19.2794 10.158 18.8978 10 18.5 10ZM18.4922 14.9883C18.346 14.9855 18.2009 15.0149 18.0673 15.0743C17.9337 15.1337 17.8147 15.2217 17.7188 15.332C16.8011 16.3558 15.4839 17 14 17C12.5161 17 11.2003 16.3564 10.2812 15.332C10.1822 15.2184 10.0587 15.1286 9.92001 15.0694C9.78134 15.0102 9.63108 14.9832 9.48047 14.9902C9.29024 14.9992 9.10652 15.0623 8.95091 15.1721C8.7953 15.2819 8.67428 15.4338 8.60207 15.61C8.52986 15.7862 8.50946 15.9794 8.54328 16.1668C8.5771 16.3542 8.66372 16.5281 8.79297 16.668C10.0719 18.0936 11.9339 19 14 19C16.0661 19 17.9287 18.0942 19.207 16.668C19.3382 16.5264 19.4256 16.35 19.4587 16.1599C19.4918 15.9698 19.4693 15.7741 19.3937 15.5966C19.3181 15.419 19.1928 15.2671 19.0329 15.1592C18.8729 15.0512 18.6851 14.9919 18.4922 14.9883V14.9883Z" fill="#0068B5"/>
</svg>
