<svg width="22" height="22" viewBox="0 0 22 22" fill="none" xmlns="http://www.w3.org/2000/svg">
<path d="M7 0C4.75 0 2.93523 0.879756 1.75195 2.21094C0.56868 3.54212 0 5.27778 0 7C0 9.57927 0.460946 11.2217 0.957031 12.4219C1.45312 13.622 1.88528 14.2967 2.00977 15.1445C2.00976 15.1452 2.00976 15.1458 2.00977 15.1465C2.18444 16.3341 2.4109 17.8811 2.91211 19.2344C3.16271 19.911 3.47868 20.55 3.96875 21.0762C4.45882 21.6023 5.18837 22 6 22C7.2599 22 8.28108 21.3135 8.85547 20.4668C9.42986 19.6201 9.6965 18.6496 9.92773 17.748C10.159 16.8465 10.3542 15.9988 10.5762 15.5C10.6872 15.2506 10.7995 15.1036 10.8594 15.0508C10.9192 14.998 10.9011 15 11 15C11.0989 15 11.0808 14.998 11.1406 15.0508C11.2005 15.1036 11.3128 15.2506 11.4238 15.5C11.6458 15.9988 11.841 16.8465 12.0723 17.748C12.3035 18.6496 12.5701 19.6201 13.1445 20.4668C13.7189 21.3135 14.7401 22 16 22C16.8116 22 17.5412 21.6023 18.0312 21.0762C18.5213 20.55 18.8373 19.911 19.0879 19.2344C19.5891 17.8811 19.8156 16.3341 19.9902 15.1465C19.9902 15.1458 19.9902 15.1452 19.9902 15.1445C20.1147 14.2967 20.5469 13.622 21.043 12.4219C21.5391 11.2218 22 9.57927 22 7C22 5.27778 21.4313 3.54212 20.248 2.21094C19.0648 0.879756 17.25 0 15 0C13.3889 0 12.257 0.271039 11.5039 0.572266C11.1711 0.705372 11.1722 0.75759 10.9688 0.890625C10.3554 0.566173 9.11709 0 7 0ZM7 2C9.25434 2 10.4395 2.82812 10.4395 2.82812C10.6319 2.95834 10.8637 3.01748 11.095 2.99538C11.3263 2.97328 11.5427 2.87133 11.707 2.70703C11.707 2.70703 11.7492 2.62651 12.2461 2.42773C12.743 2.22896 13.6111 2 15 2C16.75 2 17.9352 2.62024 18.752 3.53906C19.5687 4.45788 20 5.72222 20 7C20 8.27789 19.8835 9.22382 19.7129 10H15.7969C15.3405 8.29364 13.8436 7 12 7H10C8.15641 7 6.65948 8.29364 6.20312 10H2.28711C2.1165 9.22382 2 8.27789 2 7C2 5.72222 2.43132 4.45788 3.24805 3.53906C4.06477 2.62024 5.25 2 7 2ZM10 9H12C13.1167 9 14 9.88333 14 11C14 11.2652 14.1054 11.5195 14.2929 11.7071C14.4805 11.8946 14.7348 12 15 12H19.0391C18.6399 12.8826 18.1802 13.6945 18.0098 14.8555C17.8365 16.0336 17.6035 17.4844 17.2129 18.5391C17.0175 19.0667 16.7798 19.4837 16.5664 19.7129C16.353 19.942 16.2304 20 16 20C15.3514 20 15.1167 19.8115 14.8008 19.3457C14.4848 18.8799 14.2274 18.1004 14.0098 17.252C13.7921 16.4035 13.6141 15.5012 13.252 14.6875C13.0709 14.2807 12.839 13.8808 12.4648 13.5508C12.2648 13.3743 11.9528 13.3528 11.6816 13.2559C11.4946 13.088 11.2513 12.9966 11 13C10.7494 12.9971 10.5068 13.0884 10.3203 13.2559C10.0484 13.3528 9.73567 13.3739 9.53516 13.5508C9.16101 13.8808 8.9291 14.2807 8.74805 14.6875C8.38593 15.5012 8.20787 16.4035 7.99023 17.252C7.7726 18.1004 7.51517 18.8799 7.19922 19.3457C6.88326 19.8115 6.6486 20 6 20C5.76963 20 5.64702 19.942 5.43359 19.7129C5.22017 19.4837 4.98251 19.0667 4.78711 18.5391C4.39652 17.4844 4.16354 16.0336 3.99023 14.8555V14.8535C3.81952 13.6937 3.35989 12.8822 2.96094 12H7C7.26521 12 7.51955 11.8946 7.70708 11.7071C7.89461 11.5195 7.99997 11.2652 8 11C8 9.88333 8.88333 9 10 9Z" fill="#0068B5"/>
</svg>
