<svg width="30" height="19" viewBox="0 0 30 19" fill="none" xmlns="http://www.w3.org/2000/svg">
<path d="M15 0C11 0 8.05039 3 6.02539 3C4.00039 3 0 2 0 2V8V9C0 9.80814 0.329624 10.544 0.857422 11.0859C0.338376 11.5709 0 12.2205 0 13C0.00030084 13.0444 0.00356328 13.0888 0.00976562 13.1328C0.2347 18.9968 15 19 15 19C15 19 29.7502 18.9966 29.9883 13.1406C29.9955 13.0941 29.9994 13.0471 30 13C30 12.1744 29.6235 11.492 29.0508 11C29.6235 10.508 30 9.82561 30 9V8V2C30 2 25.9996 3 23.9746 3C21.9496 3 19 0 15 0ZM12.5 5C13.3408 5 14 5.65919 14 6.5V9C14 9.56503 13.565 10 13 10H12C11.435 10 11 9.56503 11 9V7.5V6.5C11 5.65919 11.6592 5 12.5 5ZM17.5 5C18.3408 5 19 5.65919 19 6.5V7.5V9C19 9.56503 18.565 10 18 10H17C16.435 10 16 9.56503 16 9V6.5C16 5.65919 16.6592 5 17.5 5ZM7.5 6C8.34081 6 9 6.65919 9 7.5V9C9 9.56503 8.56503 10 8 10H7C6.43497 10 6 9.56503 6 9V8V7.5C6 6.65919 6.65919 6 7.5 6ZM22.5 6C23.3408 6 24 6.65919 24 7.5V9C24 9.56503 23.565 10 23 10H22C21.435 10 21 9.56503 21 9V7.5C21 6.65919 21.6592 6 22.5 6ZM3 7C3.56503 7 4 7.43497 4 8V9C4 9.56503 3.56503 10 3 10C2.43497 10 2 9.56503 2 9V8C2 7.43497 2.43497 7 3 7ZM27 7C27.565 7 28 7.43497 28 8V9C28 9.56503 27.565 10 27 10C26.435 10 26 9.56503 26 9V8C26 7.43497 26.435 7 27 7ZM3 12C3.56503 12 4 12.435 4 13C4 13.565 3.56503 14 3 14C2.43497 14 2 13.565 2 13C2 12.435 2.43497 12 3 12ZM7 12H8C8.56503 12 9 12.435 9 13V14C9 14.565 8.56503 15 8 15C6.88333 15 6 14.1167 6 13C6 12.435 6.43497 12 7 12ZM12 12H13C13.565 12 14 12.435 14 13V14C14 14.565 13.565 15 13 15H12C11.435 15 11 14.565 11 14V13C11 12.435 11.435 12 12 12ZM17 12H18C18.565 12 19 12.435 19 13V14C19 14.565 18.565 15 18 15H17C16.435 15 16 14.565 16 14V13C16 12.435 16.435 12 17 12ZM22 12H23C23.565 12 24 12.435 24 13C24 14.1167 23.1167 15 22 15C21.435 15 21 14.565 21 14V13C21 12.435 21.435 12 22 12ZM27 12C27.565 12 28 12.435 28 13C28 13.565 27.565 14 27 14C26.435 14 26 13.565 26 13C26 12.435 26.435 12 27 12Z" fill="#0068B5"/>
</svg>
