<svg width="22" height="23" viewBox="0 0 22 23" fill="none" xmlns="http://www.w3.org/2000/svg">
<path d="M7 0C4.75 0 2.93523 0.879756 1.75195 2.21094C0.56868 3.54212 0 5.27778 0 7C0 8.85535 0.233828 10.2161 0.554688 11.2871C0.616417 11.493 0.74284 11.6735 0.915222 11.8019C1.0876 11.9303 1.29677 11.9998 1.51172 12H7.08398L7.30664 14.6836L14.7754 13.6875L14.916 12H20.4863C20.7016 12.0002 20.9112 11.931 21.084 11.8025C21.2568 11.6741 21.3835 11.4933 21.4453 11.2871C21.7675 10.2154 22 8.85535 22 7C22 5.27778 21.4313 3.54212 20.248 2.21094C19.0648 0.879756 17.25 0 15 0C13.3889 0 12.257 0.271039 11.5039 0.572266C11.1019 0.733082 11.0664 0.810453 10.8574 0.957031C9.83168 0.435236 8.60684 0 7 0ZM7 2C8.68381 2 9.86068 2.51528 10.6895 3.08008C10.8277 3.17706 10.9882 3.23746 11.1561 3.25565C11.324 3.27384 11.4938 3.24922 11.6496 3.18409C11.8054 3.11896 11.9421 3.01545 12.0471 2.88319C12.1521 2.75093 12.2219 2.59425 12.25 2.42773C12.7473 2.22915 13.613 2 15 2C16.75 2 17.9352 2.62024 18.752 3.53906C19.5687 4.45788 20 5.72222 20 7C20 8.36607 19.8107 9.19806 19.6191 10H2.38086C2.18965 9.19765 2 8.36607 2 7C2 5.72222 2.43132 4.45788 3.24805 3.53906C4.06477 2.62024 5.25 2 7 2ZM14.6055 15.7285L7.47266 16.6797L7.63672 18.6406L14.4395 17.7324L14.6055 15.7285ZM14.2695 19.7734L7.86328 20.627C8.25228 22.006 9.517 23 11 23C12.696 23 14.107 21.6998 14.248 20.0098L14.2695 19.7734Z" fill="#0068B5"/>
</svg>
