<?xml version="1.0" encoding="UTF-8"?>
<svg width="24px" height="22px" viewBox="0 0 24 22" version="1.1" xmlns="http://www.w3.org/2000/svg" xmlns:xlink="http://www.w3.org/1999/xlink">
    <!-- Generator: Sketch 62 (91390) - https://sketch.com -->
    <title>icons8-monitor</title>
    <desc>Created with Sketch.</desc>
    <g id="Page-1" stroke="none" stroke-width="1" fill="none" fill-rule="evenodd">
        <g id="icons8-monitor">
            <line x1="7" y1="21" x2="17" y2="21" id="Path" stroke="#0068B5" stroke-width="2" stroke-linecap="round" stroke-linejoin="round"></line>
            <path d="M22,0 L2,0 C0.895,0 0,0.895 0,2 L0,16 C0,17.105 0.895,18 2,18 L22,18 C23.105,18 24,17.105 24,16 L24,2 C24,0.895 23.105,0 22,0 Z M12,17 C11.448,17 11,16.552 11,16 C11,15.448 11.448,15 12,15 C12.552,15 13,15.448 13,16 C13,16.552 12.552,17 12,17 Z M22,14 L2,14 L2,2 L22,2 L22,14 Z" id="Shape" fill="#0068B5" fill-rule="nonzero"></path>
        </g>
    </g>
</svg>