<svg width="24" height="24" viewBox="0 0 24 24" fill="none" xmlns="http://www.w3.org/2000/svg">
<path d="M3.00977 0C2.39677 0 1.80755 0.270813 1.43555 0.757812C0.535547 1.93481 0 3.404 0 5V11C0 12.105 0.895 13 2 13H13C13.552 13 14 12.552 14 12V5C14 3.404 13.4645 1.93481 12.5645 0.757812C12.1925 0.270813 11.6032 0 10.9902 0H3.00977ZM16 6V12C16 12.552 16.448 13 17 13H24V7H18.9805C16.9995 7 16 6 16 6ZM6.98438 14.9863C6.93593 14.9874 6.88763 14.9919 6.83984 15H3C2.86749 14.9981 2.73593 15.0226 2.61296 15.072C2.48999 15.1214 2.37807 15.1948 2.2837 15.2878C2.18933 15.3809 2.11439 15.4918 2.06324 15.614C2.0121 15.7363 1.98576 15.8675 1.98576 16C1.98576 16.1325 2.0121 16.2637 2.06324 16.386C2.11439 16.5082 2.18933 16.6191 2.2837 16.7122C2.37807 16.8052 2.48999 16.8786 2.61296 16.928C2.73593 16.9774 2.86749 17.0019 3 17H6V20.2715C5.69648 20.4467 5.44434 20.6986 5.26883 21.002C5.09333 21.3054 5.00062 21.6495 5 22C5 22.5304 5.21071 23.0391 5.58579 23.4142C5.96086 23.7893 6.46957 24 7 24C7.53043 24 8.03914 23.7893 8.41421 23.4142C8.78929 23.0391 9 22.5304 9 22C8.99972 21.6492 8.90718 21.3046 8.73166 21.0009C8.55613 20.6972 8.30381 20.4449 8 20.2695V17H11C11.1325 17.0019 11.2641 16.9774 11.387 16.928C11.51 16.8786 11.6219 16.8052 11.7163 16.7122C11.8107 16.6191 11.8856 16.5082 11.9368 16.386C11.9879 16.2637 12.0142 16.1325 12.0142 16C12.0142 15.8675 11.9879 15.7363 11.9368 15.614C11.8856 15.4918 11.8107 15.3809 11.7163 15.2878C11.6219 15.1948 11.51 15.1214 11.387 15.072C11.2641 15.0226 11.1325 14.9981 11 15H7.1543C7.09815 14.9906 7.0413 14.986 6.98438 14.9863Z" fill="#0068B5"/>
</svg>
