<svg fill="none" height="22" viewBox="0 0 26 22" width="26" xmlns="http://www.w3.org/2000/svg"><path d="m15.2734 0c-1.808 0-3.2734 1.46544-3.2734 3.27344 0 3.13732 3.6237 6.12859 5.334 7.47266.0177.0156.0359.0306.0547.0449.0032.0026.0065.0052.0097.0078.1734.1306.3846.2012.6016.2012s.4282-.0706.6016-.2012c.0046-.0038.0091-.0077.0136-.0117.0015-.0011.0044-.0027.0059-.0039.0046-.0039.0091-.0078.0137-.0117 1.6993-1.33403 5.3652-4.34494 5.3652-7.49806 0-1.808-1.4654-3.27344-3.2734-3.27344-1.727 0-2.7266 1.5-2.7266 1.5s-.9996-1.5-2.7266-1.5zm-9.2734 10c-.38282.0003-.76203.0739-1.11719.2168l-4.88281 1.7832v8l4.2207-1.834c.498-.216 1.06146-.2236 1.56446-.0176l9.06444 3.7032h.0039c.2017.0971.4226.1478.6465.1484.259-.0009.5133-.0689.7383-.1973.0001 0 .0058.0001.0058 0l8.9864-4.9922-.002-.0019c.2335-.1297.428-.3194.5637-.5494.1356-.2301.2073-.4922.2078-.7592 0-.3978-.158-.7794-.4393-1.0607s-.6629-.4393-1.0607-.4393c-.2203.0008-.4377.0502-.6367.1445v-.0019l-6.8633 2.8574h-1.5c.3978 0 .7794-.158 1.0607-.4393s.4393-.6629.4393-1.0607c-.0001-.3165-.1002-.6248-.2862-.8809-.1859-.2561-.4481-.4468-.749-.5449v-.0019l-8.69332-3.7911h-.01171c-.39454-.184-.82442-.28-1.25977-.2812z" fill="#0068b5"/></svg>