<svg width="24" height="23" viewBox="0 0 24 23" fill="none" xmlns="http://www.w3.org/2000/svg">
<path d="M20.2656 0C19.3031 0 18.3541 0.372141 17.6641 1.11914L8.00977 10.7734C7.66789 11.1153 7.53496 11.6196 7.59961 12.1172C7.23136 12.5974 6.83852 12.8757 6.31836 13.1816C5.53992 13.6395 4.446 14.1399 3.29297 15.293C1.17512 17.4108 0 19.6667 0 22C2.65169e-05 22.2652 0.105392 22.5195 0.292922 22.7071C0.480453 22.8946 0.734792 23 1 23C2.52167 23 3.80499 22.9589 5.01758 22.6367C6.23017 22.3145 7.34059 21.6828 8.37305 20.6504C8.95547 20.068 9.21672 19.4038 9.45703 18.8789C9.69734 18.354 9.90532 17.9758 10.1582 17.7578C10.9 17.118 11.3023 16.7305 11.5723 16.4766C12.1452 16.7169 12.8801 16.6191 13.4121 16.1758L23.0664 6.52148C24.3304 4.91248 24.3302 2.61414 22.9512 1.11914C22.2042 0.372141 21.2281 0 20.2656 0ZM15 7C15.2558 7 15.5115 7.09747 15.707 7.29297L16.707 8.29297C17.098 8.68397 17.098 9.31603 16.707 9.70703C16.512 9.90203 16.256 10 16 10C15.744 10 15.488 9.90203 15.293 9.70703L14.293 8.70703C13.902 8.31603 13.902 7.68397 14.293 7.29297C14.4885 7.09747 14.7442 7 15 7ZM12 10C12.2558 10 12.5115 10.0975 12.707 10.293L13.707 11.293C14.098 11.684 14.098 12.316 13.707 12.707C13.512 12.902 13.256 13 13 13C12.744 13 12.488 12.902 12.293 12.707L11.293 11.707C10.902 11.316 10.902 10.684 11.293 10.293C11.4885 10.0975 11.7442 10 12 10ZM8.75 13.8125L10.0742 15.1367C9.77019 15.4207 9.48805 15.6949 8.85352 16.2422C8.2014 16.8042 7.89086 17.496 7.63867 18.0469C7.38648 18.5977 7.18156 19.0138 6.95898 19.2363C6.13044 20.0649 5.40907 20.4626 4.50391 20.7031C3.92925 20.8558 3.06381 20.8538 2.2793 20.8906C2.56728 19.5557 3.23159 18.1825 4.70703 16.707C5.623 15.7911 6.42122 15.4419 7.33203 14.9062C7.80055 14.6307 8.28801 14.2832 8.75 13.8125Z" fill="#0068B5"/>
</svg>
