<?xml version="1.0" encoding="UTF-8"?>
<svg width="25px" height="22px" viewBox="0 0 25 22" version="1.1" xmlns="http://www.w3.org/2000/svg" xmlns:xlink="http://www.w3.org/1999/xlink">
    <!-- Generator: Sketch 62 (91390) - https://sketch.com -->
    <title>icons8-toothache</title>
    <desc>Created with Sketch.</desc>
    <g id="Page-1" stroke="none" stroke-width="1" fill="none" fill-rule="evenodd">
        <g id="icons8-toothache" fill="#0068B5" fill-rule="nonzero">
            <path d="M18.695,12.73 C18.415,13.452 18.15,14.133 17.989,14.793 C17.869,15.279 17.772,15.828 17.672,16.393 C17.311,18.437 16.959,20 16,20 C15.307,20 14.79,19.878 14.461,18.301 C14.277,17.416 13.244,13 11,13 C8.756,13 7.723,17.416 7.539,18.301 C7.21,19.878 6.693,20 6,20 C5.041,20 4.689,18.437 4.329,16.393 C4.229,15.829 4.132,15.28 4.012,14.793 C3.847,14.119 3.579,13.492 3.296,12.828 C2.688,11.406 2,9.794 2,7 C2,4.056 4.056,2 7,2 C10.382,2 12.095,4.447 12.17,4.559 C12.478,5.014 13.095,5.137 13.554,4.832 C14.013,4.525 14.137,3.905 13.831,3.445 C13.798,3.396 13.502,2.962 12.94,2.417 C13.653,2.194 14.441,2 15,2 C16.562,2 17.791,2.445 18.643,3.269 L20.599,2.431 C19.394,0.877 17.465,0 15,0 C13.645,0 11.76,0.681 10.984,0.985 C9.944,0.43 8.617,0 7,0 C2.944,0 0,2.944 0,7 C0,10.203 0.807,12.094 1.456,13.613 C1.717,14.225 1.943,14.754 2.069,15.269 C2.179,15.716 2.267,16.221 2.359,16.74 C2.75,18.96 3.287,22 6,22 C8.519,22 9.202,20.122 9.497,18.709 C9.847,17.029 10.565,15.439 11,15.052 C11.435,15.44 12.154,17.03 12.503,18.709 C12.798,20.122 13.481,22 16,22 C18.713,22 19.25,18.96 19.641,16.74 C19.733,16.221 19.821,15.717 19.931,15.269 C20.062,14.735 20.293,14.14 20.56,13.451 C20.774,12.9 21.004,12.3 21.217,11.649 L18.695,12.73 Z" id="Path"></path>
            <path d="M23.454,8.256 C23.488,8.079 23.432,7.897 23.305,7.769 L22.153,6.617 L24.842,3.928 C25.026,3.744 25.054,3.455 24.908,3.239 C24.759,3.02 24.483,2.941 24.244,3.045 L18.866,5.35 C18.701,5.421 18.581,5.569 18.546,5.746 C18.512,5.923 18.568,6.105 18.695,6.233 L19.847,7.385 L17.158,10.074 C16.974,10.258 16.946,10.547 17.092,10.763 C17.112,10.792 17.134,10.819 17.158,10.843 C17.313,10.998 17.549,11.047 17.756,10.958 L23.133,8.654 C23.3,8.581 23.42,8.432 23.454,8.256 Z" id="Path"></path>
        </g>
    </g>
</svg>