<svg width="30" height="18" viewBox="0 0 30 18" fill="none" xmlns="http://www.w3.org/2000/svg">
<path d="M12.5 0C11.246 0 10.1512 0.668109 9.5332 1.66211C8.9582 1.24911 8.26 1 7.5 1C6.318 1 5.27463 1.59314 4.64062 2.49414C4.16763 2.18414 3.606 2 3 2C1.346 2 0 3.346 0 5V6C0 7.654 1.346 9 3 9C3.771 9 4.468 8.6997 5 8.2207C5.532 8.6997 6.229 9 7 9H8C8.771 9 9.468 8.6997 10 8.2207C10.532 8.7007 11.229 9 12 9H13C13.771 9 14.468 8.6997 15 8.2207C15.532 8.7007 16.229 9 17 9H18C18.771 9 19.468 8.6997 20 8.2207C20.532 8.7007 21.229 9 22 9H23C23.771 9 24.468 8.6997 25 8.2207C25.532 8.7007 26.229 9 27 9C28.654 9 30 7.654 30 6V5C30 3.346 28.654 2 27 2C26.394 2 25.8324 2.18414 25.3594 2.49414C24.7254 1.59314 23.682 1 22.5 1C21.74 1 21.0418 1.24911 20.4668 1.66211C19.8488 0.668109 18.754 0 17.5 0C16.52 0 15.636 0.407594 15 1.05859C14.364 0.407594 13.48 0 12.5 0ZM12.5 2C13.327 2 14 2.673 14 3.5V6C14 6.551 13.552 7 13 7H12C11.448 7 11 6.551 11 6V3.5C11 2.673 11.673 2 12.5 2ZM17.5 2C18.327 2 19 2.673 19 3.5V4.5V6C19 6.551 18.552 7 18 7H17C16.448 7 16 6.551 16 6V3.5C16 2.673 16.673 2 17.5 2ZM7.5 3C8.327 3 9 3.673 9 4.5V6C9 6.551 8.552 7 8 7H7C6.448 7 6 6.551 6 6V4.5C6 3.673 6.673 3 7.5 3ZM22.5 3C23.327 3 24 3.673 24 4.5V6C24 6.551 23.552 7 23 7H22C21.448 7 21 6.551 21 6V4.5C21 3.673 21.673 3 22.5 3ZM3 4C3.552 4 4 4.449 4 5V6C4 6.551 3.552 7 3 7C2.448 7 2 6.551 2 6V5C2 4.449 2.448 4 3 4ZM27 4C27.552 4 28 4.449 28 5V6C28 6.551 27.552 7 27 7C26.448 7 26 6.551 26 6V5C26 4.449 26.448 4 27 4ZM3 11C1.346 11 0 12.346 0 14C0 15.654 1.346 17 3 17C3.68 17 4.30069 16.7639 4.80469 16.3809C5.53469 17.3579 6.689 18 8 18C8.771 18 9.468 17.6997 10 17.2207C10.532 17.7007 11.229 18 12 18H13C13.771 18 14.468 17.6997 15 17.2207C15.532 17.7007 16.229 18 17 18H18C18.771 18 19.468 17.6997 20 17.2207C20.532 17.7007 21.229 18 22 18C23.311 18 24.4653 17.3579 25.1953 16.3809C25.6993 16.7639 26.32 17 27 17C28.654 17 30 15.654 30 14C30 12.346 28.654 11 27 11C26.229 11 25.532 11.3003 25 11.7793C24.468 11.2993 23.771 11 23 11H22C21.229 11 20.532 11.3003 20 11.7793C19.468 11.2993 18.771 11 18 11H17C16.229 11 15.532 11.3003 15 11.7793C14.468 11.2993 13.771 11 13 11H12C11.229 11 10.532 11.3003 10 11.7793C9.468 11.3003 8.771 11 8 11H7C6.229 11 5.532 11.3003 5 11.7793C4.468 11.3003 3.771 11 3 11ZM3 13C3.552 13 4 13.449 4 14C4 14.551 3.552 15 3 15C2.448 15 2 14.551 2 14C2 13.449 2.448 13 3 13ZM7 13H8C8.552 13 9 13.449 9 14V15C9 15.551 8.552 16 8 16C6.897 16 6 15.103 6 14C6 13.449 6.448 13 7 13ZM12 13H13C13.552 13 14 13.449 14 14V15C14 15.551 13.552 16 13 16H12C11.448 16 11 15.551 11 15V14C11 13.449 11.448 13 12 13ZM17 13H18C18.552 13 19 13.449 19 14V15C19 15.551 18.552 16 18 16H17C16.448 16 16 15.551 16 15V14C16 13.449 16.448 13 17 13ZM22 13H23C23.552 13 24 13.449 24 14C24 15.103 23.103 16 22 16C21.448 16 21 15.551 21 15V14C21 13.449 21.448 13 22 13ZM27 13C27.552 13 28 13.449 28 14C28 14.551 27.552 15 27 15C26.448 15 26 14.551 26 14C26 13.449 26.448 13 27 13Z" fill="#0068B5"/>
</svg>
