<svg width="22" height="22" viewBox="0 0 22 22" fill="none" xmlns="http://www.w3.org/2000/svg">
<path d="M7 0C6.09217 0 5.25909 0.147943 4.50586 0.40625C4.39009 0.427634 4.27901 0.469289 4.17773 0.529297C4.17578 0.530592 4.17382 0.531894 4.17188 0.533203C3.2061 0.921374 2.38564 1.49803 1.75195 2.21094C0.56868 3.54212 0 5.27778 0 7C0 7.46793 0.0307941 7.87203 0.0585938 8.28125C0.0294006 8.43369 0.0360874 8.59083 0.078125 8.74023C0.229826 10.3587 0.583182 11.5174 0.957031 12.4219C1.45312 13.622 1.88528 14.2967 2.00977 15.1445C2.00976 15.1452 2.00976 15.1458 2.00977 15.1465C2.18444 16.3341 2.4109 17.8811 2.91211 19.2344C3.16271 19.911 3.47868 20.55 3.96875 21.0762C4.45882 21.6023 5.18837 22 6 22C7.2599 22 8.28108 21.3135 8.85547 20.4668C9.42986 19.6201 9.6965 18.6496 9.92773 17.748C10.159 16.8465 10.3542 15.9988 10.5762 15.5C10.6872 15.2506 10.7995 15.1036 10.8594 15.0508C10.9192 14.998 10.9011 15 11 15C11.0989 15 11.0808 14.998 11.1406 15.0508C11.2005 15.1036 11.3128 15.2506 11.4238 15.5C11.6458 15.9988 11.841 16.8465 12.0723 17.748C12.3035 18.6496 12.5701 19.6201 13.1445 20.4668C13.7189 21.3135 14.7401 22 16 22C16.8116 22 17.5412 21.6023 18.0312 21.0762C18.5213 20.55 18.8373 19.911 19.0879 19.2344C19.5891 17.8811 19.8156 16.3341 19.9902 15.1465C19.9902 15.1458 19.9902 15.1452 19.9902 15.1445C20.1147 14.2967 20.5469 13.622 21.043 12.4219C21.5391 11.2218 22 9.57927 22 7C22 5.27778 21.4313 3.54212 20.248 2.21094C19.0648 0.879756 17.25 0 15 0C13.3889 0 12.257 0.271039 11.5039 0.572266C11.159 0.710241 11.1546 0.766273 10.9492 0.902344C10.3659 0.631113 8.90306 0 7 0ZM7 2C8.66667 2 10.5527 2.89453 10.5527 2.89453C10.7405 2.98835 10.953 3.02073 11.1601 2.98708C11.3673 2.95343 11.5586 2.85545 11.707 2.70703C11.707 2.70703 11.7492 2.62651 12.2461 2.42773C12.743 2.22896 13.6111 2 15 2C16.75 2 17.9352 2.62024 18.752 3.53906C19.5687 4.45788 20 5.72222 20 7C20 9.35173 19.62 10.6308 19.1953 11.6582C18.7706 12.6856 18.2023 13.5443 18.0098 14.8555C17.8365 16.0336 17.6035 17.4844 17.2129 18.5391C17.0175 19.0667 16.7798 19.4837 16.5664 19.7129C16.353 19.942 16.2304 20 16 20C15.3514 20 15.1167 19.8115 14.8008 19.3457C14.4848 18.8799 14.2274 18.1004 14.0098 17.252C13.7921 16.4035 13.6141 15.5012 13.252 14.6875C13.0709 14.2807 12.839 13.8808 12.4648 13.5508C12.0907 13.2208 11.5491 13 11 13C10.4509 13 9.9093 13.2208 9.53516 13.5508C9.16101 13.8808 8.9291 14.2807 8.74805 14.6875C8.38593 15.5012 8.20787 16.4035 7.99023 17.252C7.7726 18.1004 7.51517 18.8799 7.19922 19.3457C6.88326 19.8115 6.6486 20 6 20C5.76963 20 5.64702 19.942 5.43359 19.7129C5.22017 19.4837 4.98251 19.0667 4.78711 18.5391C4.39652 17.4844 4.16354 16.0336 3.99023 14.8555V14.8535C3.79742 13.5436 3.22912 12.685 2.80469 11.6582C2.60417 11.1731 2.41679 10.6213 2.27148 9.9375C2.5089 9.97447 2.75072 10 3 10C5.74952 10 8 7.74952 8 5C8 3.87185 7.61049 2.83811 6.97461 2.00195C6.9834 2.00192 6.99118 2 7 2ZM4.63281 2.49805C5.45543 3.03158 6 3.94286 6 5C6 6.66848 4.66848 8 3 8C2.66071 8 2.34238 7.92092 2.0332 7.80859C2.02141 7.54054 2 7.3016 2 7C2 5.72222 2.43132 4.45788 3.24805 3.53906C3.62376 3.11638 4.08202 2.76304 4.63281 2.49805Z" fill="#0068B5"/>
</svg>
