<?xml version="1.0" encoding="UTF-8"?>
<svg width="24px" height="24px" viewBox="0 0 24 24" version="1.1" xmlns="http://www.w3.org/2000/svg" xmlns:xlink="http://www.w3.org/1999/xlink">
    <!-- Generator: Sketch 62 (91390) - https://sketch.com -->
    <title>icons8-x-ray</title>
    <desc>Created with Sketch.</desc>
    <g id="Page-1" stroke="none" stroke-width="1" fill="none" fill-rule="evenodd">
        <g id="icons8-x-ray" transform="translate(0.000000, 1.000000)">
            <path d="M21,0 L3,0 C1.895,0 1,0.895 1,2 L1,20 C1,21.105 1.895,22 3,22 L21,22 C22.105,22 23,21.105 23,20 L23,2 C23,0.895 22.105,0 21,0 Z" id="Path" stroke="#0068B5" stroke-width="1.32803993" stroke-linecap="round" stroke-linejoin="round"></path>
            <path d="M13.9523593,11.3042196 L13.2883394,11.3042196 C12.5545973,11.3042196 11.9602994,10.7099217 11.9602994,9.97617966 L11.9602994,8.31612976 C11.9602994,7.39911819 12.7033378,6.65607985 13.6203493,6.65607985 L13.6203493,6.65607985 C14.5373609,6.65607985 15.2803993,7.39911819 15.2803993,8.31612976 L15.2803993,9.97617966 C15.2803993,10.7099217 14.6861014,11.3042196 13.9523593,11.3042196 Z" id="Path" stroke="#0068B5" stroke-width="1.32803993" stroke-linecap="round" stroke-linejoin="round"></path>
            <path d="M17.2724591,11.3042196 L16.6084392,11.3042196 C15.8746971,11.3042196 15.2803993,10.7099217 15.2803993,9.97617966 L15.2803993,8.98014972 C15.2803993,8.06313815 16.0234376,7.32009981 16.9404492,7.32009981 L16.9404492,7.32009981 C17.8574607,7.32009981 18.6004991,8.06313815 18.6004991,8.98014972 L18.6004991,9.97617966 C18.6004991,10.7099217 18.0062012,11.3042196 17.2724591,11.3042196 Z" id="Path" stroke="#0068B5" stroke-width="1.32803993" stroke-linecap="round" stroke-linejoin="round"></path>
            <path d="M19.928539,11.3042196 L19.928539,11.3042196 C19.1947969,11.3042196 18.6004991,10.7099217 18.6004991,9.97617966 L18.6004991,9.3121597 C18.6004991,8.57841764 19.1947969,7.98411978 19.928539,7.98411978 L19.928539,7.98411978 C20.662281,7.98411978 21.2565789,8.57841764 21.2565789,9.3121597 L21.2565789,9.97617966 C21.2565789,10.7099217 20.662281,11.3042196 19.928539,11.3042196 Z" id="Path" stroke="#0068B5" stroke-width="1.32803993" stroke-linecap="round" stroke-linejoin="round"></path>
            <path d="M19.928539,13.9602994 L19.928539,13.9602994 C19.1947969,13.9602994 18.6004991,13.3660016 18.6004991,12.6322595 L18.6004991,12.6322595 C18.6004991,11.8985175 19.1947969,11.3042196 19.928539,11.3042196 L19.928539,11.3042196 C20.662281,11.3042196 21.2565789,11.8985175 21.2565789,12.6322595 L21.2565789,12.6322595 C21.2565789,13.3660016 20.662281,13.9602994 19.928539,13.9602994 Z" id="Path" stroke="#0068B5" stroke-width="1.32803993" stroke-linecap="round" stroke-linejoin="round"></path>
            <path d="M3.99205989,13.9602994 L3.99205989,13.9602994 C3.25831783,13.9602994 2.66401996,13.3660016 2.66401996,12.6322595 L2.66401996,12.6322595 C2.66401996,11.8985175 3.25831783,11.3042196 3.99205989,11.3042196 L3.99205989,11.3042196 C4.72580195,11.3042196 5.32009981,11.8985175 5.32009981,12.6322595 L5.32009981,12.6322595 C5.32009981,13.3660016 4.72580195,13.9602994 3.99205989,13.9602994 Z" id="Path" stroke="#0068B5" stroke-width="1.32803993" stroke-linecap="round" stroke-linejoin="round"></path>
            <path d="M3.99205989,11.3042196 L3.99205989,11.3042196 C3.25831783,11.3042196 2.66401996,10.7099217 2.66401996,9.97617966 L2.66401996,9.3121597 C2.66401996,8.57841764 3.25831783,7.98411978 3.99205989,7.98411978 L3.99205989,7.98411978 C4.72580195,7.98411978 5.32009981,8.57841764 5.32009981,9.3121597 L5.32009981,9.97617966 C5.32009981,10.7099217 4.72580195,11.3042196 3.99205989,11.3042196 Z" id="Path" stroke="#0068B5" stroke-width="1.32803993" stroke-linecap="round" stroke-linejoin="round"></path>
            <path d="M9.96823955,11.3042196 L10.6322595,11.3042196 C11.3660016,11.3042196 11.9602994,10.7099217 11.9602994,9.97617966 L11.9602994,8.31612976 C11.9602994,7.39911819 11.2172611,6.65607985 10.3002495,6.65607985 L10.3002495,6.65607985 C9.38323796,6.65607985 8.64019963,7.39911819 8.64019963,8.31612976 L8.64019963,9.97617966 C8.64019963,10.7099217 9.23449749,11.3042196 9.96823955,11.3042196 Z" id="Path" stroke="#0068B5" stroke-width="1.32803993" stroke-linecap="round" stroke-linejoin="round"></path>
            <path d="M6.64813974,11.3042196 L7.3121597,11.3042196 C8.04590176,11.3042196 8.64019963,10.7099217 8.64019963,9.97617966 L8.64019963,8.98014972 C8.64019963,8.06313815 7.89716129,7.32009981 6.98014972,7.32009981 L6.98014972,7.32009981 C6.06313815,7.32009981 5.32009981,8.06313815 5.32009981,8.98014972 L5.32009981,9.97617966 C5.32009981,10.7099217 5.91439768,11.3042196 6.64813974,11.3042196 Z" id="Path" stroke="#0068B5" stroke-width="1.32803993" stroke-linecap="round" stroke-linejoin="round"></path>
            <path d="M9.96823955,11.3042196 L10.6322595,11.3042196 C11.3660016,11.3042196 11.9602994,11.8985175 11.9602994,12.6322595 L11.9602994,13.2962795 C11.9602994,14.0300215 11.3660016,14.6243194 10.6322595,14.6243194 L9.96823955,14.6243194 C9.23449749,14.6243194 8.64019963,14.0300215 8.64019963,13.2962795 L8.64019963,12.6322595 C8.64019963,11.8985175 9.23449749,11.3042196 9.96823955,11.3042196 Z" id="Path" stroke="#0068B5" stroke-width="1.32803993" stroke-linecap="round" stroke-linejoin="round"></path>
            <path d="M6.64813974,11.3042196 L7.3121597,11.3042196 C8.04590176,11.3042196 8.64019963,11.8985175 8.64019963,12.6322595 L8.64019963,13.2962795 C8.64019963,14.0300215 8.04590176,14.6243194 7.3121597,14.6243194 L7.3121597,14.6243194 C6.21187862,14.6243194 5.32009981,13.7325406 5.32009981,12.6322595 L5.32009981,12.6322595 C5.32009981,11.8985175 5.91439768,11.3042196 6.64813974,11.3042196 Z" id="Path" stroke="#0068B5" stroke-width="1.32803993" stroke-linecap="round" stroke-linejoin="round"></path>
            <path d="M13.9523593,11.3042196 L13.2883394,11.3042196 C12.5545973,11.3042196 11.9602994,11.8985175 11.9602994,12.6322595 L11.9602994,13.2962795 C11.9602994,14.0300215 12.5545973,14.6243194 13.2883394,14.6243194 L13.9523593,14.6243194 C14.6861014,14.6243194 15.2803993,14.0300215 15.2803993,13.2962795 L15.2803993,12.6322595 C15.2803993,11.8985175 14.6861014,11.3042196 13.9523593,11.3042196 Z" id="Path" stroke="#0068B5" stroke-width="1.32803993" stroke-linecap="round" stroke-linejoin="round"></path>
            <path d="M17.2724591,11.3042196 L16.6084392,11.3042196 C15.8746971,11.3042196 15.2803993,11.8985175 15.2803993,12.6322595 L15.2803993,13.2962795 C15.2803993,14.0300215 15.8746971,14.6243194 16.6084392,14.6243194 L16.6084392,14.6243194 C17.7087203,14.6243194 18.6004991,13.7325406 18.6004991,12.6322595 L18.6004991,12.6322595 C18.6004991,11.8985175 18.0062012,11.3042196 17.2724591,11.3042196 Z" id="Path" stroke="#0068B5" stroke-width="1.32803993" stroke-linecap="round" stroke-linejoin="round"></path>
            <rect id="Rectangle" fill="#0068B5" x="1" y="0" width="22" height="7"></rect>
            <rect id="Rectangle-Copy" fill="#0068B5" x="1" y="14" width="22" height="7"></rect>
            <rect id="Rectangle" fill="#0068B5" x="2" y="0" width="20" height="2"></rect>
            <rect id="Rectangle-Copy-2" fill="#0068B5" x="2" y="20" width="20" height="2"></rect>
            <rect id="Rectangle" fill="#0068B5" x="1" y="6" width="5" height="2"></rect>
            <rect id="Rectangle-Copy-3" fill="#0068B5" x="18" y="6" width="5" height="2"></rect>
            <rect id="Rectangle-Copy-4" fill="#0068B5" transform="translate(22.500000, 11.000000) rotate(-270.000000) translate(-22.500000, -11.000000) " x="19" y="10" width="7" height="2"></rect>
            <rect id="Rectangle-Copy-5" fill="#0068B5" transform="translate(1.500000, 11.000000) rotate(-270.000000) translate(-1.500000, -11.000000) " x="-2" y="10" width="7" height="2"></rect>
            <circle id="Oval" fill="#0068B5" cx="8.5" cy="6.5" r="1.5"></circle>
            <circle id="Oval-Copy" fill="#0068B5" cx="15.5" cy="6.5" r="1.5"></circle>
            <circle id="Oval" fill="#0068B5" cx="21.5" cy="11.5" r="1"></circle>
            <circle id="Oval-Copy-3" fill="#0068B5" cx="22" cy="8" r="1"></circle>
            <circle id="Oval-Copy-2" fill="#0068B5" cx="21.5" cy="13.5" r="1"></circle>
        </g>
    </g>
</svg>